<svg xmlns="http://www.w3.org/2000/svg" width="1260" height="891" viewBox="0 0 1260 891" role="img" aria-label="Desenho técnico A3 — NANO TRF TAMPA">
  <defs>
    <marker id="dim-arrow-l" markerWidth="8" markerHeight="6" refX="0" refY="3" orient="auto">
      <path d="M8,0 L0,3 L8,6" fill="none" stroke="#1a1a1a" stroke-width="0.8"/>
    </marker>
    <marker id="dim-arrow-r" markerWidth="8" markerHeight="6" refX="8" refY="3" orient="auto">
      <path d="M0,0 L8,3 L0,6" fill="none" stroke="#1a1a1a" stroke-width="0.8"/>
    </marker>
    <marker id="leader-dot" markerWidth="4" markerHeight="4" refX="2" refY="2">
      <circle cx="2" cy="2" r="1.5" fill="#1a1a1a"/>
    </marker>
  </defs>
  <rect x="0" y="0" width="1260" height="891" fill="#ffffff"/>
<rect x="20" y="20" width="1220" height="851" fill="none" stroke="#1a1a1a" stroke-width="2"/>
<rect x="30" y="30" width="1200" height="831" fill="none" stroke="#1a1a1a" stroke-width="0.8"/>
<line x1="30" y1="20" x2="30" y2="30" stroke="#1a1a1a" stroke-width="0.8" />
<line x1="30" y1="861" x2="30" y2="871" stroke="#1a1a1a" stroke-width="0.8" />
<text x="180" y="32" font-family="Arial, Helvetica, sans-serif" font-size="9" text-anchor="middle" font-weight="normal" fill="#1a1a1a">4</text>
<text x="180" y="867" font-family="Arial, Helvetica, sans-serif" font-size="9" text-anchor="middle" font-weight="normal" fill="#1a1a1a">4</text>
<line x1="330" y1="20" x2="330" y2="30" stroke="#1a1a1a" stroke-width="0.8" />
<line x1="330" y1="861" x2="330" y2="871" stroke="#1a1a1a" stroke-width="0.8" />
<text x="480" y="32" font-family="Arial, Helvetica, sans-serif" font-size="9" text-anchor="middle" font-weight="normal" fill="#1a1a1a">3</text>
<text x="480" y="867" font-family="Arial, Helvetica, sans-serif" font-size="9" text-anchor="middle" font-weight="normal" fill="#1a1a1a">3</text>
<line x1="630" y1="20" x2="630" y2="30" stroke="#1a1a1a" stroke-width="0.8" />
<line x1="630" y1="861" x2="630" y2="871" stroke="#1a1a1a" stroke-width="0.8" />
<text x="780" y="32" font-family="Arial, Helvetica, sans-serif" font-size="9" text-anchor="middle" font-weight="normal" fill="#1a1a1a">2</text>
<text x="780" y="867" font-family="Arial, Helvetica, sans-serif" font-size="9" text-anchor="middle" font-weight="normal" fill="#1a1a1a">2</text>
<line x1="930" y1="20" x2="930" y2="30" stroke="#1a1a1a" stroke-width="0.8" />
<line x1="930" y1="861" x2="930" y2="871" stroke="#1a1a1a" stroke-width="0.8" />
<text x="1080" y="32" font-family="Arial, Helvetica, sans-serif" font-size="9" text-anchor="middle" font-weight="normal" fill="#1a1a1a">1</text>
<text x="1080" y="867" font-family="Arial, Helvetica, sans-serif" font-size="9" text-anchor="middle" font-weight="normal" fill="#1a1a1a">1</text>
<line x1="1230" y1="20" x2="1230" y2="30" stroke="#1a1a1a" stroke-width="0.8" />
<line x1="1230" y1="861" x2="1230" y2="871" stroke="#1a1a1a" stroke-width="0.8" />
<line x1="20" y1="30" x2="30" y2="30" stroke="#1a1a1a" stroke-width="0.8" />
<line x1="1230" y1="30" x2="1240" y2="30" stroke="#1a1a1a" stroke-width="0.8" />
<text x="25" y="136.875" font-family="Arial, Helvetica, sans-serif" font-size="9" text-anchor="start" font-weight="normal" fill="#1a1a1a">A</text>
<text x="1235" y="136.875" font-family="Arial, Helvetica, sans-serif" font-size="9" text-anchor="end" font-weight="normal" fill="#1a1a1a">A</text>
<line x1="20" y1="237.75" x2="30" y2="237.75" stroke="#1a1a1a" stroke-width="0.8" />
<line x1="1230" y1="237.75" x2="1240" y2="237.75" stroke="#1a1a1a" stroke-width="0.8" />
<text x="25" y="344.625" font-family="Arial, Helvetica, sans-serif" font-size="9" text-anchor="start" font-weight="normal" fill="#1a1a1a">B</text>
<text x="1235" y="344.625" font-family="Arial, Helvetica, sans-serif" font-size="9" text-anchor="end" font-weight="normal" fill="#1a1a1a">B</text>
<line x1="20" y1="445.5" x2="30" y2="445.5" stroke="#1a1a1a" stroke-width="0.8" />
<line x1="1230" y1="445.5" x2="1240" y2="445.5" stroke="#1a1a1a" stroke-width="0.8" />
<text x="25" y="552.375" font-family="Arial, Helvetica, sans-serif" font-size="9" text-anchor="start" font-weight="normal" fill="#1a1a1a">C</text>
<text x="1235" y="552.375" font-family="Arial, Helvetica, sans-serif" font-size="9" text-anchor="end" font-weight="normal" fill="#1a1a1a">C</text>
<line x1="20" y1="653.25" x2="30" y2="653.25" stroke="#1a1a1a" stroke-width="0.8" />
<line x1="1230" y1="653.25" x2="1240" y2="653.25" stroke="#1a1a1a" stroke-width="0.8" />
<text x="25" y="760.125" font-family="Arial, Helvetica, sans-serif" font-size="9" text-anchor="start" font-weight="normal" fill="#1a1a1a">D</text>
<text x="1235" y="760.125" font-family="Arial, Helvetica, sans-serif" font-size="9" text-anchor="end" font-weight="normal" fill="#1a1a1a">D</text>
<line x1="20" y1="861" x2="30" y2="861" stroke="#1a1a1a" stroke-width="0.8" />
<line x1="1230" y1="861" x2="1240" y2="861" stroke="#1a1a1a" stroke-width="0.8" />
<line x1="630" y1="20" x2="630" y2="14" stroke="#1a1a1a" stroke-width="0.8" />
<line x1="630" y1="871" x2="630" y2="877" stroke="#1a1a1a" stroke-width="0.8" />
<line x1="20" y1="445.5" x2="14" y2="445.5" stroke="#1a1a1a" stroke-width="0.8" />
<line x1="1240" y1="445.5" x2="1246" y2="445.5" stroke="#1a1a1a" stroke-width="0.8" />
<rect x="870" y="701" width="360" height="160" fill="none" stroke="#1a1a1a" stroke-width="2"/>
<line x1="870" y1="741" x2="1230" y2="741" stroke="#1a1a1a" stroke-width="0.8" />
<line x1="870" y1="781" x2="1230" y2="781" stroke="#1a1a1a" stroke-width="0.8" />
<line x1="870" y1="821" x2="1230" y2="821" stroke="#1a1a1a" stroke-width="0.8" />
<line x1="1068" y1="701" x2="1068" y2="741" stroke="#1a1a1a" stroke-width="0.8" />
<text x="874" y="711" font-family="Arial, Helvetica, sans-serif" font-size="7" text-anchor="start" fill="#555">DRAWN BY:</text>
<text x="874" y="729" font-family="Arial, Helvetica, sans-serif" font-size="11" text-anchor="start" font-weight="normal" fill="#1a1a1a">A.Expert</text>
<text x="874" y="737" font-family="Arial, Helvetica, sans-serif" font-size="8" text-anchor="start" font-weight="normal" fill="#1a1a1a">DATE: 2026-04-17</text>
<text x="1072" y="711" font-family="Arial, Helvetica, sans-serif" font-size="7" text-anchor="start" fill="#555">SCALE:</text>
<text x="1072" y="729" font-family="Arial, Helvetica, sans-serif" font-size="14" text-anchor="start" font-weight="bold" fill="#1a1a1a">1:1</text>
<line x1="1068" y1="741" x2="1068" y2="781" stroke="#1a1a1a" stroke-width="0.8" />
<text x="874" y="751" font-family="Arial, Helvetica, sans-serif" font-size="7" text-anchor="start" fill="#555">MATERIAL:</text>
<text x="874" y="767" font-family="Arial, Helvetica, sans-serif" font-size="10" text-anchor="start" font-weight="normal" fill="#1a1a1a">Al anodizado</text>
<text x="1072" y="751" font-family="Arial, Helvetica, sans-serif" font-size="7" text-anchor="start" fill="#555">TITLE:</text>
<text x="1072" y="769" font-family="Arial, Helvetica, sans-serif" font-size="13" text-anchor="start" font-weight="bold" fill="#1a1a1a">NANO TRF TAMPA</text>
<line x1="1068" y1="781" x2="1068" y2="821" stroke="#1a1a1a" stroke-width="0.8" />
<text x="874" y="791" font-family="Arial, Helvetica, sans-serif" font-size="7" text-anchor="start" fill="#555">TOLERANCE:</text>
<text x="874" y="807" font-family="Arial, Helvetica, sans-serif" font-size="10" text-anchor="start" font-weight="normal" fill="#1a1a1a">ISO 2768-m</text>
<text x="1072" y="791" font-family="Arial, Helvetica, sans-serif" font-size="7" text-anchor="start" fill="#555">PART NO:</text>
<text x="1072" y="809" font-family="Arial, Helvetica, sans-serif" font-size="13" text-anchor="start" font-weight="bold" fill="#1a1a1a">NANO-TRF-CAP</text>
<line x1="1140" y1="821" x2="1140" y2="861" stroke="#1a1a1a" stroke-width="0.8" />
<text x="874" y="831" font-family="Arial, Helvetica, sans-serif" font-size="7" text-anchor="start" fill="#555">REV:</text>
<text x="874" y="847" font-family="Arial, Helvetica, sans-serif" font-size="12" text-anchor="start" font-weight="bold" fill="#1a1a1a">A</text>
<text x="1072" y="841" font-family="Arial, Helvetica, sans-serif" font-size="11" text-anchor="start" font-weight="normal" fill="#1a1a1a">ISO</text>
<line x1="1068" y1="821" x2="1068" y2="861" stroke="#1a1a1a" stroke-width="0.8" />
<text x="1144" y="841" font-family="Arial, Helvetica, sans-serif" font-size="11" text-anchor="start" font-weight="bold" fill="#1a1a1a">A3</text>
<circle cx="260.18072289156623" cy="312.54" r="50" fill="none" stroke="#1a1a1a" stroke-width="0.8" stroke-dasharray="4 2"/>
<text x="260.18072289156623" y="116.37132530120485" font-family="Arial, Helvetica, sans-serif" font-size="8" text-anchor="middle" font-weight="normal" fill="#1a1a1a">VER DETALHE &quot;D&quot;</text>
<line x1="90" y1="312.54" x2="305.21084337349396" y2="312.54" stroke="#1a1a1a" stroke-width="0.4" stroke-dasharray="12 3 3 3"/>
<line x1="110" y1="146.34" x2="205.1144578313253" y2="146.34" stroke="#1a1a1a" stroke-width="2" />
<line x1="110" y1="478.74" x2="205.1144578313253" y2="478.74" stroke="#1a1a1a" stroke-width="2" />
<line x1="110" y1="146.34" x2="110" y2="478.74" stroke="#1a1a1a" stroke-width="2" />
<line x1="205.1144578313253" y1="146.34" x2="205.1144578313253" y2="478.74" stroke="#1a1a1a" stroke-width="2" />
<line x1="116" y1="146.34000000000003" x2="110" y2="152.34000000000003" stroke="#1a1a1a" stroke-width="0.3" opacity="0.3"/>
<line x1="122" y1="146.34000000000003" x2="110" y2="158.34000000000003" stroke="#1a1a1a" stroke-width="0.3" opacity="0.3"/>
<line x1="128" y1="146.34000000000003" x2="110" y2="164.34000000000003" stroke="#1a1a1a" stroke-width="0.3" opacity="0.3"/>
<line x1="134" y1="146.34000000000003" x2="110" y2="170.34000000000003" stroke="#1a1a1a" stroke-width="0.3" opacity="0.3"/>
<line x1="140" y1="146.34000000000003" x2="110" y2="176.34000000000003" stroke="#1a1a1a" stroke-width="0.3" opacity="0.3"/>
<line x1="146" y1="146.34000000000003" x2="110" y2="182.34000000000003" stroke="#1a1a1a" stroke-width="0.3" opacity="0.3"/>
<line x1="152" y1="146.34000000000003" x2="110" y2="188.34000000000003" stroke="#1a1a1a" stroke-width="0.3" opacity="0.3"/>
<line x1="158" y1="146.34000000000003" x2="110" y2="194.34000000000003" stroke="#1a1a1a" stroke-width="0.3" opacity="0.3"/>
<line x1="164" y1="146.34000000000003" x2="110" y2="200.34000000000003" stroke="#1a1a1a" stroke-width="0.3" opacity="0.3"/>
<line x1="170" y1="146.34000000000003" x2="110" y2="206.34000000000003" stroke="#1a1a1a" stroke-width="0.3" opacity="0.3"/>
<line x1="176" y1="146.34000000000003" x2="110" y2="212.34000000000003" stroke="#1a1a1a" stroke-width="0.3" opacity="0.3"/>
<line x1="182" y1="146.34000000000003" x2="110" y2="218.34000000000003" stroke="#1a1a1a" stroke-width="0.3" opacity="0.3"/>
<line x1="188" y1="146.34000000000003" x2="110" y2="224.34000000000003" stroke="#1a1a1a" stroke-width="0.3" opacity="0.3"/>
<line x1="194" y1="146.34000000000003" x2="110" y2="230.34000000000003" stroke="#1a1a1a" stroke-width="0.3" opacity="0.3"/>
<line x1="200" y1="146.34000000000003" x2="110" y2="236.34000000000006" stroke="#1a1a1a" stroke-width="0.3" opacity="0.3"/>
<line x1="205.1144578313253" y1="147.22554216867474" x2="110" y2="242.34000000000003" stroke="#1a1a1a" stroke-width="0.3" opacity="0.3"/>
<line x1="205.1144578313253" y1="153.22554216867474" x2="110" y2="248.34000000000003" stroke="#1a1a1a" stroke-width="0.3" opacity="0.3"/>
<line x1="205.1144578313253" y1="159.22554216867474" x2="110" y2="254.34000000000006" stroke="#1a1a1a" stroke-width="0.3" opacity="0.3"/>
<line x1="205.1144578313253" y1="165.22554216867474" x2="110" y2="260.34000000000003" stroke="#1a1a1a" stroke-width="0.3" opacity="0.3"/>
<line x1="205.1144578313253" y1="171.22554216867474" x2="110" y2="266.34000000000003" stroke="#1a1a1a" stroke-width="0.3" opacity="0.3"/>
<line x1="205.1144578313253" y1="177.22554216867474" x2="110" y2="272.34000000000003" stroke="#1a1a1a" stroke-width="0.3" opacity="0.3"/>
<line x1="205.1144578313253" y1="183.22554216867474" x2="110" y2="278.34000000000003" stroke="#1a1a1a" stroke-width="0.3" opacity="0.3"/>
<line x1="205.1144578313253" y1="189.22554216867474" x2="110" y2="284.34000000000003" stroke="#1a1a1a" stroke-width="0.3" opacity="0.3"/>
<line x1="205.1144578313253" y1="195.22554216867474" x2="110" y2="290.34000000000003" stroke="#1a1a1a" stroke-width="0.3" opacity="0.3"/>
<line x1="205.1144578313253" y1="201.22554216867474" x2="110" y2="296.34000000000003" stroke="#1a1a1a" stroke-width="0.3" opacity="0.3"/>
<line x1="205.1144578313253" y1="207.22554216867474" x2="110" y2="302.34000000000003" stroke="#1a1a1a" stroke-width="0.3" opacity="0.3"/>
<line x1="205.1144578313253" y1="213.22554216867474" x2="110" y2="308.34000000000003" stroke="#1a1a1a" stroke-width="0.3" opacity="0.3"/>
<line x1="205.1144578313253" y1="219.22554216867474" x2="110" y2="314.34000000000003" stroke="#1a1a1a" stroke-width="0.3" opacity="0.3"/>
<line x1="205.1144578313253" y1="225.22554216867474" x2="110" y2="320.34000000000003" stroke="#1a1a1a" stroke-width="0.3" opacity="0.3"/>
<line x1="205.1144578313253" y1="231.22554216867474" x2="110" y2="326.34000000000003" stroke="#1a1a1a" stroke-width="0.3" opacity="0.3"/>
<line x1="205.1144578313253" y1="237.22554216867474" x2="110" y2="332.34000000000003" stroke="#1a1a1a" stroke-width="0.3" opacity="0.3"/>
<line x1="205.1144578313253" y1="243.2255421686747" x2="110" y2="338.34000000000003" stroke="#1a1a1a" stroke-width="0.3" opacity="0.3"/>
<line x1="205.1144578313253" y1="249.22554216867474" x2="110" y2="344.34000000000003" stroke="#1a1a1a" stroke-width="0.3" opacity="0.3"/>
<line x1="205.1144578313253" y1="255.22554216867474" x2="110" y2="350.34000000000003" stroke="#1a1a1a" stroke-width="0.3" opacity="0.3"/>
<line x1="205.1144578313253" y1="261.2255421686748" x2="110" y2="356.34000000000003" stroke="#1a1a1a" stroke-width="0.3" opacity="0.3"/>
<line x1="205.1144578313253" y1="267.22554216867474" x2="110" y2="362.34000000000003" stroke="#1a1a1a" stroke-width="0.3" opacity="0.3"/>
<line x1="205.1144578313253" y1="273.22554216867474" x2="110" y2="368.34000000000003" stroke="#1a1a1a" stroke-width="0.3" opacity="0.3"/>
<line x1="205.1144578313253" y1="279.22554216867474" x2="110" y2="374.34000000000003" stroke="#1a1a1a" stroke-width="0.3" opacity="0.3"/>
<line x1="205.1144578313253" y1="285.22554216867474" x2="110" y2="380.34000000000003" stroke="#1a1a1a" stroke-width="0.3" opacity="0.3"/>
<line x1="205.1144578313253" y1="291.22554216867474" x2="110" y2="386.34000000000003" stroke="#1a1a1a" stroke-width="0.3" opacity="0.3"/>
<line x1="205.1144578313253" y1="297.22554216867474" x2="110" y2="392.34000000000003" stroke="#1a1a1a" stroke-width="0.3" opacity="0.3"/>
<line x1="205.1144578313253" y1="303.2255421686747" x2="110" y2="398.34000000000003" stroke="#1a1a1a" stroke-width="0.3" opacity="0.3"/>
<line x1="205.1144578313253" y1="309.22554216867474" x2="110" y2="404.34000000000003" stroke="#1a1a1a" stroke-width="0.3" opacity="0.3"/>
<line x1="205.1144578313253" y1="315.22554216867474" x2="110" y2="410.34000000000003" stroke="#1a1a1a" stroke-width="0.3" opacity="0.3"/>
<line x1="205.1144578313253" y1="321.22554216867474" x2="110" y2="416.34000000000003" stroke="#1a1a1a" stroke-width="0.3" opacity="0.3"/>
<line x1="205.1144578313253" y1="327.22554216867474" x2="110" y2="422.34000000000003" stroke="#1a1a1a" stroke-width="0.3" opacity="0.3"/>
<line x1="205.1144578313253" y1="333.22554216867474" x2="110" y2="428.34000000000003" stroke="#1a1a1a" stroke-width="0.3" opacity="0.3"/>
<line x1="205.1144578313253" y1="339.22554216867474" x2="110" y2="434.34000000000003" stroke="#1a1a1a" stroke-width="0.3" opacity="0.3"/>
<line x1="205.1144578313253" y1="345.22554216867474" x2="110" y2="440.34000000000003" stroke="#1a1a1a" stroke-width="0.3" opacity="0.3"/>
<line x1="205.1144578313253" y1="351.22554216867474" x2="110" y2="446.34000000000003" stroke="#1a1a1a" stroke-width="0.3" opacity="0.3"/>
<line x1="205.1144578313253" y1="357.22554216867474" x2="110" y2="452.34000000000003" stroke="#1a1a1a" stroke-width="0.3" opacity="0.3"/>
<line x1="205.1144578313253" y1="363.22554216867474" x2="110" y2="458.34000000000003" stroke="#1a1a1a" stroke-width="0.3" opacity="0.3"/>
<line x1="205.1144578313253" y1="369.22554216867474" x2="110" y2="464.34000000000003" stroke="#1a1a1a" stroke-width="0.3" opacity="0.3"/>
<line x1="205.1144578313253" y1="375.22554216867474" x2="110" y2="470.34000000000003" stroke="#1a1a1a" stroke-width="0.3" opacity="0.3"/>
<line x1="205.1144578313253" y1="381.22554216867474" x2="110" y2="476.34000000000003" stroke="#1a1a1a" stroke-width="0.3" opacity="0.3"/>
<line x1="205.1144578313253" y1="387.22554216867474" x2="113.60000000000002" y2="478.74" stroke="#1a1a1a" stroke-width="0.3" opacity="0.3"/>
<line x1="205.1144578313253" y1="393.22554216867474" x2="119.60000000000002" y2="478.74" stroke="#1a1a1a" stroke-width="0.3" opacity="0.3"/>
<line x1="205.1144578313253" y1="399.22554216867474" x2="125.60000000000002" y2="478.74" stroke="#1a1a1a" stroke-width="0.3" opacity="0.3"/>
<line x1="205.1144578313253" y1="405.22554216867474" x2="131.60000000000002" y2="478.74" stroke="#1a1a1a" stroke-width="0.3" opacity="0.3"/>
<line x1="205.1144578313253" y1="411.22554216867474" x2="137.60000000000002" y2="478.74" stroke="#1a1a1a" stroke-width="0.3" opacity="0.3"/>
<line x1="205.1144578313253" y1="417.22554216867474" x2="143.60000000000002" y2="478.74" stroke="#1a1a1a" stroke-width="0.3" opacity="0.3"/>
<line x1="205.1144578313253" y1="423.22554216867474" x2="149.60000000000002" y2="478.74" stroke="#1a1a1a" stroke-width="0.3" opacity="0.3"/>
<line x1="205.1144578313253" y1="429.22554216867474" x2="155.60000000000002" y2="478.74" stroke="#1a1a1a" stroke-width="0.3" opacity="0.3"/>
<line x1="205.1144578313253" y1="435.22554216867474" x2="161.60000000000002" y2="478.74" stroke="#1a1a1a" stroke-width="0.3" opacity="0.3"/>
<line x1="205.1144578313253" y1="441.22554216867474" x2="167.60000000000002" y2="478.74" stroke="#1a1a1a" stroke-width="0.3" opacity="0.3"/>
<line x1="205.1144578313253" y1="447.22554216867474" x2="173.60000000000002" y2="478.74" stroke="#1a1a1a" stroke-width="0.3" opacity="0.3"/>
<line x1="205.1144578313253" y1="453.22554216867474" x2="179.60000000000002" y2="478.74" stroke="#1a1a1a" stroke-width="0.3" opacity="0.3"/>
<line x1="205.1144578313253" y1="459.22554216867474" x2="185.60000000000002" y2="478.74" stroke="#1a1a1a" stroke-width="0.3" opacity="0.3"/>
<line x1="205.1144578313253" y1="465.22554216867474" x2="191.60000000000002" y2="478.74" stroke="#1a1a1a" stroke-width="0.3" opacity="0.3"/>
<line x1="205.1144578313253" y1="471.22554216867474" x2="197.60000000000002" y2="478.74" stroke="#1a1a1a" stroke-width="0.3" opacity="0.3"/>
<line x1="205.1144578313253" y1="477.22554216867474" x2="203.60000000000002" y2="478.74" stroke="#1a1a1a" stroke-width="0.3" opacity="0.3"/>
<line x1="205.1144578313253" y1="146.34" x2="235.15060240963857" y2="172.37132530120485" stroke="#1a1a1a" stroke-width="2" />
<line x1="205.1144578313253" y1="478.74" x2="235.15060240963857" y2="452.7086746987952" stroke="#1a1a1a" stroke-width="2" />
<line x1="205.1144578313253" y1="146.34" x2="205.1144578313253" y2="478.74" stroke="#1a1a1a" stroke-width="2" />
<line x1="235.15060240963857" y1="172.37132530120485" x2="235.15060240963857" y2="452.7086746987952" stroke="#1a1a1a" stroke-width="2" />
<line x1="211.1144578313253" y1="146.34000000000003" x2="205.1144578313253" y2="152.34000000000003" stroke="#1a1a1a" stroke-width="0.3" opacity="0.3"/>
<line x1="217.1144578313253" y1="146.34000000000003" x2="205.1144578313253" y2="158.34000000000003" stroke="#1a1a1a" stroke-width="0.3" opacity="0.3"/>
<line x1="223.1144578313253" y1="146.34000000000003" x2="205.1144578313253" y2="164.34000000000003" stroke="#1a1a1a" stroke-width="0.3" opacity="0.3"/>
<line x1="229.1144578313253" y1="146.34000000000003" x2="205.1144578313253" y2="170.34000000000003" stroke="#1a1a1a" stroke-width="0.3" opacity="0.3"/>
<line x1="235.1144578313253" y1="146.34000000000003" x2="205.1144578313253" y2="176.34000000000003" stroke="#1a1a1a" stroke-width="0.3" opacity="0.3"/>
<line x1="235.15060240963857" y1="152.30385542168676" x2="205.1144578313253" y2="182.34000000000003" stroke="#1a1a1a" stroke-width="0.3" opacity="0.3"/>
<line x1="235.15060240963857" y1="158.30385542168676" x2="205.1144578313253" y2="188.34000000000003" stroke="#1a1a1a" stroke-width="0.3" opacity="0.3"/>
<line x1="235.15060240963857" y1="164.30385542168676" x2="205.1144578313253" y2="194.34000000000003" stroke="#1a1a1a" stroke-width="0.3" opacity="0.3"/>
<line x1="235.15060240963857" y1="170.30385542168676" x2="205.1144578313253" y2="200.34000000000003" stroke="#1a1a1a" stroke-width="0.3" opacity="0.3"/>
<line x1="235.15060240963857" y1="176.30385542168676" x2="205.1144578313253" y2="206.34000000000003" stroke="#1a1a1a" stroke-width="0.3" opacity="0.3"/>
<line x1="235.15060240963857" y1="182.30385542168676" x2="205.1144578313253" y2="212.34000000000003" stroke="#1a1a1a" stroke-width="0.3" opacity="0.3"/>
<line x1="235.15060240963857" y1="188.30385542168676" x2="205.1144578313253" y2="218.34000000000003" stroke="#1a1a1a" stroke-width="0.3" opacity="0.3"/>
<line x1="235.15060240963857" y1="194.30385542168676" x2="205.1144578313253" y2="224.34000000000003" stroke="#1a1a1a" stroke-width="0.3" opacity="0.3"/>
<line x1="235.15060240963857" y1="200.30385542168676" x2="205.1144578313253" y2="230.34000000000003" stroke="#1a1a1a" stroke-width="0.3" opacity="0.3"/>
<line x1="235.15060240963857" y1="206.30385542168676" x2="205.1144578313253" y2="236.34000000000006" stroke="#1a1a1a" stroke-width="0.3" opacity="0.3"/>
<line x1="235.15060240963857" y1="212.30385542168676" x2="205.1144578313253" y2="242.34000000000003" stroke="#1a1a1a" stroke-width="0.3" opacity="0.3"/>
<line x1="235.15060240963857" y1="218.30385542168676" x2="205.1144578313253" y2="248.34000000000003" stroke="#1a1a1a" stroke-width="0.3" opacity="0.3"/>
<line x1="235.15060240963857" y1="224.30385542168676" x2="205.1144578313253" y2="254.34000000000006" stroke="#1a1a1a" stroke-width="0.3" opacity="0.3"/>
<line x1="235.15060240963857" y1="230.30385542168676" x2="205.1144578313253" y2="260.34000000000003" stroke="#1a1a1a" stroke-width="0.3" opacity="0.3"/>
<line x1="235.15060240963857" y1="236.30385542168676" x2="205.1144578313253" y2="266.34000000000003" stroke="#1a1a1a" stroke-width="0.3" opacity="0.3"/>
<line x1="235.15060240963857" y1="242.30385542168676" x2="205.1144578313253" y2="272.34000000000003" stroke="#1a1a1a" stroke-width="0.3" opacity="0.3"/>
<line x1="235.15060240963857" y1="248.30385542168676" x2="205.1144578313253" y2="278.34000000000003" stroke="#1a1a1a" stroke-width="0.3" opacity="0.3"/>
<line x1="235.15060240963857" y1="254.30385542168676" x2="205.1144578313253" y2="284.34000000000003" stroke="#1a1a1a" stroke-width="0.3" opacity="0.3"/>
<line x1="235.15060240963857" y1="260.30385542168676" x2="205.1144578313253" y2="290.34000000000003" stroke="#1a1a1a" stroke-width="0.3" opacity="0.3"/>
<line x1="235.15060240963857" y1="266.30385542168676" x2="205.1144578313253" y2="296.34000000000003" stroke="#1a1a1a" stroke-width="0.3" opacity="0.3"/>
<line x1="235.15060240963857" y1="272.30385542168676" x2="205.1144578313253" y2="302.34000000000003" stroke="#1a1a1a" stroke-width="0.3" opacity="0.3"/>
<line x1="235.15060240963857" y1="278.30385542168676" x2="205.1144578313253" y2="308.34000000000003" stroke="#1a1a1a" stroke-width="0.3" opacity="0.3"/>
<line x1="235.15060240963857" y1="284.30385542168676" x2="205.1144578313253" y2="314.34000000000003" stroke="#1a1a1a" stroke-width="0.3" opacity="0.3"/>
<line x1="235.15060240963857" y1="290.30385542168676" x2="205.1144578313253" y2="320.34000000000003" stroke="#1a1a1a" stroke-width="0.3" opacity="0.3"/>
<line x1="235.15060240963857" y1="296.30385542168676" x2="205.1144578313253" y2="326.34000000000003" stroke="#1a1a1a" stroke-width="0.3" opacity="0.3"/>
<line x1="235.15060240963857" y1="302.30385542168676" x2="205.1144578313253" y2="332.34000000000003" stroke="#1a1a1a" stroke-width="0.3" opacity="0.3"/>
<line x1="235.15060240963857" y1="308.30385542168676" x2="205.1144578313253" y2="338.34000000000003" stroke="#1a1a1a" stroke-width="0.3" opacity="0.3"/>
<line x1="235.15060240963857" y1="314.30385542168676" x2="205.1144578313253" y2="344.34000000000003" stroke="#1a1a1a" stroke-width="0.3" opacity="0.3"/>
<line x1="235.15060240963857" y1="320.30385542168676" x2="205.1144578313253" y2="350.34000000000003" stroke="#1a1a1a" stroke-width="0.3" opacity="0.3"/>
<line x1="235.15060240963857" y1="326.30385542168676" x2="205.1144578313253" y2="356.34000000000003" stroke="#1a1a1a" stroke-width="0.3" opacity="0.3"/>
<line x1="235.15060240963857" y1="332.30385542168676" x2="205.1144578313253" y2="362.34000000000003" stroke="#1a1a1a" stroke-width="0.3" opacity="0.3"/>
<line x1="235.15060240963857" y1="338.30385542168676" x2="205.1144578313253" y2="368.34000000000003" stroke="#1a1a1a" stroke-width="0.3" opacity="0.3"/>
<line x1="235.15060240963857" y1="344.30385542168676" x2="205.1144578313253" y2="374.34000000000003" stroke="#1a1a1a" stroke-width="0.3" opacity="0.3"/>
<line x1="235.15060240963857" y1="350.30385542168676" x2="205.1144578313253" y2="380.34000000000003" stroke="#1a1a1a" stroke-width="0.3" opacity="0.3"/>
<line x1="235.15060240963857" y1="356.30385542168676" x2="205.1144578313253" y2="386.34000000000003" stroke="#1a1a1a" stroke-width="0.3" opacity="0.3"/>
<line x1="235.15060240963857" y1="362.30385542168676" x2="205.1144578313253" y2="392.34000000000003" stroke="#1a1a1a" stroke-width="0.3" opacity="0.3"/>
<line x1="235.15060240963857" y1="368.30385542168676" x2="205.1144578313253" y2="398.34000000000003" stroke="#1a1a1a" stroke-width="0.3" opacity="0.3"/>
<line x1="235.15060240963857" y1="374.30385542168676" x2="205.1144578313253" y2="404.34000000000003" stroke="#1a1a1a" stroke-width="0.3" opacity="0.3"/>
<line x1="235.15060240963857" y1="380.30385542168676" x2="205.1144578313253" y2="410.34000000000003" stroke="#1a1a1a" stroke-width="0.3" opacity="0.3"/>
<line x1="235.15060240963857" y1="386.30385542168676" x2="205.1144578313253" y2="416.34000000000003" stroke="#1a1a1a" stroke-width="0.3" opacity="0.3"/>
<line x1="235.15060240963857" y1="392.30385542168676" x2="205.1144578313253" y2="422.34000000000003" stroke="#1a1a1a" stroke-width="0.3" opacity="0.3"/>
<line x1="235.15060240963857" y1="398.30385542168676" x2="205.1144578313253" y2="428.34000000000003" stroke="#1a1a1a" stroke-width="0.3" opacity="0.3"/>
<line x1="235.15060240963857" y1="404.30385542168676" x2="205.1144578313253" y2="434.34000000000003" stroke="#1a1a1a" stroke-width="0.3" opacity="0.3"/>
<line x1="235.15060240963857" y1="410.30385542168676" x2="205.1144578313253" y2="440.34000000000003" stroke="#1a1a1a" stroke-width="0.3" opacity="0.3"/>
<line x1="235.15060240963857" y1="416.30385542168676" x2="205.1144578313253" y2="446.34000000000003" stroke="#1a1a1a" stroke-width="0.3" opacity="0.3"/>
<line x1="235.15060240963857" y1="422.30385542168676" x2="205.1144578313253" y2="452.34000000000003" stroke="#1a1a1a" stroke-width="0.3" opacity="0.3"/>
<line x1="235.15060240963857" y1="428.3038554216868" x2="205.1144578313253" y2="458.3400000000001" stroke="#1a1a1a" stroke-width="0.3" opacity="0.3"/>
<line x1="235.15060240963857" y1="434.3038554216868" x2="205.1144578313253" y2="464.3400000000001" stroke="#1a1a1a" stroke-width="0.3" opacity="0.3"/>
<line x1="235.15060240963857" y1="440.3038554216868" x2="205.1144578313253" y2="470.3400000000001" stroke="#1a1a1a" stroke-width="0.3" opacity="0.3"/>
<line x1="235.15060240963857" y1="446.3038554216868" x2="205.1144578313253" y2="476.3400000000001" stroke="#1a1a1a" stroke-width="0.3" opacity="0.3"/>
<line x1="235.15060240963857" y1="452.3038554216868" x2="208.71445783132538" y2="478.74" stroke="#1a1a1a" stroke-width="0.3" opacity="0.3"/>
<line x1="235.15060240963857" y1="458.3038554216868" x2="214.71445783132538" y2="478.74" stroke="#1a1a1a" stroke-width="0.3" opacity="0.3"/>
<line x1="235.15060240963857" y1="464.3038554216868" x2="220.71445783132538" y2="478.74" stroke="#1a1a1a" stroke-width="0.3" opacity="0.3"/>
<line x1="235.15060240963857" y1="470.3038554216868" x2="226.71445783132538" y2="478.74" stroke="#1a1a1a" stroke-width="0.3" opacity="0.3"/>
<line x1="235.15060240963857" y1="476.3038554216868" x2="232.71445783132538" y2="478.74" stroke="#1a1a1a" stroke-width="0.3" opacity="0.3"/>
<line x1="235.15060240963857" y1="172.37132530120485" x2="285.21084337349396" y2="172.37132530120485" stroke="#1a1a1a" stroke-width="2" />
<line x1="235.15060240963857" y1="452.7086746987952" x2="285.21084337349396" y2="452.7086746987952" stroke="#1a1a1a" stroke-width="2" />
<line x1="235.15060240963857" y1="172.37132530120485" x2="235.15060240963857" y2="452.7086746987952" stroke="#1a1a1a" stroke-width="2" />
<line x1="285.21084337349396" y1="172.37132530120485" x2="285.21084337349396" y2="452.7086746987952" stroke="#1a1a1a" stroke-width="2" />
<polyline points="235.15060240963857,178.37132530120485 237.23644578313252,174.37132530120485 239.3222891566265,178.37132530120485 239.3222891566265,178.37132530120485 241.4081325301205,174.37132530120485 243.49397590361446,178.37132530120485 243.49397590361446,178.37132530120485 245.5798192771084,174.37132530120485 247.6656626506024,178.37132530120485 247.6656626506024,178.37132530120485 249.7515060240964,174.37132530120485 251.83734939759034,178.37132530120485 251.83734939759034,178.37132530120485 253.92319277108433,174.37132530120485 256.0090361445783,178.37132530120485 256.0090361445783,178.37132530120485 258.0948795180723,174.37132530120485 260.1807228915663,178.37132530120485 260.1807228915663,178.37132530120485 262.2665662650603,174.37132530120485 264.35240963855426,178.37132530120485 264.35240963855426,178.37132530120485 266.4382530120482,174.37132530120485 268.52409638554224,178.37132530120485 268.52409638554224,178.37132530120485 270.60993975903625,174.37132530120485 272.6957831325302,178.37132530120485 272.6957831325302,178.37132530120485 274.78162650602417,174.37132530120485 276.8674698795182,178.37132530120485 276.8674698795182,178.37132530120485 278.9533132530122,174.37132530120485 281.03915662650616,178.37132530120485 281.03915662650616,178.37132530120485 283.12500000000006,174.37132530120485 285.21084337349396,178.37132530120485" fill="none" stroke="#1a1a1a" stroke-width="0.8"/>
<polyline points="235.15060240963857,446.7086746987952 237.23644578313252,450.7086746987952 239.3222891566265,446.7086746987952 239.3222891566265,446.7086746987952 241.4081325301205,450.7086746987952 243.49397590361446,446.7086746987952 243.49397590361446,446.7086746987952 245.5798192771084,450.7086746987952 247.6656626506024,446.7086746987952 247.6656626506024,446.7086746987952 249.7515060240964,450.7086746987952 251.83734939759034,446.7086746987952 251.83734939759034,446.7086746987952 253.92319277108433,450.7086746987952 256.0090361445783,446.7086746987952 256.0090361445783,446.7086746987952 258.0948795180723,450.7086746987952 260.1807228915663,446.7086746987952 260.1807228915663,446.7086746987952 262.2665662650603,450.7086746987952 264.35240963855426,446.7086746987952 264.35240963855426,446.7086746987952 266.4382530120482,450.7086746987952 268.52409638554224,446.7086746987952 268.52409638554224,446.7086746987952 270.60993975903625,450.7086746987952 272.6957831325302,446.7086746987952 272.6957831325302,446.7086746987952 274.78162650602417,450.7086746987952 276.8674698795182,446.7086746987952 276.8674698795182,446.7086746987952 278.9533132530122,450.7086746987952 281.03915662650616,446.7086746987952 281.03915662650616,446.7086746987952 283.12500000000006,450.7086746987952 285.21084337349396,446.7086746987952" fill="none" stroke="#1a1a1a" stroke-width="0.8"/>
<line x1="110" y1="292.51590361445784" x2="285.21084337349396" y2="292.51590361445784" stroke="#1a1a1a" stroke-width="0.8" stroke-dasharray="6 3"/>
<line x1="110" y1="332.5640963855422" x2="285.21084337349396" y2="332.5640963855422" stroke="#1a1a1a" stroke-width="0.8" stroke-dasharray="6 3"/>
<line x1="285.21084337349396" y1="292.51590361445784" x2="285.21084337349396" y2="332.5640963855422" stroke="#1a1a1a" stroke-width="0.8" stroke-dasharray="6 3"/>
<line x1="285.21084337349396" y1="204.4098795180723" x2="213.12409638554215" y2="204.4098795180723" stroke="#1a1a1a" stroke-width="0.8" stroke-dasharray="6 3"/>
<line x1="285.21084337349396" y1="420.6701204819277" x2="213.12409638554215" y2="420.6701204819277" stroke="#1a1a1a" stroke-width="0.8" stroke-dasharray="6 3"/>
<line x1="213.12409638554215" y1="204.4098795180723" x2="213.12409638554215" y2="420.6701204819277" stroke="#1a1a1a" stroke-width="0.8" stroke-dasharray="6 3"/>
<line x1="285.21084337349396" y1="186.88879518072292" x2="243.16024096385541" y2="186.88879518072292" stroke="#1a1a1a" stroke-width="0.8" stroke-dasharray="6 3"/>
<line x1="285.21084337349396" y1="438.1912048192771" x2="243.16024096385541" y2="438.1912048192771" stroke="#1a1a1a" stroke-width="0.8" stroke-dasharray="6 3"/>
<line x1="243.16024096385541" y1="186.88879518072292" x2="243.16024096385541" y2="438.1912048192771" stroke="#1a1a1a" stroke-width="0.8" stroke-dasharray="6 3"/>
<text x="197.60542168674698" y="528.74" font-family="Arial, Helvetica, sans-serif" font-size="11" text-anchor="middle" font-weight="bold" fill="#1a1a1a">A) MAIN CROSS-SECTION VIEW (FRONTA)</text>
<line x1="110" y1="480.74" x2="110" y2="498.74" stroke="#1a1a1a" stroke-width="0.6" />
<line x1="205.1144578313253" y1="480.74" x2="205.1144578313253" y2="498.74" stroke="#1a1a1a" stroke-width="0.6" />
<line x1="110" y1="494.74" x2="205.1144578313253" y2="494.74" stroke="#1a1a1a" stroke-width="0.6" marker-start="url(#dim-arrow-l)" marker-end="url(#dim-arrow-r)"/>
<text x="157.55722891566265" y="491.74" font-family="Arial, Helvetica, sans-serif" font-size="8" text-anchor="middle" font-weight="normal" fill="#1a1a1a">9,50</text>
<line x1="205.1144578313253" y1="480.74" x2="205.1144578313253" y2="518.74" stroke="#1a1a1a" stroke-width="0.6" />
<line x1="235.15060240963857" y1="454.7086746987952" x2="235.15060240963857" y2="518.74" stroke="#1a1a1a" stroke-width="0.6" />
<line x1="205.1144578313253" y1="514.74" x2="235.15060240963857" y2="514.74" stroke="#1a1a1a" stroke-width="0.6" marker-start="url(#dim-arrow-l)" marker-end="url(#dim-arrow-r)"/>
<text x="220.13253012048193" y="511.74" font-family="Arial, Helvetica, sans-serif" font-size="8" text-anchor="middle" font-weight="normal" fill="#1a1a1a">3</text>
<line x1="235.15060240963857" y1="454.7086746987952" x2="235.15060240963857" y2="538.74" stroke="#1a1a1a" stroke-width="0.6" />
<line x1="285.21084337349396" y1="454.7086746987952" x2="285.21084337349396" y2="538.74" stroke="#1a1a1a" stroke-width="0.6" />
<line x1="235.15060240963857" y1="534.74" x2="285.21084337349396" y2="534.74" stroke="#1a1a1a" stroke-width="0.6" marker-start="url(#dim-arrow-l)" marker-end="url(#dim-arrow-r)"/>
<text x="260.18072289156623" y="531.74" font-family="Arial, Helvetica, sans-serif" font-size="8" text-anchor="middle" font-weight="normal" fill="#1a1a1a">5</text>
<line x1="110" y1="480.74" x2="110" y2="570.74" stroke="#1a1a1a" stroke-width="0.6" />
<line x1="285.21084337349396" y1="480.74" x2="285.21084337349396" y2="570.74" stroke="#1a1a1a" stroke-width="0.6" />
<line x1="110" y1="566.74" x2="285.21084337349396" y2="566.74" stroke="#1a1a1a" stroke-width="0.6" marker-start="url(#dim-arrow-l)" marker-end="url(#dim-arrow-r)"/>
<text x="197.60542168674698" y="563.74" font-family="Arial, Helvetica, sans-serif" font-size="9" text-anchor="middle" font-weight="bold" fill="#1a1a1a">17,50</text>
<line x1="157.55722891566265" y1="146.34" x2="157.55722891566265" y2="136.34" stroke="#1a1a1a" stroke-width="0.6" />
<text x="157.55722891566265" y="132.34" font-family="Arial, Helvetica, sans-serif" font-size="8" text-anchor="middle" font-weight="normal" fill="#1a1a1a">Ø33,20</text>
<line x1="220.13253012048193" y1="146.34" x2="220.13253012048193" y2="116.34" stroke="#1a1a1a" stroke-width="0.6" />
<text x="220.13253012048193" y="112.34" font-family="Arial, Helvetica, sans-serif" font-size="8" text-anchor="middle" font-weight="normal" fill="#1a1a1a">Ø33,20 → Ø28</text>
<line x1="260.18072289156623" y1="172.37132530120485" x2="260.18072289156623" y2="122.34" stroke="#1a1a1a" stroke-width="0.6" />
<text x="260.18072289156623" y="118.34" font-family="Arial, Helvetica, sans-serif" font-size="8" text-anchor="middle" font-weight="normal" fill="#1a1a1a">M29 x 0,80</text>
<text x="240.13253012048193" y="142.34" font-family="Arial, Helvetica, sans-serif" font-size="8" text-anchor="start" font-weight="normal" fill="#1a1a1a">R2.5/20 degree detail approximated as a taper envelope.</text>
<circle cx="1090" cy="110" r="80" fill="none" stroke="#1a1a1a" stroke-width="2"/>
<circle cx="1090" cy="110" r="9.638554216867469" fill="none" stroke="#1a1a1a" stroke-width="0.8"/>
<circle cx="1090" cy="110" r="52.04819277108434" fill="none" stroke="#1a1a1a" stroke-width="0.8"/>
<circle cx="1090" cy="110" r="60.48192771084337" fill="none" stroke="#1a1a1a" stroke-width="0.8"/>
<line x1="998" y1="110" x2="1182" y2="110" stroke="#1a1a1a" stroke-width="0.4" stroke-dasharray="12 3 3 3"/>
<line x1="1090" y1="18" x2="1090" y2="202" stroke="#1a1a1a" stroke-width="0.4" stroke-dasharray="12 3 3 3"/>
<text x="1090" y="238" font-family="Arial, Helvetica, sans-serif" font-size="10" text-anchor="middle" font-weight="bold" fill="#1a1a1a">B) TOP VIEW</text>
<line x1="904.9457831325301" y1="209.81638554216866" x2="995.0542168674699" y2="209.81638554216866" stroke="#1a1a1a" stroke-width="2" />
<line x1="904.9457831325301" y1="714.4236144578314" x2="995.0542168674699" y2="714.4236144578314" stroke="#1a1a1a" stroke-width="2" />
<line x1="904.9457831325301" y1="209.81638554216866" x2="904.9457831325301" y2="714.4236144578314" stroke="#1a1a1a" stroke-width="2" />
<line x1="995.0542168674699" y1="209.81638554216866" x2="995.0542168674699" y2="714.4236144578314" stroke="#1a1a1a" stroke-width="2" />
<line x1="894.9457831325301" y1="462.12" x2="1005.0542168674699" y2="462.12" stroke="#1a1a1a" stroke-width="0.4" stroke-dasharray="12 3 3 3"/>
<polyline points="904.9457831325301,214.81638554216866 909.4512048192771,211.81638554216866 913.9566265060241,214.81638554216866 913.9566265060241,214.81638554216866 918.4620481927711,211.81638554216866 922.9674698795181,214.81638554216866 922.9674698795181,214.81638554216866 927.4728915662652,211.81638554216866 931.9783132530122,214.81638554216866 931.9783132530122,214.81638554216866 936.4837349397592,211.81638554216866 940.9891566265062,214.81638554216866 940.9891566265062,214.81638554216866 945.4945783132532,211.81638554216866 950.0000000000002,214.81638554216866 950.0000000000002,214.81638554216866 954.5054216867472,211.81638554216866 959.0108433734943,214.81638554216866 959.0108433734943,214.81638554216866 963.5162650602413,211.81638554216866 968.0216867469883,214.81638554216866 968.0216867469883,214.81638554216866 972.5271084337353,211.81638554216866 977.0325301204823,214.81638554216866 977.0325301204823,214.81638554216866 981.5379518072293,211.81638554216866 986.0433734939763,214.81638554216866 986.0433734939763,214.81638554216866 990.5487951807231,211.81638554216866 995.0542168674699,214.81638554216866" fill="none" stroke="#1a1a1a" stroke-width="0.8"/>
<polyline points="904.9457831325301,709.4236144578314 909.4512048192771,712.4236144578314 913.9566265060241,709.4236144578314 913.9566265060241,709.4236144578314 918.4620481927711,712.4236144578314 922.9674698795181,709.4236144578314 922.9674698795181,709.4236144578314 927.4728915662652,712.4236144578314 931.9783132530122,709.4236144578314 931.9783132530122,709.4236144578314 936.4837349397592,712.4236144578314 940.9891566265062,709.4236144578314 940.9891566265062,709.4236144578314 945.4945783132532,712.4236144578314 950.0000000000002,709.4236144578314 950.0000000000002,709.4236144578314 954.5054216867472,712.4236144578314 959.0108433734943,709.4236144578314 959.0108433734943,709.4236144578314 963.5162650602413,712.4236144578314 968.0216867469883,709.4236144578314 968.0216867469883,709.4236144578314 972.5271084337353,712.4236144578314 977.0325301204823,709.4236144578314 977.0325301204823,709.4236144578314 981.5379518072293,712.4236144578314 986.0433734939763,709.4236144578314 986.0433734939763,709.4236144578314 990.5487951807231,712.4236144578314 995.0542168674699,709.4236144578314" fill="none" stroke="#1a1a1a" stroke-width="0.8"/>
<line x1="904.9457831325301" y1="716.4236144578314" x2="904.9457831325301" y2="732.4236144578314" stroke="#1a1a1a" stroke-width="0.6" />
<line x1="995.0542168674699" y1="716.4236144578314" x2="995.0542168674699" y2="732.4236144578314" stroke="#1a1a1a" stroke-width="0.6" />
<line x1="904.9457831325301" y1="728.4236144578314" x2="995.0542168674699" y2="728.4236144578314" stroke="#1a1a1a" stroke-width="0.6" marker-start="url(#dim-arrow-l)" marker-end="url(#dim-arrow-r)"/>
<text x="950" y="726.4236144578314" font-family="Arial, Helvetica, sans-serif" font-size="8" text-anchor="middle" font-weight="normal" fill="#1a1a1a">5</text>
<line x1="997.0542168674699" y1="209.81638554216866" x2="1013.0542168674699" y2="209.81638554216866" stroke="#1a1a1a" stroke-width="0.6" />
<line x1="997.0542168674699" y1="714.4236144578314" x2="1013.0542168674699" y2="714.4236144578314" stroke="#1a1a1a" stroke-width="0.6" />
<line x1="1009.0542168674699" y1="209.81638554216866" x2="1009.0542168674699" y2="714.4236144578314" stroke="#1a1a1a" stroke-width="0.6" marker-start="url(#dim-arrow-l)" marker-end="url(#dim-arrow-r)"/>
<text x="1015.0542168674699" y="465.12" font-family="Arial, Helvetica, sans-serif" font-size="8" text-anchor="start" font-weight="normal" fill="#1a1a1a">Ø28</text>
<text x="950" y="742.4236144578314" font-family="Arial, Helvetica, sans-serif" font-size="9" text-anchor="middle" font-weight="bold" fill="#1a1a1a">M29</text>
<text x="950" y="195.81638554216866" font-family="Arial, Helvetica, sans-serif" font-size="10" text-anchor="middle" font-weight="bold" fill="#1a1a1a">D) DETAIL</text>

<text x="870" y="601" font-family="Arial, Helvetica, sans-serif" font-size="10" text-anchor="start" font-weight="bold" fill="#1a1a1a">NOTES:</text>
<text x="870" y="617" font-family="Arial, Helvetica, sans-serif" font-size="8" text-anchor="start" font-weight="normal" fill="#1a1a1a">1. DIMENSÕES EM MM.</text>
<text x="870" y="631" font-family="Arial, Helvetica, sans-serif" font-size="8" text-anchor="start" font-weight="normal" fill="#1a1a1a">2. ROSCA M29 ESPECIFICADA PELO USUÁRIO.</text>
<text x="870" y="645" font-family="Arial, Helvetica, sans-serif" font-size="8" text-anchor="start" font-weight="normal" fill="#1a1a1a">3. STEP ENVELOPE APPROXIMATION.</text>
<text x="870" y="659" font-family="Arial, Helvetica, sans-serif" font-size="8" text-anchor="start" font-weight="normal" fill="#1a1a1a">4. DETAILS SIMPLIFIED; SEE REPORT.</text>
<text x="874" y="777" font-family="Arial, Helvetica, sans-serif" font-size="8" text-anchor="start" font-weight="normal" fill="#1a1a1a">Barra exportado em CAD para manufatura de precisão.</text>
</svg>