<svg xmlns="http://www.w3.org/2000/svg" width="1260" height="891" viewBox="0 0 1260 891" role="img" aria-label="Desenho técnico A3 — NANO TRF CORPO">
  <defs>
    <marker id="dim-arrow-l" markerWidth="8" markerHeight="6" refX="0" refY="3" orient="auto">
      <path d="M8,0 L0,3 L8,6" fill="none" stroke="#1a1a1a" stroke-width="0.8"/>
    </marker>
    <marker id="dim-arrow-r" markerWidth="8" markerHeight="6" refX="8" refY="3" orient="auto">
      <path d="M0,0 L8,3 L0,6" fill="none" stroke="#1a1a1a" stroke-width="0.8"/>
    </marker>
    <marker id="leader-dot" markerWidth="4" markerHeight="4" refX="2" refY="2">
      <circle cx="2" cy="2" r="1.5" fill="#1a1a1a"/>
    </marker>
  </defs>
  <rect x="0" y="0" width="1260" height="891" fill="#ffffff"/>
<rect x="20" y="20" width="1220" height="851" fill="none" stroke="#1a1a1a" stroke-width="2"/>
<rect x="30" y="30" width="1200" height="831" fill="none" stroke="#1a1a1a" stroke-width="0.8"/>
<line x1="30" y1="20" x2="30" y2="30" stroke="#1a1a1a" stroke-width="0.8" />
<line x1="30" y1="861" x2="30" y2="871" stroke="#1a1a1a" stroke-width="0.8" />
<text x="180" y="32" font-family="Arial, Helvetica, sans-serif" font-size="9" text-anchor="middle" font-weight="normal" fill="#1a1a1a">4</text>
<text x="180" y="867" font-family="Arial, Helvetica, sans-serif" font-size="9" text-anchor="middle" font-weight="normal" fill="#1a1a1a">4</text>
<line x1="330" y1="20" x2="330" y2="30" stroke="#1a1a1a" stroke-width="0.8" />
<line x1="330" y1="861" x2="330" y2="871" stroke="#1a1a1a" stroke-width="0.8" />
<text x="480" y="32" font-family="Arial, Helvetica, sans-serif" font-size="9" text-anchor="middle" font-weight="normal" fill="#1a1a1a">3</text>
<text x="480" y="867" font-family="Arial, Helvetica, sans-serif" font-size="9" text-anchor="middle" font-weight="normal" fill="#1a1a1a">3</text>
<line x1="630" y1="20" x2="630" y2="30" stroke="#1a1a1a" stroke-width="0.8" />
<line x1="630" y1="861" x2="630" y2="871" stroke="#1a1a1a" stroke-width="0.8" />
<text x="780" y="32" font-family="Arial, Helvetica, sans-serif" font-size="9" text-anchor="middle" font-weight="normal" fill="#1a1a1a">2</text>
<text x="780" y="867" font-family="Arial, Helvetica, sans-serif" font-size="9" text-anchor="middle" font-weight="normal" fill="#1a1a1a">2</text>
<line x1="930" y1="20" x2="930" y2="30" stroke="#1a1a1a" stroke-width="0.8" />
<line x1="930" y1="861" x2="930" y2="871" stroke="#1a1a1a" stroke-width="0.8" />
<text x="1080" y="32" font-family="Arial, Helvetica, sans-serif" font-size="9" text-anchor="middle" font-weight="normal" fill="#1a1a1a">1</text>
<text x="1080" y="867" font-family="Arial, Helvetica, sans-serif" font-size="9" text-anchor="middle" font-weight="normal" fill="#1a1a1a">1</text>
<line x1="1230" y1="20" x2="1230" y2="30" stroke="#1a1a1a" stroke-width="0.8" />
<line x1="1230" y1="861" x2="1230" y2="871" stroke="#1a1a1a" stroke-width="0.8" />
<line x1="20" y1="30" x2="30" y2="30" stroke="#1a1a1a" stroke-width="0.8" />
<line x1="1230" y1="30" x2="1240" y2="30" stroke="#1a1a1a" stroke-width="0.8" />
<text x="25" y="136.875" font-family="Arial, Helvetica, sans-serif" font-size="9" text-anchor="start" font-weight="normal" fill="#1a1a1a">A</text>
<text x="1235" y="136.875" font-family="Arial, Helvetica, sans-serif" font-size="9" text-anchor="end" font-weight="normal" fill="#1a1a1a">A</text>
<line x1="20" y1="237.75" x2="30" y2="237.75" stroke="#1a1a1a" stroke-width="0.8" />
<line x1="1230" y1="237.75" x2="1240" y2="237.75" stroke="#1a1a1a" stroke-width="0.8" />
<text x="25" y="344.625" font-family="Arial, Helvetica, sans-serif" font-size="9" text-anchor="start" font-weight="normal" fill="#1a1a1a">B</text>
<text x="1235" y="344.625" font-family="Arial, Helvetica, sans-serif" font-size="9" text-anchor="end" font-weight="normal" fill="#1a1a1a">B</text>
<line x1="20" y1="445.5" x2="30" y2="445.5" stroke="#1a1a1a" stroke-width="0.8" />
<line x1="1230" y1="445.5" x2="1240" y2="445.5" stroke="#1a1a1a" stroke-width="0.8" />
<text x="25" y="552.375" font-family="Arial, Helvetica, sans-serif" font-size="9" text-anchor="start" font-weight="normal" fill="#1a1a1a">C</text>
<text x="1235" y="552.375" font-family="Arial, Helvetica, sans-serif" font-size="9" text-anchor="end" font-weight="normal" fill="#1a1a1a">C</text>
<line x1="20" y1="653.25" x2="30" y2="653.25" stroke="#1a1a1a" stroke-width="0.8" />
<line x1="1230" y1="653.25" x2="1240" y2="653.25" stroke="#1a1a1a" stroke-width="0.8" />
<text x="25" y="760.125" font-family="Arial, Helvetica, sans-serif" font-size="9" text-anchor="start" font-weight="normal" fill="#1a1a1a">D</text>
<text x="1235" y="760.125" font-family="Arial, Helvetica, sans-serif" font-size="9" text-anchor="end" font-weight="normal" fill="#1a1a1a">D</text>
<line x1="20" y1="861" x2="30" y2="861" stroke="#1a1a1a" stroke-width="0.8" />
<line x1="1230" y1="861" x2="1240" y2="861" stroke="#1a1a1a" stroke-width="0.8" />
<line x1="630" y1="20" x2="630" y2="14" stroke="#1a1a1a" stroke-width="0.8" />
<line x1="630" y1="871" x2="630" y2="877" stroke="#1a1a1a" stroke-width="0.8" />
<line x1="20" y1="445.5" x2="14" y2="445.5" stroke="#1a1a1a" stroke-width="0.8" />
<line x1="1240" y1="445.5" x2="1246" y2="445.5" stroke="#1a1a1a" stroke-width="0.8" />
<rect x="870" y="701" width="360" height="160" fill="none" stroke="#1a1a1a" stroke-width="2"/>
<line x1="870" y1="741" x2="1230" y2="741" stroke="#1a1a1a" stroke-width="0.8" />
<line x1="870" y1="781" x2="1230" y2="781" stroke="#1a1a1a" stroke-width="0.8" />
<line x1="870" y1="821" x2="1230" y2="821" stroke="#1a1a1a" stroke-width="0.8" />
<line x1="1068" y1="701" x2="1068" y2="741" stroke="#1a1a1a" stroke-width="0.8" />
<text x="874" y="711" font-family="Arial, Helvetica, sans-serif" font-size="7" text-anchor="start" fill="#555">DRAWN BY:</text>
<text x="874" y="729" font-family="Arial, Helvetica, sans-serif" font-size="11" text-anchor="start" font-weight="normal" fill="#1a1a1a">A.Expert</text>
<text x="874" y="737" font-family="Arial, Helvetica, sans-serif" font-size="8" text-anchor="start" font-weight="normal" fill="#1a1a1a">DATE: 2026-04-17</text>
<text x="1072" y="711" font-family="Arial, Helvetica, sans-serif" font-size="7" text-anchor="start" fill="#555">SCALE:</text>
<text x="1072" y="729" font-family="Arial, Helvetica, sans-serif" font-size="14" text-anchor="start" font-weight="bold" fill="#1a1a1a">1:1</text>
<line x1="1068" y1="741" x2="1068" y2="781" stroke="#1a1a1a" stroke-width="0.8" />
<text x="874" y="751" font-family="Arial, Helvetica, sans-serif" font-size="7" text-anchor="start" fill="#555">MATERIAL:</text>
<text x="874" y="767" font-family="Arial, Helvetica, sans-serif" font-size="10" text-anchor="start" font-weight="normal" fill="#1a1a1a">Al anodizado</text>
<text x="1072" y="751" font-family="Arial, Helvetica, sans-serif" font-size="7" text-anchor="start" fill="#555">TITLE:</text>
<text x="1072" y="769" font-family="Arial, Helvetica, sans-serif" font-size="13" text-anchor="start" font-weight="bold" fill="#1a1a1a">NANO TRF CORPO</text>
<line x1="1068" y1="781" x2="1068" y2="821" stroke="#1a1a1a" stroke-width="0.8" />
<text x="874" y="791" font-family="Arial, Helvetica, sans-serif" font-size="7" text-anchor="start" fill="#555">TOLERANCE:</text>
<text x="874" y="807" font-family="Arial, Helvetica, sans-serif" font-size="10" text-anchor="start" font-weight="normal" fill="#1a1a1a">ISO 2768-m</text>
<text x="1072" y="791" font-family="Arial, Helvetica, sans-serif" font-size="7" text-anchor="start" fill="#555">PART NO:</text>
<text x="1072" y="809" font-family="Arial, Helvetica, sans-serif" font-size="13" text-anchor="start" font-weight="bold" fill="#1a1a1a">NANO-TRF-01</text>
<line x1="1140" y1="821" x2="1140" y2="861" stroke="#1a1a1a" stroke-width="0.8" />
<text x="874" y="831" font-family="Arial, Helvetica, sans-serif" font-size="7" text-anchor="start" fill="#555">REV:</text>
<text x="874" y="847" font-family="Arial, Helvetica, sans-serif" font-size="12" text-anchor="start" font-weight="bold" fill="#1a1a1a">A</text>
<text x="1072" y="841" font-family="Arial, Helvetica, sans-serif" font-size="11" text-anchor="start" font-weight="normal" fill="#1a1a1a">ISO</text>
<line x1="1068" y1="821" x2="1068" y2="861" stroke="#1a1a1a" stroke-width="0.8" />
<text x="1144" y="841" font-family="Arial, Helvetica, sans-serif" font-size="11" text-anchor="start" font-weight="bold" fill="#1a1a1a">A3</text>
<circle cx="349.6778947368421" cy="312.54" r="50" fill="none" stroke="#1a1a1a" stroke-width="0.8" stroke-dasharray="4 2"/>
<text x="349.6778947368421" y="129.70315789473685" font-family="Arial, Helvetica, sans-serif" font-size="8" text-anchor="middle" font-weight="normal" fill="#1a1a1a">VER DETALHE &quot;D&quot;</text>
<line x1="90" y1="312.54" x2="475.5210526315789" y2="312.54" stroke="#1a1a1a" stroke-width="0.4" stroke-dasharray="12 3 3 3"/>
<line x1="110" y1="146.34" x2="207.97052631578947" y2="146.34" stroke="#1a1a1a" stroke-width="2" />
<line x1="110" y1="478.74" x2="207.97052631578947" y2="478.74" stroke="#1a1a1a" stroke-width="2" />
<line x1="110" y1="146.34" x2="110" y2="478.74" stroke="#1a1a1a" stroke-width="2" />
<line x1="207.97052631578947" y1="146.34" x2="207.97052631578947" y2="478.74" stroke="#1a1a1a" stroke-width="2" />
<line x1="116" y1="146.34000000000003" x2="110" y2="152.34000000000003" stroke="#1a1a1a" stroke-width="0.3" opacity="0.3"/>
<line x1="122" y1="146.34000000000003" x2="110" y2="158.34000000000003" stroke="#1a1a1a" stroke-width="0.3" opacity="0.3"/>
<line x1="128" y1="146.34000000000003" x2="110" y2="164.34000000000003" stroke="#1a1a1a" stroke-width="0.3" opacity="0.3"/>
<line x1="134" y1="146.34000000000003" x2="110" y2="170.34000000000003" stroke="#1a1a1a" stroke-width="0.3" opacity="0.3"/>
<line x1="140" y1="146.34000000000003" x2="110" y2="176.34000000000003" stroke="#1a1a1a" stroke-width="0.3" opacity="0.3"/>
<line x1="146" y1="146.34000000000003" x2="110" y2="182.34000000000003" stroke="#1a1a1a" stroke-width="0.3" opacity="0.3"/>
<line x1="152" y1="146.34000000000003" x2="110" y2="188.34000000000003" stroke="#1a1a1a" stroke-width="0.3" opacity="0.3"/>
<line x1="158" y1="146.34000000000003" x2="110" y2="194.34000000000003" stroke="#1a1a1a" stroke-width="0.3" opacity="0.3"/>
<line x1="164" y1="146.34000000000003" x2="110" y2="200.34000000000003" stroke="#1a1a1a" stroke-width="0.3" opacity="0.3"/>
<line x1="170" y1="146.34000000000003" x2="110" y2="206.34000000000003" stroke="#1a1a1a" stroke-width="0.3" opacity="0.3"/>
<line x1="176" y1="146.34000000000003" x2="110" y2="212.34000000000003" stroke="#1a1a1a" stroke-width="0.3" opacity="0.3"/>
<line x1="182" y1="146.34000000000003" x2="110" y2="218.34000000000003" stroke="#1a1a1a" stroke-width="0.3" opacity="0.3"/>
<line x1="188" y1="146.34000000000003" x2="110" y2="224.34000000000003" stroke="#1a1a1a" stroke-width="0.3" opacity="0.3"/>
<line x1="194" y1="146.34000000000003" x2="110" y2="230.34000000000003" stroke="#1a1a1a" stroke-width="0.3" opacity="0.3"/>
<line x1="200" y1="146.34000000000003" x2="110" y2="236.34000000000006" stroke="#1a1a1a" stroke-width="0.3" opacity="0.3"/>
<line x1="206" y1="146.34000000000003" x2="110" y2="242.34000000000003" stroke="#1a1a1a" stroke-width="0.3" opacity="0.3"/>
<line x1="207.97052631578947" y1="150.36947368421056" x2="110" y2="248.34000000000003" stroke="#1a1a1a" stroke-width="0.3" opacity="0.3"/>
<line x1="207.97052631578947" y1="156.36947368421056" x2="110" y2="254.34000000000006" stroke="#1a1a1a" stroke-width="0.3" opacity="0.3"/>
<line x1="207.97052631578947" y1="162.36947368421056" x2="110" y2="260.34000000000003" stroke="#1a1a1a" stroke-width="0.3" opacity="0.3"/>
<line x1="207.97052631578947" y1="168.36947368421056" x2="110" y2="266.34000000000003" stroke="#1a1a1a" stroke-width="0.3" opacity="0.3"/>
<line x1="207.97052631578947" y1="174.36947368421056" x2="110" y2="272.34000000000003" stroke="#1a1a1a" stroke-width="0.3" opacity="0.3"/>
<line x1="207.97052631578947" y1="180.36947368421056" x2="110" y2="278.34000000000003" stroke="#1a1a1a" stroke-width="0.3" opacity="0.3"/>
<line x1="207.97052631578947" y1="186.36947368421056" x2="110" y2="284.34000000000003" stroke="#1a1a1a" stroke-width="0.3" opacity="0.3"/>
<line x1="207.97052631578947" y1="192.36947368421056" x2="110" y2="290.34000000000003" stroke="#1a1a1a" stroke-width="0.3" opacity="0.3"/>
<line x1="207.97052631578947" y1="198.36947368421056" x2="110" y2="296.34000000000003" stroke="#1a1a1a" stroke-width="0.3" opacity="0.3"/>
<line x1="207.97052631578947" y1="204.36947368421056" x2="110" y2="302.34000000000003" stroke="#1a1a1a" stroke-width="0.3" opacity="0.3"/>
<line x1="207.97052631578947" y1="210.36947368421056" x2="110" y2="308.34000000000003" stroke="#1a1a1a" stroke-width="0.3" opacity="0.3"/>
<line x1="207.97052631578947" y1="216.36947368421056" x2="110" y2="314.34000000000003" stroke="#1a1a1a" stroke-width="0.3" opacity="0.3"/>
<line x1="207.97052631578947" y1="222.36947368421056" x2="110" y2="320.34000000000003" stroke="#1a1a1a" stroke-width="0.3" opacity="0.3"/>
<line x1="207.97052631578947" y1="228.36947368421056" x2="110" y2="326.34000000000003" stroke="#1a1a1a" stroke-width="0.3" opacity="0.3"/>
<line x1="207.97052631578947" y1="234.36947368421056" x2="110" y2="332.34000000000003" stroke="#1a1a1a" stroke-width="0.3" opacity="0.3"/>
<line x1="207.97052631578947" y1="240.3694736842106" x2="110" y2="338.34000000000003" stroke="#1a1a1a" stroke-width="0.3" opacity="0.3"/>
<line x1="207.97052631578947" y1="246.36947368421056" x2="110" y2="344.34000000000003" stroke="#1a1a1a" stroke-width="0.3" opacity="0.3"/>
<line x1="207.97052631578947" y1="252.36947368421056" x2="110" y2="350.34000000000003" stroke="#1a1a1a" stroke-width="0.3" opacity="0.3"/>
<line x1="207.97052631578947" y1="258.36947368421056" x2="110" y2="356.34000000000003" stroke="#1a1a1a" stroke-width="0.3" opacity="0.3"/>
<line x1="207.97052631578947" y1="264.36947368421056" x2="110" y2="362.34000000000003" stroke="#1a1a1a" stroke-width="0.3" opacity="0.3"/>
<line x1="207.97052631578947" y1="270.36947368421056" x2="110" y2="368.34000000000003" stroke="#1a1a1a" stroke-width="0.3" opacity="0.3"/>
<line x1="207.97052631578947" y1="276.36947368421056" x2="110" y2="374.34000000000003" stroke="#1a1a1a" stroke-width="0.3" opacity="0.3"/>
<line x1="207.97052631578947" y1="282.36947368421056" x2="110" y2="380.34000000000003" stroke="#1a1a1a" stroke-width="0.3" opacity="0.3"/>
<line x1="207.97052631578947" y1="288.36947368421056" x2="110" y2="386.34000000000003" stroke="#1a1a1a" stroke-width="0.3" opacity="0.3"/>
<line x1="207.97052631578947" y1="294.36947368421056" x2="110" y2="392.34000000000003" stroke="#1a1a1a" stroke-width="0.3" opacity="0.3"/>
<line x1="207.97052631578947" y1="300.36947368421056" x2="110" y2="398.34000000000003" stroke="#1a1a1a" stroke-width="0.3" opacity="0.3"/>
<line x1="207.97052631578947" y1="306.36947368421056" x2="110" y2="404.34000000000003" stroke="#1a1a1a" stroke-width="0.3" opacity="0.3"/>
<line x1="207.97052631578947" y1="312.36947368421056" x2="110" y2="410.34000000000003" stroke="#1a1a1a" stroke-width="0.3" opacity="0.3"/>
<line x1="207.97052631578947" y1="318.36947368421056" x2="110" y2="416.34000000000003" stroke="#1a1a1a" stroke-width="0.3" opacity="0.3"/>
<line x1="207.97052631578947" y1="324.36947368421056" x2="110" y2="422.34000000000003" stroke="#1a1a1a" stroke-width="0.3" opacity="0.3"/>
<line x1="207.97052631578947" y1="330.36947368421056" x2="110" y2="428.34000000000003" stroke="#1a1a1a" stroke-width="0.3" opacity="0.3"/>
<line x1="207.97052631578947" y1="336.36947368421056" x2="110" y2="434.34000000000003" stroke="#1a1a1a" stroke-width="0.3" opacity="0.3"/>
<line x1="207.97052631578947" y1="342.36947368421056" x2="110" y2="440.34000000000003" stroke="#1a1a1a" stroke-width="0.3" opacity="0.3"/>
<line x1="207.97052631578947" y1="348.36947368421056" x2="110" y2="446.34000000000003" stroke="#1a1a1a" stroke-width="0.3" opacity="0.3"/>
<line x1="207.97052631578947" y1="354.36947368421056" x2="110" y2="452.34000000000003" stroke="#1a1a1a" stroke-width="0.3" opacity="0.3"/>
<line x1="207.97052631578947" y1="360.36947368421056" x2="110" y2="458.34000000000003" stroke="#1a1a1a" stroke-width="0.3" opacity="0.3"/>
<line x1="207.97052631578947" y1="366.36947368421056" x2="110" y2="464.34000000000003" stroke="#1a1a1a" stroke-width="0.3" opacity="0.3"/>
<line x1="207.97052631578947" y1="372.36947368421056" x2="110" y2="470.34000000000003" stroke="#1a1a1a" stroke-width="0.3" opacity="0.3"/>
<line x1="207.97052631578947" y1="378.36947368421056" x2="110" y2="476.34000000000003" stroke="#1a1a1a" stroke-width="0.3" opacity="0.3"/>
<line x1="207.97052631578947" y1="384.36947368421056" x2="113.60000000000002" y2="478.74" stroke="#1a1a1a" stroke-width="0.3" opacity="0.3"/>
<line x1="207.97052631578947" y1="390.36947368421056" x2="119.60000000000002" y2="478.74" stroke="#1a1a1a" stroke-width="0.3" opacity="0.3"/>
<line x1="207.97052631578947" y1="396.36947368421056" x2="125.60000000000002" y2="478.74" stroke="#1a1a1a" stroke-width="0.3" opacity="0.3"/>
<line x1="207.97052631578947" y1="402.36947368421056" x2="131.60000000000002" y2="478.74" stroke="#1a1a1a" stroke-width="0.3" opacity="0.3"/>
<line x1="207.97052631578947" y1="408.36947368421056" x2="137.60000000000002" y2="478.74" stroke="#1a1a1a" stroke-width="0.3" opacity="0.3"/>
<line x1="207.97052631578947" y1="414.36947368421056" x2="143.60000000000002" y2="478.74" stroke="#1a1a1a" stroke-width="0.3" opacity="0.3"/>
<line x1="207.97052631578947" y1="420.36947368421056" x2="149.60000000000002" y2="478.74" stroke="#1a1a1a" stroke-width="0.3" opacity="0.3"/>
<line x1="207.97052631578947" y1="426.36947368421056" x2="155.60000000000002" y2="478.74" stroke="#1a1a1a" stroke-width="0.3" opacity="0.3"/>
<line x1="207.97052631578947" y1="432.36947368421056" x2="161.60000000000002" y2="478.74" stroke="#1a1a1a" stroke-width="0.3" opacity="0.3"/>
<line x1="207.97052631578947" y1="438.36947368421056" x2="167.60000000000002" y2="478.74" stroke="#1a1a1a" stroke-width="0.3" opacity="0.3"/>
<line x1="207.97052631578947" y1="444.36947368421056" x2="173.60000000000002" y2="478.74" stroke="#1a1a1a" stroke-width="0.3" opacity="0.3"/>
<line x1="207.97052631578947" y1="450.36947368421056" x2="179.60000000000002" y2="478.74" stroke="#1a1a1a" stroke-width="0.3" opacity="0.3"/>
<line x1="207.97052631578947" y1="456.36947368421056" x2="185.60000000000002" y2="478.74" stroke="#1a1a1a" stroke-width="0.3" opacity="0.3"/>
<line x1="207.97052631578947" y1="462.36947368421056" x2="191.60000000000002" y2="478.74" stroke="#1a1a1a" stroke-width="0.3" opacity="0.3"/>
<line x1="207.97052631578947" y1="468.36947368421056" x2="197.60000000000002" y2="478.74" stroke="#1a1a1a" stroke-width="0.3" opacity="0.3"/>
<line x1="207.97052631578947" y1="474.36947368421056" x2="203.60000000000002" y2="478.74" stroke="#1a1a1a" stroke-width="0.3" opacity="0.3"/>
<line x1="207.97052631578947" y1="149.40157894736845" x2="234.21263157894737" y2="149.40157894736845" stroke="#1a1a1a" stroke-width="2" />
<line x1="207.97052631578947" y1="475.6784210526316" x2="234.21263157894737" y2="475.6784210526316" stroke="#1a1a1a" stroke-width="2" />
<line x1="207.97052631578947" y1="149.40157894736845" x2="207.97052631578947" y2="475.6784210526316" stroke="#1a1a1a" stroke-width="2" />
<line x1="234.21263157894737" y1="149.40157894736845" x2="234.21263157894737" y2="475.6784210526316" stroke="#1a1a1a" stroke-width="2" />
<line x1="213.97052631578947" y1="149.40157894736842" x2="207.97052631578947" y2="155.40157894736842" stroke="#1a1a1a" stroke-width="0.3" opacity="0.3"/>
<line x1="219.97052631578947" y1="149.40157894736842" x2="207.97052631578947" y2="161.40157894736842" stroke="#1a1a1a" stroke-width="0.3" opacity="0.3"/>
<line x1="225.97052631578947" y1="149.40157894736842" x2="207.97052631578947" y2="167.40157894736842" stroke="#1a1a1a" stroke-width="0.3" opacity="0.3"/>
<line x1="231.97052631578947" y1="149.40157894736842" x2="207.97052631578947" y2="173.40157894736842" stroke="#1a1a1a" stroke-width="0.3" opacity="0.3"/>
<line x1="234.21263157894737" y1="153.15947368421052" x2="207.97052631578947" y2="179.40157894736842" stroke="#1a1a1a" stroke-width="0.3" opacity="0.3"/>
<line x1="234.21263157894737" y1="159.15947368421052" x2="207.97052631578947" y2="185.40157894736842" stroke="#1a1a1a" stroke-width="0.3" opacity="0.3"/>
<line x1="234.21263157894737" y1="165.15947368421052" x2="207.97052631578947" y2="191.40157894736842" stroke="#1a1a1a" stroke-width="0.3" opacity="0.3"/>
<line x1="234.21263157894737" y1="171.15947368421052" x2="207.97052631578947" y2="197.40157894736842" stroke="#1a1a1a" stroke-width="0.3" opacity="0.3"/>
<line x1="234.21263157894737" y1="177.15947368421052" x2="207.97052631578947" y2="203.40157894736842" stroke="#1a1a1a" stroke-width="0.3" opacity="0.3"/>
<line x1="234.21263157894737" y1="183.15947368421052" x2="207.97052631578947" y2="209.40157894736842" stroke="#1a1a1a" stroke-width="0.3" opacity="0.3"/>
<line x1="234.21263157894737" y1="189.15947368421052" x2="207.97052631578947" y2="215.40157894736842" stroke="#1a1a1a" stroke-width="0.3" opacity="0.3"/>
<line x1="234.21263157894737" y1="195.15947368421052" x2="207.97052631578947" y2="221.40157894736842" stroke="#1a1a1a" stroke-width="0.3" opacity="0.3"/>
<line x1="234.21263157894737" y1="201.15947368421052" x2="207.97052631578947" y2="227.40157894736845" stroke="#1a1a1a" stroke-width="0.3" opacity="0.3"/>
<line x1="234.21263157894737" y1="207.15947368421052" x2="207.97052631578947" y2="233.40157894736842" stroke="#1a1a1a" stroke-width="0.3" opacity="0.3"/>
<line x1="234.21263157894737" y1="213.15947368421052" x2="207.97052631578947" y2="239.40157894736842" stroke="#1a1a1a" stroke-width="0.3" opacity="0.3"/>
<line x1="234.21263157894737" y1="219.15947368421052" x2="207.97052631578947" y2="245.40157894736842" stroke="#1a1a1a" stroke-width="0.3" opacity="0.3"/>
<line x1="234.21263157894737" y1="225.15947368421052" x2="207.97052631578947" y2="251.4015789473684" stroke="#1a1a1a" stroke-width="0.3" opacity="0.3"/>
<line x1="234.21263157894737" y1="231.15947368421052" x2="207.97052631578947" y2="257.4015789473684" stroke="#1a1a1a" stroke-width="0.3" opacity="0.3"/>
<line x1="234.21263157894737" y1="237.15947368421055" x2="207.97052631578947" y2="263.4015789473684" stroke="#1a1a1a" stroke-width="0.3" opacity="0.3"/>
<line x1="234.21263157894737" y1="243.15947368421052" x2="207.97052631578947" y2="269.4015789473684" stroke="#1a1a1a" stroke-width="0.3" opacity="0.3"/>
<line x1="234.21263157894737" y1="249.15947368421052" x2="207.97052631578947" y2="275.4015789473684" stroke="#1a1a1a" stroke-width="0.3" opacity="0.3"/>
<line x1="234.21263157894737" y1="255.15947368421052" x2="207.97052631578947" y2="281.4015789473684" stroke="#1a1a1a" stroke-width="0.3" opacity="0.3"/>
<line x1="234.21263157894737" y1="261.1594736842105" x2="207.97052631578947" y2="287.4015789473684" stroke="#1a1a1a" stroke-width="0.3" opacity="0.3"/>
<line x1="234.21263157894737" y1="267.1594736842105" x2="207.97052631578947" y2="293.4015789473684" stroke="#1a1a1a" stroke-width="0.3" opacity="0.3"/>
<line x1="234.21263157894737" y1="273.1594736842105" x2="207.97052631578947" y2="299.4015789473684" stroke="#1a1a1a" stroke-width="0.3" opacity="0.3"/>
<line x1="234.21263157894737" y1="279.1594736842105" x2="207.97052631578947" y2="305.4015789473684" stroke="#1a1a1a" stroke-width="0.3" opacity="0.3"/>
<line x1="234.21263157894737" y1="285.1594736842105" x2="207.97052631578947" y2="311.4015789473684" stroke="#1a1a1a" stroke-width="0.3" opacity="0.3"/>
<line x1="234.21263157894737" y1="291.1594736842105" x2="207.97052631578947" y2="317.4015789473684" stroke="#1a1a1a" stroke-width="0.3" opacity="0.3"/>
<line x1="234.21263157894737" y1="297.1594736842105" x2="207.97052631578947" y2="323.4015789473684" stroke="#1a1a1a" stroke-width="0.3" opacity="0.3"/>
<line x1="234.21263157894737" y1="303.1594736842105" x2="207.97052631578947" y2="329.4015789473684" stroke="#1a1a1a" stroke-width="0.3" opacity="0.3"/>
<line x1="234.21263157894737" y1="309.1594736842105" x2="207.97052631578947" y2="335.4015789473684" stroke="#1a1a1a" stroke-width="0.3" opacity="0.3"/>
<line x1="234.21263157894737" y1="315.1594736842105" x2="207.97052631578947" y2="341.4015789473684" stroke="#1a1a1a" stroke-width="0.3" opacity="0.3"/>
<line x1="234.21263157894737" y1="321.1594736842105" x2="207.97052631578947" y2="347.4015789473684" stroke="#1a1a1a" stroke-width="0.3" opacity="0.3"/>
<line x1="234.21263157894737" y1="327.1594736842105" x2="207.97052631578947" y2="353.4015789473684" stroke="#1a1a1a" stroke-width="0.3" opacity="0.3"/>
<line x1="234.21263157894737" y1="333.1594736842105" x2="207.97052631578947" y2="359.4015789473684" stroke="#1a1a1a" stroke-width="0.3" opacity="0.3"/>
<line x1="234.21263157894737" y1="339.1594736842105" x2="207.97052631578947" y2="365.4015789473684" stroke="#1a1a1a" stroke-width="0.3" opacity="0.3"/>
<line x1="234.21263157894737" y1="345.1594736842105" x2="207.97052631578947" y2="371.4015789473684" stroke="#1a1a1a" stroke-width="0.3" opacity="0.3"/>
<line x1="234.21263157894737" y1="351.1594736842105" x2="207.97052631578947" y2="377.4015789473684" stroke="#1a1a1a" stroke-width="0.3" opacity="0.3"/>
<line x1="234.21263157894737" y1="357.1594736842105" x2="207.97052631578947" y2="383.4015789473684" stroke="#1a1a1a" stroke-width="0.3" opacity="0.3"/>
<line x1="234.21263157894737" y1="363.1594736842105" x2="207.97052631578947" y2="389.4015789473684" stroke="#1a1a1a" stroke-width="0.3" opacity="0.3"/>
<line x1="234.21263157894737" y1="369.1594736842105" x2="207.97052631578947" y2="395.4015789473684" stroke="#1a1a1a" stroke-width="0.3" opacity="0.3"/>
<line x1="234.21263157894737" y1="375.1594736842105" x2="207.97052631578947" y2="401.4015789473684" stroke="#1a1a1a" stroke-width="0.3" opacity="0.3"/>
<line x1="234.21263157894737" y1="381.1594736842105" x2="207.97052631578947" y2="407.4015789473684" stroke="#1a1a1a" stroke-width="0.3" opacity="0.3"/>
<line x1="234.21263157894737" y1="387.1594736842105" x2="207.97052631578947" y2="413.4015789473684" stroke="#1a1a1a" stroke-width="0.3" opacity="0.3"/>
<line x1="234.21263157894737" y1="393.1594736842105" x2="207.97052631578947" y2="419.4015789473684" stroke="#1a1a1a" stroke-width="0.3" opacity="0.3"/>
<line x1="234.21263157894737" y1="399.1594736842105" x2="207.97052631578947" y2="425.4015789473684" stroke="#1a1a1a" stroke-width="0.3" opacity="0.3"/>
<line x1="234.21263157894737" y1="405.1594736842105" x2="207.97052631578947" y2="431.4015789473684" stroke="#1a1a1a" stroke-width="0.3" opacity="0.3"/>
<line x1="234.21263157894737" y1="411.1594736842105" x2="207.97052631578947" y2="437.4015789473684" stroke="#1a1a1a" stroke-width="0.3" opacity="0.3"/>
<line x1="234.21263157894737" y1="417.1594736842105" x2="207.97052631578947" y2="443.4015789473684" stroke="#1a1a1a" stroke-width="0.3" opacity="0.3"/>
<line x1="234.21263157894737" y1="423.1594736842105" x2="207.97052631578947" y2="449.4015789473684" stroke="#1a1a1a" stroke-width="0.3" opacity="0.3"/>
<line x1="234.21263157894737" y1="429.1594736842105" x2="207.97052631578947" y2="455.4015789473684" stroke="#1a1a1a" stroke-width="0.3" opacity="0.3"/>
<line x1="234.21263157894737" y1="435.1594736842105" x2="207.97052631578947" y2="461.4015789473684" stroke="#1a1a1a" stroke-width="0.3" opacity="0.3"/>
<line x1="234.21263157894737" y1="441.1594736842105" x2="207.97052631578947" y2="467.4015789473684" stroke="#1a1a1a" stroke-width="0.3" opacity="0.3"/>
<line x1="234.21263157894737" y1="447.1594736842105" x2="207.97052631578947" y2="473.4015789473684" stroke="#1a1a1a" stroke-width="0.3" opacity="0.3"/>
<line x1="234.21263157894737" y1="453.1594736842105" x2="211.69368421052627" y2="475.6784210526316" stroke="#1a1a1a" stroke-width="0.3" opacity="0.3"/>
<line x1="234.21263157894737" y1="459.1594736842105" x2="217.69368421052627" y2="475.6784210526316" stroke="#1a1a1a" stroke-width="0.3" opacity="0.3"/>
<line x1="234.21263157894737" y1="465.1594736842105" x2="223.69368421052627" y2="475.6784210526316" stroke="#1a1a1a" stroke-width="0.3" opacity="0.3"/>
<line x1="234.21263157894737" y1="471.1594736842105" x2="229.69368421052627" y2="475.6784210526316" stroke="#1a1a1a" stroke-width="0.3" opacity="0.3"/>
<line x1="234.21263157894737" y1="149.40157894736845" x2="291.0705263157895" y2="185.70315789473685" stroke="#1a1a1a" stroke-width="2" />
<line x1="234.21263157894737" y1="475.6784210526316" x2="291.0705263157895" y2="439.3768421052632" stroke="#1a1a1a" stroke-width="2" />
<line x1="234.21263157894737" y1="149.40157894736845" x2="234.21263157894737" y2="475.6784210526316" stroke="#1a1a1a" stroke-width="2" />
<line x1="291.0705263157895" y1="185.70315789473685" x2="291.0705263157895" y2="439.3768421052632" stroke="#1a1a1a" stroke-width="2" />
<line x1="240.21263157894737" y1="149.40157894736842" x2="234.21263157894737" y2="155.40157894736842" stroke="#1a1a1a" stroke-width="0.3" opacity="0.3"/>
<line x1="246.21263157894737" y1="149.40157894736842" x2="234.21263157894737" y2="161.40157894736842" stroke="#1a1a1a" stroke-width="0.3" opacity="0.3"/>
<line x1="252.21263157894737" y1="149.40157894736842" x2="234.21263157894737" y2="167.40157894736842" stroke="#1a1a1a" stroke-width="0.3" opacity="0.3"/>
<line x1="258.21263157894737" y1="149.40157894736842" x2="234.21263157894737" y2="173.40157894736842" stroke="#1a1a1a" stroke-width="0.3" opacity="0.3"/>
<line x1="264.21263157894737" y1="149.40157894736842" x2="234.21263157894737" y2="179.40157894736842" stroke="#1a1a1a" stroke-width="0.3" opacity="0.3"/>
<line x1="270.21263157894737" y1="149.40157894736842" x2="234.21263157894737" y2="185.40157894736842" stroke="#1a1a1a" stroke-width="0.3" opacity="0.3"/>
<line x1="276.21263157894737" y1="149.40157894736842" x2="234.21263157894737" y2="191.40157894736842" stroke="#1a1a1a" stroke-width="0.3" opacity="0.3"/>
<line x1="282.21263157894737" y1="149.40157894736842" x2="234.21263157894737" y2="197.40157894736842" stroke="#1a1a1a" stroke-width="0.3" opacity="0.3"/>
<line x1="288.21263157894737" y1="149.40157894736842" x2="234.21263157894737" y2="203.40157894736842" stroke="#1a1a1a" stroke-width="0.3" opacity="0.3"/>
<line x1="291.0705263157895" y1="152.5436842105263" x2="234.21263157894737" y2="209.40157894736842" stroke="#1a1a1a" stroke-width="0.3" opacity="0.3"/>
<line x1="291.0705263157895" y1="158.5436842105263" x2="234.21263157894737" y2="215.40157894736842" stroke="#1a1a1a" stroke-width="0.3" opacity="0.3"/>
<line x1="291.0705263157895" y1="164.5436842105263" x2="234.21263157894737" y2="221.40157894736842" stroke="#1a1a1a" stroke-width="0.3" opacity="0.3"/>
<line x1="291.0705263157895" y1="170.5436842105263" x2="234.21263157894737" y2="227.40157894736845" stroke="#1a1a1a" stroke-width="0.3" opacity="0.3"/>
<line x1="291.0705263157895" y1="176.5436842105263" x2="234.21263157894737" y2="233.40157894736842" stroke="#1a1a1a" stroke-width="0.3" opacity="0.3"/>
<line x1="291.0705263157895" y1="182.5436842105263" x2="234.21263157894737" y2="239.40157894736842" stroke="#1a1a1a" stroke-width="0.3" opacity="0.3"/>
<line x1="291.0705263157895" y1="188.5436842105263" x2="234.21263157894737" y2="245.40157894736842" stroke="#1a1a1a" stroke-width="0.3" opacity="0.3"/>
<line x1="291.0705263157895" y1="194.5436842105263" x2="234.21263157894737" y2="251.4015789473684" stroke="#1a1a1a" stroke-width="0.3" opacity="0.3"/>
<line x1="291.0705263157895" y1="200.5436842105263" x2="234.21263157894737" y2="257.4015789473684" stroke="#1a1a1a" stroke-width="0.3" opacity="0.3"/>
<line x1="291.0705263157895" y1="206.5436842105263" x2="234.21263157894737" y2="263.4015789473684" stroke="#1a1a1a" stroke-width="0.3" opacity="0.3"/>
<line x1="291.0705263157895" y1="212.5436842105263" x2="234.21263157894737" y2="269.4015789473684" stroke="#1a1a1a" stroke-width="0.3" opacity="0.3"/>
<line x1="291.0705263157895" y1="218.5436842105263" x2="234.21263157894737" y2="275.4015789473684" stroke="#1a1a1a" stroke-width="0.3" opacity="0.3"/>
<line x1="291.0705263157895" y1="224.5436842105263" x2="234.21263157894737" y2="281.4015789473684" stroke="#1a1a1a" stroke-width="0.3" opacity="0.3"/>
<line x1="291.0705263157895" y1="230.54368421052632" x2="234.21263157894737" y2="287.4015789473684" stroke="#1a1a1a" stroke-width="0.3" opacity="0.3"/>
<line x1="291.0705263157895" y1="236.5436842105263" x2="234.21263157894737" y2="293.4015789473684" stroke="#1a1a1a" stroke-width="0.3" opacity="0.3"/>
<line x1="291.0705263157895" y1="242.5436842105263" x2="234.21263157894737" y2="299.4015789473684" stroke="#1a1a1a" stroke-width="0.3" opacity="0.3"/>
<line x1="291.0705263157895" y1="248.5436842105263" x2="234.21263157894737" y2="305.4015789473684" stroke="#1a1a1a" stroke-width="0.3" opacity="0.3"/>
<line x1="291.0705263157895" y1="254.54368421052627" x2="234.21263157894737" y2="311.4015789473684" stroke="#1a1a1a" stroke-width="0.3" opacity="0.3"/>
<line x1="291.0705263157895" y1="260.5436842105263" x2="234.21263157894737" y2="317.4015789473684" stroke="#1a1a1a" stroke-width="0.3" opacity="0.3"/>
<line x1="291.0705263157895" y1="266.5436842105263" x2="234.21263157894737" y2="323.4015789473684" stroke="#1a1a1a" stroke-width="0.3" opacity="0.3"/>
<line x1="291.0705263157895" y1="272.5436842105263" x2="234.21263157894737" y2="329.4015789473684" stroke="#1a1a1a" stroke-width="0.3" opacity="0.3"/>
<line x1="291.0705263157895" y1="278.5436842105263" x2="234.21263157894737" y2="335.4015789473684" stroke="#1a1a1a" stroke-width="0.3" opacity="0.3"/>
<line x1="291.0705263157895" y1="284.5436842105263" x2="234.21263157894737" y2="341.4015789473684" stroke="#1a1a1a" stroke-width="0.3" opacity="0.3"/>
<line x1="291.0705263157895" y1="290.5436842105263" x2="234.21263157894737" y2="347.4015789473684" stroke="#1a1a1a" stroke-width="0.3" opacity="0.3"/>
<line x1="291.0705263157895" y1="296.5436842105263" x2="234.21263157894737" y2="353.4015789473684" stroke="#1a1a1a" stroke-width="0.3" opacity="0.3"/>
<line x1="291.0705263157895" y1="302.5436842105263" x2="234.21263157894737" y2="359.4015789473684" stroke="#1a1a1a" stroke-width="0.3" opacity="0.3"/>
<line x1="291.0705263157895" y1="308.5436842105263" x2="234.21263157894737" y2="365.4015789473684" stroke="#1a1a1a" stroke-width="0.3" opacity="0.3"/>
<line x1="291.0705263157895" y1="314.5436842105263" x2="234.21263157894737" y2="371.4015789473684" stroke="#1a1a1a" stroke-width="0.3" opacity="0.3"/>
<line x1="291.0705263157895" y1="320.5436842105263" x2="234.21263157894737" y2="377.4015789473684" stroke="#1a1a1a" stroke-width="0.3" opacity="0.3"/>
<line x1="291.0705263157895" y1="326.5436842105263" x2="234.21263157894737" y2="383.4015789473684" stroke="#1a1a1a" stroke-width="0.3" opacity="0.3"/>
<line x1="291.0705263157895" y1="332.5436842105263" x2="234.21263157894737" y2="389.4015789473684" stroke="#1a1a1a" stroke-width="0.3" opacity="0.3"/>
<line x1="291.0705263157895" y1="338.5436842105263" x2="234.21263157894737" y2="395.4015789473684" stroke="#1a1a1a" stroke-width="0.3" opacity="0.3"/>
<line x1="291.0705263157895" y1="344.5436842105263" x2="234.21263157894737" y2="401.4015789473684" stroke="#1a1a1a" stroke-width="0.3" opacity="0.3"/>
<line x1="291.0705263157895" y1="350.5436842105263" x2="234.21263157894737" y2="407.4015789473684" stroke="#1a1a1a" stroke-width="0.3" opacity="0.3"/>
<line x1="291.0705263157895" y1="356.5436842105263" x2="234.21263157894737" y2="413.4015789473684" stroke="#1a1a1a" stroke-width="0.3" opacity="0.3"/>
<line x1="291.0705263157895" y1="362.5436842105263" x2="234.21263157894737" y2="419.4015789473684" stroke="#1a1a1a" stroke-width="0.3" opacity="0.3"/>
<line x1="291.0705263157895" y1="368.5436842105263" x2="234.21263157894737" y2="425.4015789473684" stroke="#1a1a1a" stroke-width="0.3" opacity="0.3"/>
<line x1="291.0705263157895" y1="374.5436842105263" x2="234.21263157894737" y2="431.4015789473684" stroke="#1a1a1a" stroke-width="0.3" opacity="0.3"/>
<line x1="291.0705263157895" y1="380.5436842105263" x2="234.21263157894737" y2="437.4015789473684" stroke="#1a1a1a" stroke-width="0.3" opacity="0.3"/>
<line x1="291.0705263157895" y1="386.5436842105263" x2="234.21263157894737" y2="443.4015789473684" stroke="#1a1a1a" stroke-width="0.3" opacity="0.3"/>
<line x1="291.0705263157895" y1="392.5436842105263" x2="234.21263157894737" y2="449.4015789473684" stroke="#1a1a1a" stroke-width="0.3" opacity="0.3"/>
<line x1="291.0705263157895" y1="398.5436842105263" x2="234.21263157894737" y2="455.4015789473684" stroke="#1a1a1a" stroke-width="0.3" opacity="0.3"/>
<line x1="291.0705263157895" y1="404.5436842105263" x2="234.21263157894737" y2="461.4015789473684" stroke="#1a1a1a" stroke-width="0.3" opacity="0.3"/>
<line x1="291.0705263157895" y1="410.5436842105263" x2="234.21263157894737" y2="467.4015789473684" stroke="#1a1a1a" stroke-width="0.3" opacity="0.3"/>
<line x1="291.0705263157895" y1="416.5436842105263" x2="234.21263157894737" y2="473.4015789473684" stroke="#1a1a1a" stroke-width="0.3" opacity="0.3"/>
<line x1="291.0705263157895" y1="422.5436842105263" x2="237.93578947368417" y2="475.6784210526316" stroke="#1a1a1a" stroke-width="0.3" opacity="0.3"/>
<line x1="291.0705263157895" y1="428.5436842105263" x2="243.93578947368417" y2="475.6784210526316" stroke="#1a1a1a" stroke-width="0.3" opacity="0.3"/>
<line x1="291.0705263157895" y1="434.5436842105263" x2="249.93578947368417" y2="475.6784210526316" stroke="#1a1a1a" stroke-width="0.3" opacity="0.3"/>
<line x1="291.0705263157895" y1="440.5436842105263" x2="255.93578947368417" y2="475.6784210526316" stroke="#1a1a1a" stroke-width="0.3" opacity="0.3"/>
<line x1="291.0705263157895" y1="446.5436842105263" x2="261.93578947368417" y2="475.6784210526316" stroke="#1a1a1a" stroke-width="0.3" opacity="0.3"/>
<line x1="291.0705263157895" y1="452.5436842105263" x2="267.93578947368417" y2="475.6784210526316" stroke="#1a1a1a" stroke-width="0.3" opacity="0.3"/>
<line x1="291.0705263157895" y1="458.5436842105263" x2="273.93578947368417" y2="475.6784210526316" stroke="#1a1a1a" stroke-width="0.3" opacity="0.3"/>
<line x1="291.0705263157895" y1="464.5436842105263" x2="279.93578947368417" y2="475.6784210526316" stroke="#1a1a1a" stroke-width="0.3" opacity="0.3"/>
<line x1="291.0705263157895" y1="470.5436842105263" x2="285.93578947368417" y2="475.6784210526316" stroke="#1a1a1a" stroke-width="0.3" opacity="0.3"/>
<line x1="291.0705263157895" y1="185.70315789473685" x2="408.28526315789475" y2="185.70315789473685" stroke="#1a1a1a" stroke-width="2" />
<line x1="291.0705263157895" y1="439.3768421052632" x2="408.28526315789475" y2="439.3768421052632" stroke="#1a1a1a" stroke-width="2" />
<line x1="291.0705263157895" y1="185.70315789473685" x2="291.0705263157895" y2="439.3768421052632" stroke="#1a1a1a" stroke-width="2" />
<line x1="408.28526315789475" y1="185.70315789473685" x2="408.28526315789475" y2="439.3768421052632" stroke="#1a1a1a" stroke-width="2" />
<polyline points="291.0705263157895,191.70315789473685 295.95447368421054,187.70315789473685 300.8384210526316,191.70315789473685 300.8384210526316,191.70315789473685 305.72236842105264,187.70315789473685 310.6063157894737,191.70315789473685 310.6063157894737,191.70315789473685 315.49026315789473,187.70315789473685 320.3742105263158,191.70315789473685 320.3742105263158,191.70315789473685 325.2581578947368,187.70315789473685 330.1421052631579,191.70315789473685 330.1421052631579,191.70315789473685 335.0260526315789,187.70315789473685 339.90999999999997,191.70315789473685 339.90999999999997,191.70315789473685 344.793947368421,187.70315789473685 349.67789473684206,191.70315789473685 349.67789473684206,191.70315789473685 354.5618421052631,187.70315789473685 359.44578947368416,191.70315789473685 359.44578947368416,191.70315789473685 364.3297368421052,187.70315789473685 369.21368421052625,191.70315789473685 369.21368421052625,191.70315789473685 374.0976315789473,187.70315789473685 378.98157894736835,191.70315789473685 378.98157894736835,191.70315789473685 383.8655263157894,187.70315789473685 388.74947368421044,191.70315789473685 388.74947368421044,191.70315789473685 393.6334210526315,187.70315789473685 398.51736842105254,191.70315789473685 398.51736842105254,191.70315789473685 403.4013157894736,187.70315789473685 408.28526315789463,191.70315789473685 408.28526315789463,191.70315789473685 408.2852631578947,187.70315789473685 408.28526315789475,191.70315789473685" fill="none" stroke="#1a1a1a" stroke-width="0.8"/>
<polyline points="291.0705263157895,433.3768421052632 295.95447368421054,437.3768421052632 300.8384210526316,433.3768421052632 300.8384210526316,433.3768421052632 305.72236842105264,437.3768421052632 310.6063157894737,433.3768421052632 310.6063157894737,433.3768421052632 315.49026315789473,437.3768421052632 320.3742105263158,433.3768421052632 320.3742105263158,433.3768421052632 325.2581578947368,437.3768421052632 330.1421052631579,433.3768421052632 330.1421052631579,433.3768421052632 335.0260526315789,437.3768421052632 339.90999999999997,433.3768421052632 339.90999999999997,433.3768421052632 344.793947368421,437.3768421052632 349.67789473684206,433.3768421052632 349.67789473684206,433.3768421052632 354.5618421052631,437.3768421052632 359.44578947368416,433.3768421052632 359.44578947368416,433.3768421052632 364.3297368421052,437.3768421052632 369.21368421052625,433.3768421052632 369.21368421052625,433.3768421052632 374.0976315789473,437.3768421052632 378.98157894736835,433.3768421052632 378.98157894736835,433.3768421052632 383.8655263157894,437.3768421052632 388.74947368421044,433.3768421052632 388.74947368421044,433.3768421052632 393.6334210526315,437.3768421052632 398.51736842105254,433.3768421052632 398.51736842105254,433.3768421052632 403.4013157894736,437.3768421052632 408.28526315789463,433.3768421052632 408.28526315789463,433.3768421052632 408.2852631578947,437.3768421052632 408.28526315789475,433.3768421052632" fill="none" stroke="#1a1a1a" stroke-width="0.8"/>
<line x1="408.28526315789475" y1="192.26368421052632" x2="443.27473684210526" y2="192.26368421052632" stroke="#1a1a1a" stroke-width="2" />
<line x1="408.28526315789475" y1="432.8163157894737" x2="443.27473684210526" y2="432.8163157894737" stroke="#1a1a1a" stroke-width="2" />
<line x1="408.28526315789475" y1="192.26368421052632" x2="408.28526315789475" y2="432.8163157894737" stroke="#1a1a1a" stroke-width="2" />
<line x1="443.27473684210526" y1="192.26368421052632" x2="443.27473684210526" y2="432.8163157894737" stroke="#1a1a1a" stroke-width="2" />
<line x1="414.28526315789475" y1="192.26368421052632" x2="408.28526315789475" y2="198.26368421052632" stroke="#1a1a1a" stroke-width="0.3" opacity="0.3"/>
<line x1="420.28526315789475" y1="192.26368421052632" x2="408.28526315789475" y2="204.26368421052632" stroke="#1a1a1a" stroke-width="0.3" opacity="0.3"/>
<line x1="426.28526315789475" y1="192.26368421052632" x2="408.28526315789475" y2="210.26368421052632" stroke="#1a1a1a" stroke-width="0.3" opacity="0.3"/>
<line x1="432.28526315789475" y1="192.26368421052632" x2="408.28526315789475" y2="216.26368421052632" stroke="#1a1a1a" stroke-width="0.3" opacity="0.3"/>
<line x1="438.28526315789475" y1="192.26368421052632" x2="408.28526315789475" y2="222.26368421052632" stroke="#1a1a1a" stroke-width="0.3" opacity="0.3"/>
<line x1="443.27473684210526" y1="193.2742105263158" x2="408.28526315789475" y2="228.26368421052632" stroke="#1a1a1a" stroke-width="0.3" opacity="0.3"/>
<line x1="443.27473684210526" y1="199.2742105263158" x2="408.28526315789475" y2="234.26368421052632" stroke="#1a1a1a" stroke-width="0.3" opacity="0.3"/>
<line x1="443.27473684210526" y1="205.2742105263158" x2="408.28526315789475" y2="240.26368421052632" stroke="#1a1a1a" stroke-width="0.3" opacity="0.3"/>
<line x1="443.27473684210526" y1="211.2742105263158" x2="408.28526315789475" y2="246.26368421052632" stroke="#1a1a1a" stroke-width="0.3" opacity="0.3"/>
<line x1="443.27473684210526" y1="217.2742105263158" x2="408.28526315789475" y2="252.26368421052632" stroke="#1a1a1a" stroke-width="0.3" opacity="0.3"/>
<line x1="443.27473684210526" y1="223.2742105263158" x2="408.28526315789475" y2="258.2636842105263" stroke="#1a1a1a" stroke-width="0.3" opacity="0.3"/>
<line x1="443.27473684210526" y1="229.2742105263158" x2="408.28526315789475" y2="264.2636842105263" stroke="#1a1a1a" stroke-width="0.3" opacity="0.3"/>
<line x1="443.27473684210526" y1="235.2742105263158" x2="408.28526315789475" y2="270.2636842105263" stroke="#1a1a1a" stroke-width="0.3" opacity="0.3"/>
<line x1="443.27473684210526" y1="241.2742105263158" x2="408.28526315789475" y2="276.2636842105263" stroke="#1a1a1a" stroke-width="0.3" opacity="0.3"/>
<line x1="443.27473684210526" y1="247.2742105263158" x2="408.28526315789475" y2="282.2636842105263" stroke="#1a1a1a" stroke-width="0.3" opacity="0.3"/>
<line x1="443.27473684210526" y1="253.2742105263158" x2="408.28526315789475" y2="288.2636842105263" stroke="#1a1a1a" stroke-width="0.3" opacity="0.3"/>
<line x1="443.27473684210526" y1="259.2742105263158" x2="408.28526315789475" y2="294.2636842105263" stroke="#1a1a1a" stroke-width="0.3" opacity="0.3"/>
<line x1="443.27473684210526" y1="265.2742105263158" x2="408.28526315789475" y2="300.2636842105263" stroke="#1a1a1a" stroke-width="0.3" opacity="0.3"/>
<line x1="443.27473684210526" y1="271.2742105263158" x2="408.28526315789475" y2="306.2636842105263" stroke="#1a1a1a" stroke-width="0.3" opacity="0.3"/>
<line x1="443.27473684210526" y1="277.2742105263158" x2="408.28526315789475" y2="312.2636842105263" stroke="#1a1a1a" stroke-width="0.3" opacity="0.3"/>
<line x1="443.27473684210526" y1="283.2742105263158" x2="408.28526315789475" y2="318.2636842105263" stroke="#1a1a1a" stroke-width="0.3" opacity="0.3"/>
<line x1="443.27473684210526" y1="289.2742105263158" x2="408.28526315789475" y2="324.2636842105263" stroke="#1a1a1a" stroke-width="0.3" opacity="0.3"/>
<line x1="443.27473684210526" y1="295.2742105263158" x2="408.28526315789475" y2="330.2636842105263" stroke="#1a1a1a" stroke-width="0.3" opacity="0.3"/>
<line x1="443.27473684210526" y1="301.2742105263158" x2="408.28526315789475" y2="336.2636842105263" stroke="#1a1a1a" stroke-width="0.3" opacity="0.3"/>
<line x1="443.27473684210526" y1="307.2742105263158" x2="408.28526315789475" y2="342.2636842105263" stroke="#1a1a1a" stroke-width="0.3" opacity="0.3"/>
<line x1="443.27473684210526" y1="313.2742105263158" x2="408.28526315789475" y2="348.2636842105263" stroke="#1a1a1a" stroke-width="0.3" opacity="0.3"/>
<line x1="443.27473684210526" y1="319.2742105263158" x2="408.28526315789475" y2="354.2636842105263" stroke="#1a1a1a" stroke-width="0.3" opacity="0.3"/>
<line x1="443.27473684210526" y1="325.2742105263158" x2="408.28526315789475" y2="360.2636842105263" stroke="#1a1a1a" stroke-width="0.3" opacity="0.3"/>
<line x1="443.27473684210526" y1="331.2742105263158" x2="408.28526315789475" y2="366.2636842105263" stroke="#1a1a1a" stroke-width="0.3" opacity="0.3"/>
<line x1="443.27473684210526" y1="337.2742105263158" x2="408.28526315789475" y2="372.2636842105263" stroke="#1a1a1a" stroke-width="0.3" opacity="0.3"/>
<line x1="443.27473684210526" y1="343.2742105263158" x2="408.28526315789475" y2="378.2636842105263" stroke="#1a1a1a" stroke-width="0.3" opacity="0.3"/>
<line x1="443.27473684210526" y1="349.2742105263158" x2="408.28526315789475" y2="384.2636842105263" stroke="#1a1a1a" stroke-width="0.3" opacity="0.3"/>
<line x1="443.27473684210526" y1="355.2742105263158" x2="408.28526315789475" y2="390.2636842105263" stroke="#1a1a1a" stroke-width="0.3" opacity="0.3"/>
<line x1="443.27473684210526" y1="361.2742105263158" x2="408.28526315789475" y2="396.2636842105263" stroke="#1a1a1a" stroke-width="0.3" opacity="0.3"/>
<line x1="443.27473684210526" y1="367.2742105263158" x2="408.28526315789475" y2="402.2636842105263" stroke="#1a1a1a" stroke-width="0.3" opacity="0.3"/>
<line x1="443.27473684210526" y1="373.2742105263158" x2="408.28526315789475" y2="408.2636842105263" stroke="#1a1a1a" stroke-width="0.3" opacity="0.3"/>
<line x1="443.27473684210526" y1="379.2742105263158" x2="408.28526315789475" y2="414.2636842105263" stroke="#1a1a1a" stroke-width="0.3" opacity="0.3"/>
<line x1="443.27473684210526" y1="385.2742105263158" x2="408.28526315789475" y2="420.2636842105263" stroke="#1a1a1a" stroke-width="0.3" opacity="0.3"/>
<line x1="443.27473684210526" y1="391.2742105263158" x2="408.28526315789475" y2="426.2636842105263" stroke="#1a1a1a" stroke-width="0.3" opacity="0.3"/>
<line x1="443.27473684210526" y1="397.2742105263158" x2="408.28526315789475" y2="432.2636842105263" stroke="#1a1a1a" stroke-width="0.3" opacity="0.3"/>
<line x1="443.27473684210526" y1="403.2742105263158" x2="413.73263157894735" y2="432.8163157894737" stroke="#1a1a1a" stroke-width="0.3" opacity="0.3"/>
<line x1="443.27473684210526" y1="409.2742105263158" x2="419.73263157894735" y2="432.8163157894737" stroke="#1a1a1a" stroke-width="0.3" opacity="0.3"/>
<line x1="443.27473684210526" y1="415.2742105263158" x2="425.73263157894735" y2="432.8163157894737" stroke="#1a1a1a" stroke-width="0.3" opacity="0.3"/>
<line x1="443.27473684210526" y1="421.2742105263158" x2="431.73263157894735" y2="432.8163157894737" stroke="#1a1a1a" stroke-width="0.3" opacity="0.3"/>
<line x1="443.27473684210526" y1="427.2742105263158" x2="437.73263157894735" y2="432.8163157894737" stroke="#1a1a1a" stroke-width="0.3" opacity="0.3"/>
<line x1="443.27473684210526" y1="192.26368421052632" x2="455.5210526315789" y2="192.26368421052632" stroke="#1a1a1a" stroke-width="2" />
<line x1="443.27473684210526" y1="432.8163157894737" x2="455.5210526315789" y2="432.8163157894737" stroke="#1a1a1a" stroke-width="2" />
<line x1="443.27473684210526" y1="192.26368421052632" x2="443.27473684210526" y2="432.8163157894737" stroke="#1a1a1a" stroke-width="2" />
<line x1="455.5210526315789" y1="192.26368421052632" x2="455.5210526315789" y2="432.8163157894737" stroke="#1a1a1a" stroke-width="2" />
<line x1="449.27473684210526" y1="192.26368421052632" x2="443.27473684210526" y2="198.26368421052632" stroke="#1a1a1a" stroke-width="0.3" opacity="0.3"/>
<line x1="455.27473684210526" y1="192.26368421052632" x2="443.27473684210526" y2="204.26368421052632" stroke="#1a1a1a" stroke-width="0.3" opacity="0.3"/>
<line x1="455.5210526315789" y1="198.01736842105265" x2="443.27473684210526" y2="210.26368421052632" stroke="#1a1a1a" stroke-width="0.3" opacity="0.3"/>
<line x1="455.5210526315789" y1="204.01736842105265" x2="443.27473684210526" y2="216.26368421052632" stroke="#1a1a1a" stroke-width="0.3" opacity="0.3"/>
<line x1="455.5210526315789" y1="210.01736842105265" x2="443.27473684210526" y2="222.26368421052632" stroke="#1a1a1a" stroke-width="0.3" opacity="0.3"/>
<line x1="455.5210526315789" y1="216.01736842105265" x2="443.27473684210526" y2="228.26368421052632" stroke="#1a1a1a" stroke-width="0.3" opacity="0.3"/>
<line x1="455.5210526315789" y1="222.01736842105265" x2="443.27473684210526" y2="234.26368421052632" stroke="#1a1a1a" stroke-width="0.3" opacity="0.3"/>
<line x1="455.5210526315789" y1="228.01736842105265" x2="443.27473684210526" y2="240.26368421052632" stroke="#1a1a1a" stroke-width="0.3" opacity="0.3"/>
<line x1="455.5210526315789" y1="234.01736842105265" x2="443.27473684210526" y2="246.26368421052632" stroke="#1a1a1a" stroke-width="0.3" opacity="0.3"/>
<line x1="455.5210526315789" y1="240.01736842105265" x2="443.27473684210526" y2="252.26368421052632" stroke="#1a1a1a" stroke-width="0.3" opacity="0.3"/>
<line x1="455.5210526315789" y1="246.01736842105265" x2="443.27473684210526" y2="258.2636842105263" stroke="#1a1a1a" stroke-width="0.3" opacity="0.3"/>
<line x1="455.5210526315789" y1="252.0173684210527" x2="443.27473684210526" y2="264.2636842105264" stroke="#1a1a1a" stroke-width="0.3" opacity="0.3"/>
<line x1="455.5210526315789" y1="258.0173684210527" x2="443.27473684210526" y2="270.2636842105264" stroke="#1a1a1a" stroke-width="0.3" opacity="0.3"/>
<line x1="455.5210526315789" y1="264.0173684210527" x2="443.27473684210526" y2="276.2636842105264" stroke="#1a1a1a" stroke-width="0.3" opacity="0.3"/>
<line x1="455.5210526315789" y1="270.0173684210527" x2="443.27473684210526" y2="282.2636842105264" stroke="#1a1a1a" stroke-width="0.3" opacity="0.3"/>
<line x1="455.5210526315789" y1="276.0173684210527" x2="443.27473684210526" y2="288.2636842105264" stroke="#1a1a1a" stroke-width="0.3" opacity="0.3"/>
<line x1="455.5210526315789" y1="282.0173684210527" x2="443.27473684210526" y2="294.2636842105264" stroke="#1a1a1a" stroke-width="0.3" opacity="0.3"/>
<line x1="455.5210526315789" y1="288.0173684210527" x2="443.27473684210526" y2="300.2636842105264" stroke="#1a1a1a" stroke-width="0.3" opacity="0.3"/>
<line x1="455.5210526315789" y1="294.0173684210527" x2="443.27473684210526" y2="306.2636842105264" stroke="#1a1a1a" stroke-width="0.3" opacity="0.3"/>
<line x1="455.5210526315789" y1="300.0173684210527" x2="443.27473684210526" y2="312.2636842105264" stroke="#1a1a1a" stroke-width="0.3" opacity="0.3"/>
<line x1="455.5210526315789" y1="306.0173684210527" x2="443.27473684210526" y2="318.2636842105264" stroke="#1a1a1a" stroke-width="0.3" opacity="0.3"/>
<line x1="455.5210526315789" y1="312.0173684210527" x2="443.27473684210526" y2="324.2636842105264" stroke="#1a1a1a" stroke-width="0.3" opacity="0.3"/>
<line x1="455.5210526315789" y1="318.0173684210527" x2="443.27473684210526" y2="330.2636842105264" stroke="#1a1a1a" stroke-width="0.3" opacity="0.3"/>
<line x1="455.5210526315789" y1="324.0173684210527" x2="443.27473684210526" y2="336.2636842105264" stroke="#1a1a1a" stroke-width="0.3" opacity="0.3"/>
<line x1="455.5210526315789" y1="330.0173684210527" x2="443.27473684210526" y2="342.2636842105264" stroke="#1a1a1a" stroke-width="0.3" opacity="0.3"/>
<line x1="455.5210526315789" y1="336.0173684210527" x2="443.27473684210526" y2="348.2636842105264" stroke="#1a1a1a" stroke-width="0.3" opacity="0.3"/>
<line x1="455.5210526315789" y1="342.0173684210527" x2="443.27473684210526" y2="354.2636842105264" stroke="#1a1a1a" stroke-width="0.3" opacity="0.3"/>
<line x1="455.5210526315789" y1="348.0173684210527" x2="443.27473684210526" y2="360.2636842105264" stroke="#1a1a1a" stroke-width="0.3" opacity="0.3"/>
<line x1="455.5210526315789" y1="354.0173684210527" x2="443.27473684210526" y2="366.2636842105264" stroke="#1a1a1a" stroke-width="0.3" opacity="0.3"/>
<line x1="455.5210526315789" y1="360.0173684210527" x2="443.27473684210526" y2="372.2636842105264" stroke="#1a1a1a" stroke-width="0.3" opacity="0.3"/>
<line x1="455.5210526315789" y1="366.0173684210527" x2="443.27473684210526" y2="378.2636842105264" stroke="#1a1a1a" stroke-width="0.3" opacity="0.3"/>
<line x1="455.5210526315789" y1="372.0173684210527" x2="443.27473684210526" y2="384.2636842105264" stroke="#1a1a1a" stroke-width="0.3" opacity="0.3"/>
<line x1="455.5210526315789" y1="378.0173684210527" x2="443.27473684210526" y2="390.2636842105264" stroke="#1a1a1a" stroke-width="0.3" opacity="0.3"/>
<line x1="455.5210526315789" y1="384.0173684210527" x2="443.27473684210526" y2="396.2636842105264" stroke="#1a1a1a" stroke-width="0.3" opacity="0.3"/>
<line x1="455.5210526315789" y1="390.0173684210527" x2="443.27473684210526" y2="402.2636842105264" stroke="#1a1a1a" stroke-width="0.3" opacity="0.3"/>
<line x1="455.5210526315789" y1="396.0173684210527" x2="443.27473684210526" y2="408.2636842105264" stroke="#1a1a1a" stroke-width="0.3" opacity="0.3"/>
<line x1="455.5210526315789" y1="402.0173684210527" x2="443.27473684210526" y2="414.2636842105264" stroke="#1a1a1a" stroke-width="0.3" opacity="0.3"/>
<line x1="455.5210526315789" y1="408.0173684210527" x2="443.27473684210526" y2="420.2636842105264" stroke="#1a1a1a" stroke-width="0.3" opacity="0.3"/>
<line x1="455.5210526315789" y1="414.0173684210527" x2="443.27473684210526" y2="426.2636842105264" stroke="#1a1a1a" stroke-width="0.3" opacity="0.3"/>
<line x1="455.5210526315789" y1="420.0173684210527" x2="443.27473684210526" y2="432.2636842105264" stroke="#1a1a1a" stroke-width="0.3" opacity="0.3"/>
<line x1="455.5210526315789" y1="426.0173684210527" x2="448.7221052631579" y2="432.8163157894737" stroke="#1a1a1a" stroke-width="0.3" opacity="0.3"/>
<line x1="455.5210526315789" y1="432.0173684210527" x2="454.7221052631579" y2="432.8163157894737" stroke="#1a1a1a" stroke-width="0.3" opacity="0.3"/>
<line x1="110" y1="302.04315789473685" x2="455.521052631579" y2="302.04315789473685" stroke="#1a1a1a" stroke-width="0.8" stroke-dasharray="6 3"/>
<line x1="110" y1="323.0368421052632" x2="455.521052631579" y2="323.0368421052632" stroke="#1a1a1a" stroke-width="0.8" stroke-dasharray="6 3"/>
<line x1="455.521052631579" y1="302.04315789473685" x2="455.521052631579" y2="323.0368421052632" stroke="#1a1a1a" stroke-width="0.8" stroke-dasharray="6 3"/>
<line x1="110" y1="278.42526315789473" x2="229.83894736842106" y2="278.42526315789473" stroke="#1a1a1a" stroke-width="0.8" stroke-dasharray="6 3"/>
<line x1="110" y1="346.6547368421053" x2="229.83894736842106" y2="346.6547368421053" stroke="#1a1a1a" stroke-width="0.8" stroke-dasharray="6 3"/>
<line x1="229.83894736842106" y1="278.42526315789473" x2="229.83894736842106" y2="346.6547368421053" stroke="#1a1a1a" stroke-width="0.8" stroke-dasharray="6 3"/>
<line x1="455.5210526315789" y1="295.04526315789474" x2="333.93263157894734" y2="295.04526315789474" stroke="#1a1a1a" stroke-width="0.8" stroke-dasharray="6 3"/>
<line x1="455.5210526315789" y1="330.0347368421053" x2="333.93263157894734" y2="330.0347368421053" stroke="#1a1a1a" stroke-width="0.8" stroke-dasharray="6 3"/>
<line x1="333.93263157894734" y1="295.04526315789474" x2="333.93263157894734" y2="330.0347368421053" stroke="#1a1a1a" stroke-width="0.8" stroke-dasharray="6 3"/>
<text x="282.76052631578943" y="528.74" font-family="Arial, Helvetica, sans-serif" font-size="11" text-anchor="middle" font-weight="bold" fill="#1a1a1a">A) MAIN CROSS-SECTION VIEW (FRONTA)</text>
<line x1="110" y1="480.74" x2="110" y2="498.74" stroke="#1a1a1a" stroke-width="0.6" />
<line x1="207.97052631578947" y1="480.74" x2="207.97052631578947" y2="498.74" stroke="#1a1a1a" stroke-width="0.6" />
<line x1="110" y1="494.74" x2="207.97052631578947" y2="494.74" stroke="#1a1a1a" stroke-width="0.6" marker-start="url(#dim-arrow-l)" marker-end="url(#dim-arrow-r)"/>
<text x="158.98526315789474" y="491.74" font-family="Arial, Helvetica, sans-serif" font-size="8" text-anchor="middle" font-weight="normal" fill="#1a1a1a">11,20</text>
<line x1="207.97052631578947" y1="477.6784210526316" x2="207.97052631578947" y2="518.74" stroke="#1a1a1a" stroke-width="0.6" />
<line x1="234.21263157894737" y1="477.6784210526316" x2="234.21263157894737" y2="518.74" stroke="#1a1a1a" stroke-width="0.6" />
<line x1="207.97052631578947" y1="514.74" x2="234.21263157894737" y2="514.74" stroke="#1a1a1a" stroke-width="0.6" marker-start="url(#dim-arrow-l)" marker-end="url(#dim-arrow-r)"/>
<text x="221.09157894736842" y="511.74" font-family="Arial, Helvetica, sans-serif" font-size="8" text-anchor="middle" font-weight="normal" fill="#1a1a1a">3</text>
<line x1="234.21263157894737" y1="477.6784210526316" x2="234.21263157894737" y2="538.74" stroke="#1a1a1a" stroke-width="0.6" />
<line x1="291.0705263157895" y1="441.3768421052632" x2="291.0705263157895" y2="538.74" stroke="#1a1a1a" stroke-width="0.6" />
<line x1="234.21263157894737" y1="534.74" x2="291.0705263157895" y2="534.74" stroke="#1a1a1a" stroke-width="0.6" marker-start="url(#dim-arrow-l)" marker-end="url(#dim-arrow-r)"/>
<text x="262.64157894736843" y="531.74" font-family="Arial, Helvetica, sans-serif" font-size="8" text-anchor="middle" font-weight="normal" fill="#1a1a1a">6,50</text>
<line x1="291.0705263157895" y1="441.3768421052632" x2="291.0705263157895" y2="498.74" stroke="#1a1a1a" stroke-width="0.6" />
<line x1="408.28526315789475" y1="441.3768421052632" x2="408.28526315789475" y2="498.74" stroke="#1a1a1a" stroke-width="0.6" />
<line x1="291.0705263157895" y1="494.74" x2="408.28526315789475" y2="494.74" stroke="#1a1a1a" stroke-width="0.6" marker-start="url(#dim-arrow-l)" marker-end="url(#dim-arrow-r)"/>
<text x="349.6778947368421" y="491.74" font-family="Arial, Helvetica, sans-serif" font-size="8" text-anchor="middle" font-weight="normal" fill="#1a1a1a">13,40</text>
<line x1="408.28526315789475" y1="434.8163157894737" x2="408.28526315789475" y2="518.74" stroke="#1a1a1a" stroke-width="0.6" />
<line x1="443.27473684210526" y1="434.8163157894737" x2="443.27473684210526" y2="518.74" stroke="#1a1a1a" stroke-width="0.6" />
<line x1="408.28526315789475" y1="514.74" x2="443.27473684210526" y2="514.74" stroke="#1a1a1a" stroke-width="0.6" marker-start="url(#dim-arrow-l)" marker-end="url(#dim-arrow-r)"/>
<text x="425.78" y="511.74" font-family="Arial, Helvetica, sans-serif" font-size="8" text-anchor="middle" font-weight="normal" fill="#1a1a1a">4</text>
<line x1="443.27473684210526" y1="434.8163157894737" x2="443.27473684210526" y2="538.74" stroke="#1a1a1a" stroke-width="0.6" />
<line x1="455.5210526315789" y1="434.8163157894737" x2="455.5210526315789" y2="538.74" stroke="#1a1a1a" stroke-width="0.6" />
<line x1="443.27473684210526" y1="534.74" x2="455.5210526315789" y2="534.74" stroke="#1a1a1a" stroke-width="0.6" marker-start="url(#dim-arrow-l)" marker-end="url(#dim-arrow-r)"/>
<text x="449.3978947368421" y="531.74" font-family="Arial, Helvetica, sans-serif" font-size="8" text-anchor="middle" font-weight="normal" fill="#1a1a1a">1,40</text>
<line x1="110" y1="480.74" x2="110" y2="570.74" stroke="#1a1a1a" stroke-width="0.6" />
<line x1="455.5210526315789" y1="480.74" x2="455.5210526315789" y2="570.74" stroke="#1a1a1a" stroke-width="0.6" />
<line x1="110" y1="566.74" x2="455.5210526315789" y2="566.74" stroke="#1a1a1a" stroke-width="0.6" marker-start="url(#dim-arrow-l)" marker-end="url(#dim-arrow-r)"/>
<text x="282.76052631578943" y="563.74" font-family="Arial, Helvetica, sans-serif" font-size="9" text-anchor="middle" font-weight="bold" fill="#1a1a1a">39,50</text>
<line x1="158.98526315789474" y1="146.34" x2="158.98526315789474" y2="136.34" stroke="#1a1a1a" stroke-width="0.6" />
<text x="158.98526315789474" y="132.34" font-family="Arial, Helvetica, sans-serif" font-size="8" text-anchor="middle" font-weight="normal" fill="#1a1a1a">Ø38</text>
<line x1="221.09157894736842" y1="149.40157894736845" x2="221.09157894736842" y2="116.34" stroke="#1a1a1a" stroke-width="0.6" />
<text x="221.09157894736842" y="112.34" font-family="Arial, Helvetica, sans-serif" font-size="8" text-anchor="middle" font-weight="normal" fill="#1a1a1a">Ø37,30</text>
<line x1="262.64157894736843" y1="149.40157894736845" x2="262.64157894736843" y2="122.34" stroke="#1a1a1a" stroke-width="0.6" />
<text x="262.64157894736843" y="118.34" font-family="Arial, Helvetica, sans-serif" font-size="8" text-anchor="middle" font-weight="normal" fill="#1a1a1a">Ø37,30 → Ø29</text>
<line x1="349.6778947368421" y1="185.70315789473685" x2="349.6778947368421" y2="102.34" stroke="#1a1a1a" stroke-width="0.6" />
<text x="349.6778947368421" y="98.34" font-family="Arial, Helvetica, sans-serif" font-size="8" text-anchor="middle" font-weight="normal" fill="#1a1a1a">M29 x 0,80</text>
<line x1="425.78" y1="192.26368421052632" x2="425.78" y2="108.34" stroke="#1a1a1a" stroke-width="0.6" />
<text x="425.78" y="104.34" font-family="Arial, Helvetica, sans-serif" font-size="8" text-anchor="middle" font-weight="normal" fill="#1a1a1a">Ø27,50</text>
<line x1="449.3978947368421" y1="192.26368421052632" x2="449.3978947368421" y2="88.34" stroke="#1a1a1a" stroke-width="0.6" />
<text x="449.3978947368421" y="84.34" font-family="Arial, Helvetica, sans-serif" font-size="8" text-anchor="middle" font-weight="normal" fill="#1a1a1a">Ø27,50</text>
<circle cx="1090" cy="110" r="80" fill="none" stroke="#1a1a1a" stroke-width="2"/>
<circle cx="1090" cy="110" r="5.052631578947369" fill="none" stroke="#1a1a1a" stroke-width="0.8"/>
<circle cx="1090" cy="110" r="16.42105263157895" fill="none" stroke="#1a1a1a" stroke-width="0.8"/>
<circle cx="1090" cy="110" r="8.421052631578949" fill="none" stroke="#1a1a1a" stroke-width="0.8"/>
<line x1="998" y1="110" x2="1182" y2="110" stroke="#1a1a1a" stroke-width="0.4" stroke-dasharray="12 3 3 3"/>
<line x1="1090" y1="18" x2="1090" y2="202" stroke="#1a1a1a" stroke-width="0.4" stroke-dasharray="12 3 3 3"/>
<text x="1090" y="238" font-family="Arial, Helvetica, sans-serif" font-size="10" text-anchor="middle" font-weight="bold" fill="#1a1a1a">B) TOP VIEW</text>
<line x1="844.5067368421053" y1="233.8136842105263" x2="1055.4932631578947" y2="233.8136842105263" stroke="#1a1a1a" stroke-width="2" />
<line x1="844.5067368421053" y1="690.4263157894737" x2="1055.4932631578947" y2="690.4263157894737" stroke="#1a1a1a" stroke-width="2" />
<line x1="844.5067368421053" y1="233.8136842105263" x2="844.5067368421053" y2="690.4263157894737" stroke="#1a1a1a" stroke-width="2" />
<line x1="1055.4932631578947" y1="233.8136842105263" x2="1055.4932631578947" y2="690.4263157894737" stroke="#1a1a1a" stroke-width="2" />
<line x1="834.5067368421053" y1="462.12" x2="1065.4932631578947" y2="462.12" stroke="#1a1a1a" stroke-width="0.4" stroke-dasharray="12 3 3 3"/>
<polyline points="844.5067368421053,238.8136842105263 855.0560631578948,235.8136842105263 865.6053894736842,238.8136842105263 865.6053894736842,238.8136842105263 876.1547157894737,235.8136842105263 886.7040421052632,238.8136842105263 886.7040421052632,238.8136842105263 897.2533684210526,235.8136842105263 907.8026947368421,238.8136842105263 907.8026947368421,238.8136842105263 918.3520210526316,235.8136842105263 928.901347368421,238.8136842105263 928.901347368421,238.8136842105263 939.4506736842105,235.8136842105263 950,238.8136842105263 950,238.8136842105263 960.5493263157895,235.8136842105263 971.098652631579,238.8136842105263 971.098652631579,238.8136842105263 981.6479789473684,235.8136842105263 992.1973052631579,238.8136842105263 992.1973052631579,238.8136842105263 1002.7466315789474,235.8136842105263 1013.2959578947368,238.8136842105263 1013.2959578947368,238.8136842105263 1023.8452842105263,235.8136842105263 1034.3946105263158,238.8136842105263 1034.3946105263158,238.8136842105263 1044.9439368421054,235.8136842105263 1055.4932631578947,238.8136842105263 1055.4932631578947,238.8136842105263 1055.4932631578947,235.8136842105263 1055.4932631578947,238.8136842105263" fill="none" stroke="#1a1a1a" stroke-width="0.8"/>
<polyline points="844.5067368421053,685.4263157894737 855.0560631578948,688.4263157894737 865.6053894736842,685.4263157894737 865.6053894736842,685.4263157894737 876.1547157894737,688.4263157894737 886.7040421052632,685.4263157894737 886.7040421052632,685.4263157894737 897.2533684210526,688.4263157894737 907.8026947368421,685.4263157894737 907.8026947368421,685.4263157894737 918.3520210526316,688.4263157894737 928.901347368421,685.4263157894737 928.901347368421,685.4263157894737 939.4506736842105,688.4263157894737 950,685.4263157894737 950,685.4263157894737 960.5493263157895,688.4263157894737 971.098652631579,685.4263157894737 971.098652631579,685.4263157894737 981.6479789473684,688.4263157894737 992.1973052631579,685.4263157894737 992.1973052631579,685.4263157894737 1002.7466315789474,688.4263157894737 1013.2959578947368,685.4263157894737 1013.2959578947368,685.4263157894737 1023.8452842105263,688.4263157894737 1034.3946105263158,685.4263157894737 1034.3946105263158,685.4263157894737 1044.9439368421054,688.4263157894737 1055.4932631578947,685.4263157894737 1055.4932631578947,685.4263157894737 1055.4932631578947,688.4263157894737 1055.4932631578947,685.4263157894737" fill="none" stroke="#1a1a1a" stroke-width="0.8"/>
<line x1="844.5067368421053" y1="692.4263157894737" x2="844.5067368421053" y2="708.4263157894737" stroke="#1a1a1a" stroke-width="0.6" />
<line x1="1055.4932631578947" y1="692.4263157894737" x2="1055.4932631578947" y2="708.4263157894737" stroke="#1a1a1a" stroke-width="0.6" />
<line x1="844.5067368421053" y1="704.4263157894737" x2="1055.4932631578947" y2="704.4263157894737" stroke="#1a1a1a" stroke-width="0.6" marker-start="url(#dim-arrow-l)" marker-end="url(#dim-arrow-r)"/>
<text x="950" y="702.4263157894737" font-family="Arial, Helvetica, sans-serif" font-size="8" text-anchor="middle" font-weight="normal" fill="#1a1a1a">13,40</text>
<line x1="1057.4932631578947" y1="233.8136842105263" x2="1073.4932631578947" y2="233.8136842105263" stroke="#1a1a1a" stroke-width="0.6" />
<line x1="1057.4932631578947" y1="690.4263157894737" x2="1073.4932631578947" y2="690.4263157894737" stroke="#1a1a1a" stroke-width="0.6" />
<line x1="1069.4932631578947" y1="233.8136842105263" x2="1069.4932631578947" y2="690.4263157894737" stroke="#1a1a1a" stroke-width="0.6" marker-start="url(#dim-arrow-l)" marker-end="url(#dim-arrow-r)"/>
<text x="1075.4932631578947" y="465.12" font-family="Arial, Helvetica, sans-serif" font-size="8" text-anchor="start" font-weight="normal" fill="#1a1a1a">Ø29</text>
<text x="950" y="718.4263157894737" font-family="Arial, Helvetica, sans-serif" font-size="9" text-anchor="middle" font-weight="bold" fill="#1a1a1a">M29</text>
<text x="950" y="219.8136842105263" font-family="Arial, Helvetica, sans-serif" font-size="10" text-anchor="middle" font-weight="bold" fill="#1a1a1a">D) DETAIL</text>

<text x="870" y="601" font-family="Arial, Helvetica, sans-serif" font-size="10" text-anchor="start" font-weight="bold" fill="#1a1a1a">NOTES:</text>
<text x="870" y="617" font-family="Arial, Helvetica, sans-serif" font-size="8" text-anchor="start" font-weight="normal" fill="#1a1a1a">1. DIMENSÕES EM MM.</text>
<text x="870" y="631" font-family="Arial, Helvetica, sans-serif" font-size="8" text-anchor="start" font-weight="normal" fill="#1a1a1a">2. ROSCA M29 ESPECIFICADA PELO USUÁRIO.</text>
<text x="870" y="645" font-family="Arial, Helvetica, sans-serif" font-size="8" text-anchor="start" font-weight="normal" fill="#1a1a1a">3. STEP ENVELOPE APPROXIMATION.</text>
<text x="870" y="659" font-family="Arial, Helvetica, sans-serif" font-size="8" text-anchor="start" font-weight="normal" fill="#1a1a1a">4. DETAILS SIMPLIFIED; SEE REPORT.</text>
<text x="874" y="777" font-family="Arial, Helvetica, sans-serif" font-size="8" text-anchor="start" font-weight="normal" fill="#1a1a1a">Barra exportado em CAD para manufatura de precisão.</text>
</svg>