<svg xmlns="http://www.w3.org/2000/svg" width="1260" height="891" viewBox="0 0 1260 891" role="img" aria-label="Desenho técnico A3 — Step Bur 20s MCXL usada">
  <defs>
    <marker id="dim-arrow-l" markerWidth="8" markerHeight="6" refX="0" refY="3" orient="auto">
      <path d="M8,0 L0,3 L8,6" fill="none" stroke="#1a1a1a" stroke-width="0.8"/>
    </marker>
    <marker id="dim-arrow-r" markerWidth="8" markerHeight="6" refX="8" refY="3" orient="auto">
      <path d="M0,0 L8,3 L0,6" fill="none" stroke="#1a1a1a" stroke-width="0.8"/>
    </marker>
    <marker id="leader-dot" markerWidth="4" markerHeight="4" refX="2" refY="2">
      <circle cx="2" cy="2" r="1.5" fill="#1a1a1a"/>
    </marker>
  </defs>
  <rect x="0" y="0" width="1260" height="891" fill="#ffffff"/>
<rect x="20" y="20" width="1220" height="851" fill="none" stroke="#1a1a1a" stroke-width="2"/>
<rect x="30" y="30" width="1200" height="831" fill="none" stroke="#1a1a1a" stroke-width="0.8"/>
<line x1="30" y1="20" x2="30" y2="30" stroke="#1a1a1a" stroke-width="0.8" />
<line x1="30" y1="861" x2="30" y2="871" stroke="#1a1a1a" stroke-width="0.8" />
<text x="180" y="32" font-family="Arial, Helvetica, sans-serif" font-size="9" text-anchor="middle" font-weight="normal" fill="#1a1a1a">4</text>
<text x="180" y="867" font-family="Arial, Helvetica, sans-serif" font-size="9" text-anchor="middle" font-weight="normal" fill="#1a1a1a">4</text>
<line x1="330" y1="20" x2="330" y2="30" stroke="#1a1a1a" stroke-width="0.8" />
<line x1="330" y1="861" x2="330" y2="871" stroke="#1a1a1a" stroke-width="0.8" />
<text x="480" y="32" font-family="Arial, Helvetica, sans-serif" font-size="9" text-anchor="middle" font-weight="normal" fill="#1a1a1a">3</text>
<text x="480" y="867" font-family="Arial, Helvetica, sans-serif" font-size="9" text-anchor="middle" font-weight="normal" fill="#1a1a1a">3</text>
<line x1="630" y1="20" x2="630" y2="30" stroke="#1a1a1a" stroke-width="0.8" />
<line x1="630" y1="861" x2="630" y2="871" stroke="#1a1a1a" stroke-width="0.8" />
<text x="780" y="32" font-family="Arial, Helvetica, sans-serif" font-size="9" text-anchor="middle" font-weight="normal" fill="#1a1a1a">2</text>
<text x="780" y="867" font-family="Arial, Helvetica, sans-serif" font-size="9" text-anchor="middle" font-weight="normal" fill="#1a1a1a">2</text>
<line x1="930" y1="20" x2="930" y2="30" stroke="#1a1a1a" stroke-width="0.8" />
<line x1="930" y1="861" x2="930" y2="871" stroke="#1a1a1a" stroke-width="0.8" />
<text x="1080" y="32" font-family="Arial, Helvetica, sans-serif" font-size="9" text-anchor="middle" font-weight="normal" fill="#1a1a1a">1</text>
<text x="1080" y="867" font-family="Arial, Helvetica, sans-serif" font-size="9" text-anchor="middle" font-weight="normal" fill="#1a1a1a">1</text>
<line x1="1230" y1="20" x2="1230" y2="30" stroke="#1a1a1a" stroke-width="0.8" />
<line x1="1230" y1="861" x2="1230" y2="871" stroke="#1a1a1a" stroke-width="0.8" />
<line x1="20" y1="30" x2="30" y2="30" stroke="#1a1a1a" stroke-width="0.8" />
<line x1="1230" y1="30" x2="1240" y2="30" stroke="#1a1a1a" stroke-width="0.8" />
<text x="25" y="136.875" font-family="Arial, Helvetica, sans-serif" font-size="9" text-anchor="start" font-weight="normal" fill="#1a1a1a">A</text>
<text x="1235" y="136.875" font-family="Arial, Helvetica, sans-serif" font-size="9" text-anchor="end" font-weight="normal" fill="#1a1a1a">A</text>
<line x1="20" y1="237.75" x2="30" y2="237.75" stroke="#1a1a1a" stroke-width="0.8" />
<line x1="1230" y1="237.75" x2="1240" y2="237.75" stroke="#1a1a1a" stroke-width="0.8" />
<text x="25" y="344.625" font-family="Arial, Helvetica, sans-serif" font-size="9" text-anchor="start" font-weight="normal" fill="#1a1a1a">B</text>
<text x="1235" y="344.625" font-family="Arial, Helvetica, sans-serif" font-size="9" text-anchor="end" font-weight="normal" fill="#1a1a1a">B</text>
<line x1="20" y1="445.5" x2="30" y2="445.5" stroke="#1a1a1a" stroke-width="0.8" />
<line x1="1230" y1="445.5" x2="1240" y2="445.5" stroke="#1a1a1a" stroke-width="0.8" />
<text x="25" y="552.375" font-family="Arial, Helvetica, sans-serif" font-size="9" text-anchor="start" font-weight="normal" fill="#1a1a1a">C</text>
<text x="1235" y="552.375" font-family="Arial, Helvetica, sans-serif" font-size="9" text-anchor="end" font-weight="normal" fill="#1a1a1a">C</text>
<line x1="20" y1="653.25" x2="30" y2="653.25" stroke="#1a1a1a" stroke-width="0.8" />
<line x1="1230" y1="653.25" x2="1240" y2="653.25" stroke="#1a1a1a" stroke-width="0.8" />
<text x="25" y="760.125" font-family="Arial, Helvetica, sans-serif" font-size="9" text-anchor="start" font-weight="normal" fill="#1a1a1a">D</text>
<text x="1235" y="760.125" font-family="Arial, Helvetica, sans-serif" font-size="9" text-anchor="end" font-weight="normal" fill="#1a1a1a">D</text>
<line x1="20" y1="861" x2="30" y2="861" stroke="#1a1a1a" stroke-width="0.8" />
<line x1="1230" y1="861" x2="1240" y2="861" stroke="#1a1a1a" stroke-width="0.8" />
<line x1="630" y1="20" x2="630" y2="14" stroke="#1a1a1a" stroke-width="0.8" />
<line x1="630" y1="871" x2="630" y2="877" stroke="#1a1a1a" stroke-width="0.8" />
<line x1="20" y1="445.5" x2="14" y2="445.5" stroke="#1a1a1a" stroke-width="0.8" />
<line x1="1240" y1="445.5" x2="1246" y2="445.5" stroke="#1a1a1a" stroke-width="0.8" />
<rect x="870" y="701" width="360" height="160" fill="none" stroke="#1a1a1a" stroke-width="2"/>
<line x1="870" y1="741" x2="1230" y2="741" stroke="#1a1a1a" stroke-width="0.8" />
<line x1="870" y1="781" x2="1230" y2="781" stroke="#1a1a1a" stroke-width="0.8" />
<line x1="870" y1="821" x2="1230" y2="821" stroke="#1a1a1a" stroke-width="0.8" />
<line x1="1068" y1="701" x2="1068" y2="741" stroke="#1a1a1a" stroke-width="0.8" />
<text x="874" y="711" font-family="Arial, Helvetica, sans-serif" font-size="7" text-anchor="start" fill="#555">DRAWN BY:</text>
<text x="874" y="729" font-family="Arial, Helvetica, sans-serif" font-size="11" text-anchor="start" font-weight="normal" fill="#1a1a1a">A.Expert</text>
<text x="874" y="737" font-family="Arial, Helvetica, sans-serif" font-size="8" text-anchor="start" font-weight="normal" fill="#1a1a1a">DATE: 2026-05-05</text>
<text x="1072" y="711" font-family="Arial, Helvetica, sans-serif" font-size="7" text-anchor="start" fill="#555">SCALE:</text>
<text x="1072" y="729" font-family="Arial, Helvetica, sans-serif" font-size="14" text-anchor="start" font-weight="bold" fill="#1a1a1a">1:1</text>
<line x1="1068" y1="741" x2="1068" y2="781" stroke="#1a1a1a" stroke-width="0.8" />
<text x="874" y="751" font-family="Arial, Helvetica, sans-serif" font-size="7" text-anchor="start" fill="#555">MATERIAL:</text>
<text x="874" y="767" font-family="Arial, Helvetica, sans-serif" font-size="10" text-anchor="start" font-weight="normal" fill="#1a1a1a">Aço Inoxidável</text>
<text x="1072" y="751" font-family="Arial, Helvetica, sans-serif" font-size="7" text-anchor="start" fill="#555">TITLE:</text>
<text x="1072" y="769" font-family="Arial, Helvetica, sans-serif" font-size="13" text-anchor="start" font-weight="bold" fill="#1a1a1a">STEP BUR 20S MCXL USADA</text>
<line x1="1068" y1="781" x2="1068" y2="821" stroke="#1a1a1a" stroke-width="0.8" />
<text x="874" y="791" font-family="Arial, Helvetica, sans-serif" font-size="7" text-anchor="start" fill="#555">TOLERANCE:</text>
<text x="874" y="807" font-family="Arial, Helvetica, sans-serif" font-size="10" text-anchor="start" font-weight="normal" fill="#1a1a1a">ISO 2768-m</text>
<text x="1072" y="791" font-family="Arial, Helvetica, sans-serif" font-size="7" text-anchor="start" fill="#555">PART NO:</text>
<text x="1072" y="809" font-family="Arial, Helvetica, sans-serif" font-size="13" text-anchor="start" font-weight="bold" fill="#1a1a1a">RONALDO-STEP-20S-MCXL-USADA-PRELIM</text>
<line x1="1140" y1="821" x2="1140" y2="861" stroke="#1a1a1a" stroke-width="0.8" />
<text x="874" y="831" font-family="Arial, Helvetica, sans-serif" font-size="7" text-anchor="start" fill="#555">REV:</text>
<text x="874" y="847" font-family="Arial, Helvetica, sans-serif" font-size="12" text-anchor="start" font-weight="bold" fill="#1a1a1a">A</text>
<text x="1072" y="841" font-family="Arial, Helvetica, sans-serif" font-size="11" text-anchor="start" font-weight="normal" fill="#1a1a1a">ISO</text>
<line x1="1068" y1="821" x2="1068" y2="861" stroke="#1a1a1a" stroke-width="0.8" />
<text x="1144" y="841" font-family="Arial, Helvetica, sans-serif" font-size="11" text-anchor="start" font-weight="bold" fill="#1a1a1a">A3</text>
<circle cx="140.52173913043478" cy="312.54" r="36.52173913043478" fill="none" stroke="#1a1a1a" stroke-width="0.8" stroke-dasharray="4 2"/>
<text x="140.52173913043478" y="246.27913043478262" font-family="Arial, Helvetica, sans-serif" font-size="8" text-anchor="middle" font-weight="normal" fill="#1a1a1a">VER DETALHE &quot;D&quot;</text>
<line x1="90" y1="312.54" x2="753.9999999999999" y2="312.54" stroke="#1a1a1a" stroke-width="0.4" stroke-dasharray="12 3 3 3"/>
<line x1="110" y1="288.8008695652174" x2="171.04347826086956" y2="288.8008695652174" stroke="#1a1a1a" stroke-width="2" />
<line x1="110" y1="336.27913043478264" x2="171.04347826086956" y2="336.27913043478264" stroke="#1a1a1a" stroke-width="2" />
<line x1="110" y1="288.8008695652174" x2="110" y2="336.27913043478264" stroke="#1a1a1a" stroke-width="2" />
<line x1="171.04347826086956" y1="288.8008695652174" x2="171.04347826086956" y2="336.27913043478264" stroke="#1a1a1a" stroke-width="2" />
<polyline points="110,294.8008695652174 112.54347826086956,290.8008695652174 115.08695652173913,294.8008695652174 115.08695652173913,294.8008695652174 117.63043478260869,290.8008695652174 120.17391304347825,294.8008695652174 120.17391304347825,294.8008695652174 122.71739130434781,290.8008695652174 125.26086956521738,294.8008695652174 125.26086956521738,294.8008695652174 127.80434782608694,290.8008695652174 130.3478260869565,294.8008695652174 130.3478260869565,294.8008695652174 132.89130434782606,290.8008695652174 135.43478260869563,294.8008695652174 135.43478260869563,294.8008695652174 137.9782608695652,290.8008695652174 140.52173913043475,294.8008695652174 140.52173913043475,294.8008695652174 143.06521739130432,290.8008695652174 145.60869565217388,294.8008695652174 145.60869565217388,294.8008695652174 148.15217391304344,290.8008695652174 150.695652173913,294.8008695652174 150.695652173913,294.8008695652174 153.23913043478257,290.8008695652174 155.78260869565213,294.8008695652174 155.78260869565213,294.8008695652174 158.3260869565217,290.8008695652174 160.86956521739125,294.8008695652174 160.86956521739125,294.8008695652174 163.41304347826082,290.8008695652174 165.95652173913038,294.8008695652174 165.95652173913038,294.8008695652174 168.49999999999994,290.8008695652174 171.0434782608695,294.8008695652174 171.0434782608695,294.8008695652174 171.04347826086953,290.8008695652174 171.04347826086956,294.8008695652174" fill="none" stroke="#1a1a1a" stroke-width="0.8"/>
<polyline points="110,330.27913043478264 112.54347826086956,334.27913043478264 115.08695652173913,330.27913043478264 115.08695652173913,330.27913043478264 117.63043478260869,334.27913043478264 120.17391304347825,330.27913043478264 120.17391304347825,330.27913043478264 122.71739130434781,334.27913043478264 125.26086956521738,330.27913043478264 125.26086956521738,330.27913043478264 127.80434782608694,334.27913043478264 130.3478260869565,330.27913043478264 130.3478260869565,330.27913043478264 132.89130434782606,334.27913043478264 135.43478260869563,330.27913043478264 135.43478260869563,330.27913043478264 137.9782608695652,334.27913043478264 140.52173913043475,330.27913043478264 140.52173913043475,330.27913043478264 143.06521739130432,334.27913043478264 145.60869565217388,330.27913043478264 145.60869565217388,330.27913043478264 148.15217391304344,334.27913043478264 150.695652173913,330.27913043478264 150.695652173913,330.27913043478264 153.23913043478257,334.27913043478264 155.78260869565213,330.27913043478264 155.78260869565213,330.27913043478264 158.3260869565217,334.27913043478264 160.86956521739125,330.27913043478264 160.86956521739125,330.27913043478264 163.41304347826082,334.27913043478264 165.95652173913038,330.27913043478264 165.95652173913038,330.27913043478264 168.49999999999994,334.27913043478264 171.0434782608695,330.27913043478264 171.0434782608695,330.27913043478264 171.04347826086953,334.27913043478264 171.04347826086956,330.27913043478264" fill="none" stroke="#1a1a1a" stroke-width="0.8"/>
<line x1="171.04347826086956" y1="288.8008695652174" x2="317.54782608695655" y2="288.8008695652174" stroke="#1a1a1a" stroke-width="2" />
<line x1="171.04347826086956" y1="336.27913043478264" x2="317.54782608695655" y2="336.27913043478264" stroke="#1a1a1a" stroke-width="2" />
<line x1="171.04347826086956" y1="288.8008695652174" x2="171.04347826086956" y2="336.27913043478264" stroke="#1a1a1a" stroke-width="2" />
<line x1="317.54782608695655" y1="288.8008695652174" x2="317.54782608695655" y2="336.27913043478264" stroke="#1a1a1a" stroke-width="2" />
<line x1="177.04347826086956" y1="288.8008695652174" x2="171.04347826086956" y2="294.8008695652174" stroke="#1a1a1a" stroke-width="0.3" opacity="0.3"/>
<line x1="183.04347826086956" y1="288.8008695652174" x2="171.04347826086956" y2="300.8008695652174" stroke="#1a1a1a" stroke-width="0.3" opacity="0.3"/>
<line x1="189.04347826086956" y1="288.8008695652174" x2="171.04347826086956" y2="306.8008695652174" stroke="#1a1a1a" stroke-width="0.3" opacity="0.3"/>
<line x1="195.04347826086956" y1="288.8008695652174" x2="171.04347826086956" y2="312.8008695652174" stroke="#1a1a1a" stroke-width="0.3" opacity="0.3"/>
<line x1="201.04347826086956" y1="288.8008695652174" x2="171.04347826086956" y2="318.8008695652174" stroke="#1a1a1a" stroke-width="0.3" opacity="0.3"/>
<line x1="207.04347826086956" y1="288.8008695652174" x2="171.04347826086956" y2="324.8008695652174" stroke="#1a1a1a" stroke-width="0.3" opacity="0.3"/>
<line x1="213.04347826086956" y1="288.8008695652174" x2="171.04347826086956" y2="330.8008695652174" stroke="#1a1a1a" stroke-width="0.3" opacity="0.3"/>
<line x1="219.04347826086956" y1="288.8008695652174" x2="171.56521739130432" y2="336.27913043478264" stroke="#1a1a1a" stroke-width="0.3" opacity="0.3"/>
<line x1="225.04347826086956" y1="288.8008695652174" x2="177.56521739130432" y2="336.27913043478264" stroke="#1a1a1a" stroke-width="0.3" opacity="0.3"/>
<line x1="231.04347826086956" y1="288.8008695652174" x2="183.56521739130432" y2="336.27913043478264" stroke="#1a1a1a" stroke-width="0.3" opacity="0.3"/>
<line x1="237.04347826086956" y1="288.8008695652174" x2="189.56521739130432" y2="336.27913043478264" stroke="#1a1a1a" stroke-width="0.3" opacity="0.3"/>
<line x1="243.04347826086956" y1="288.8008695652174" x2="195.56521739130432" y2="336.27913043478264" stroke="#1a1a1a" stroke-width="0.3" opacity="0.3"/>
<line x1="249.04347826086956" y1="288.8008695652174" x2="201.56521739130432" y2="336.27913043478264" stroke="#1a1a1a" stroke-width="0.3" opacity="0.3"/>
<line x1="255.04347826086956" y1="288.8008695652174" x2="207.56521739130432" y2="336.27913043478264" stroke="#1a1a1a" stroke-width="0.3" opacity="0.3"/>
<line x1="261.04347826086956" y1="288.8008695652174" x2="213.56521739130432" y2="336.27913043478264" stroke="#1a1a1a" stroke-width="0.3" opacity="0.3"/>
<line x1="267.04347826086956" y1="288.8008695652174" x2="219.56521739130432" y2="336.27913043478264" stroke="#1a1a1a" stroke-width="0.3" opacity="0.3"/>
<line x1="273.04347826086956" y1="288.8008695652174" x2="225.56521739130432" y2="336.27913043478264" stroke="#1a1a1a" stroke-width="0.3" opacity="0.3"/>
<line x1="279.04347826086956" y1="288.8008695652174" x2="231.56521739130432" y2="336.27913043478264" stroke="#1a1a1a" stroke-width="0.3" opacity="0.3"/>
<line x1="285.04347826086956" y1="288.8008695652174" x2="237.56521739130432" y2="336.27913043478264" stroke="#1a1a1a" stroke-width="0.3" opacity="0.3"/>
<line x1="291.04347826086956" y1="288.8008695652174" x2="243.56521739130432" y2="336.27913043478264" stroke="#1a1a1a" stroke-width="0.3" opacity="0.3"/>
<line x1="297.04347826086956" y1="288.8008695652174" x2="249.56521739130432" y2="336.27913043478264" stroke="#1a1a1a" stroke-width="0.3" opacity="0.3"/>
<line x1="303.04347826086956" y1="288.8008695652174" x2="255.56521739130432" y2="336.27913043478264" stroke="#1a1a1a" stroke-width="0.3" opacity="0.3"/>
<line x1="309.04347826086956" y1="288.8008695652174" x2="261.5652173913043" y2="336.27913043478264" stroke="#1a1a1a" stroke-width="0.3" opacity="0.3"/>
<line x1="315.04347826086956" y1="288.8008695652174" x2="267.5652173913043" y2="336.27913043478264" stroke="#1a1a1a" stroke-width="0.3" opacity="0.3"/>
<line x1="317.54782608695655" y1="292.2965217391304" x2="273.5652173913043" y2="336.27913043478264" stroke="#1a1a1a" stroke-width="0.3" opacity="0.3"/>
<line x1="317.54782608695655" y1="298.2965217391304" x2="279.5652173913043" y2="336.27913043478264" stroke="#1a1a1a" stroke-width="0.3" opacity="0.3"/>
<line x1="317.54782608695655" y1="304.2965217391304" x2="285.5652173913043" y2="336.27913043478264" stroke="#1a1a1a" stroke-width="0.3" opacity="0.3"/>
<line x1="317.54782608695655" y1="310.2965217391304" x2="291.5652173913043" y2="336.27913043478264" stroke="#1a1a1a" stroke-width="0.3" opacity="0.3"/>
<line x1="317.54782608695655" y1="316.2965217391304" x2="297.5652173913043" y2="336.27913043478264" stroke="#1a1a1a" stroke-width="0.3" opacity="0.3"/>
<line x1="317.54782608695655" y1="322.2965217391304" x2="303.5652173913043" y2="336.27913043478264" stroke="#1a1a1a" stroke-width="0.3" opacity="0.3"/>
<line x1="317.54782608695655" y1="328.2965217391304" x2="309.5652173913043" y2="336.27913043478264" stroke="#1a1a1a" stroke-width="0.3" opacity="0.3"/>
<line x1="317.54782608695655" y1="334.2965217391304" x2="315.5652173913043" y2="336.27913043478264" stroke="#1a1a1a" stroke-width="0.3" opacity="0.3"/>
<line x1="317.54782608695655" y1="287.444347826087" x2="415.21739130434787" y2="268.4530434782609" stroke="#1a1a1a" stroke-width="2" />
<line x1="317.54782608695655" y1="337.63565217391306" x2="415.21739130434787" y2="356.62695652173915" stroke="#1a1a1a" stroke-width="2" />
<line x1="317.54782608695655" y1="287.444347826087" x2="317.54782608695655" y2="337.63565217391306" stroke="#1a1a1a" stroke-width="2" />
<line x1="415.21739130434787" y1="268.4530434782609" x2="415.21739130434787" y2="356.62695652173915" stroke="#1a1a1a" stroke-width="2" />
<line x1="323.54782608695655" y1="268.4530434782609" x2="317.54782608695655" y2="274.4530434782609" stroke="#1a1a1a" stroke-width="0.3" opacity="0.3"/>
<line x1="329.54782608695655" y1="268.4530434782609" x2="317.54782608695655" y2="280.4530434782609" stroke="#1a1a1a" stroke-width="0.3" opacity="0.3"/>
<line x1="335.54782608695655" y1="268.4530434782609" x2="317.54782608695655" y2="286.4530434782609" stroke="#1a1a1a" stroke-width="0.3" opacity="0.3"/>
<line x1="341.54782608695655" y1="268.4530434782609" x2="317.54782608695655" y2="292.4530434782609" stroke="#1a1a1a" stroke-width="0.3" opacity="0.3"/>
<line x1="347.54782608695655" y1="268.4530434782609" x2="317.54782608695655" y2="298.4530434782609" stroke="#1a1a1a" stroke-width="0.3" opacity="0.3"/>
<line x1="353.54782608695655" y1="268.4530434782609" x2="317.54782608695655" y2="304.4530434782609" stroke="#1a1a1a" stroke-width="0.3" opacity="0.3"/>
<line x1="359.54782608695655" y1="268.4530434782609" x2="317.54782608695655" y2="310.4530434782609" stroke="#1a1a1a" stroke-width="0.3" opacity="0.3"/>
<line x1="365.54782608695655" y1="268.4530434782609" x2="317.54782608695655" y2="316.4530434782609" stroke="#1a1a1a" stroke-width="0.3" opacity="0.3"/>
<line x1="371.54782608695655" y1="268.4530434782609" x2="317.54782608695655" y2="322.4530434782609" stroke="#1a1a1a" stroke-width="0.3" opacity="0.3"/>
<line x1="377.54782608695655" y1="268.4530434782609" x2="317.54782608695655" y2="328.4530434782609" stroke="#1a1a1a" stroke-width="0.3" opacity="0.3"/>
<line x1="383.54782608695655" y1="268.4530434782609" x2="317.54782608695655" y2="334.4530434782609" stroke="#1a1a1a" stroke-width="0.3" opacity="0.3"/>
<line x1="389.54782608695655" y1="268.4530434782609" x2="317.54782608695655" y2="340.4530434782609" stroke="#1a1a1a" stroke-width="0.3" opacity="0.3"/>
<line x1="395.54782608695655" y1="268.4530434782609" x2="317.54782608695655" y2="346.4530434782609" stroke="#1a1a1a" stroke-width="0.3" opacity="0.3"/>
<line x1="401.54782608695655" y1="268.4530434782609" x2="317.54782608695655" y2="352.4530434782609" stroke="#1a1a1a" stroke-width="0.3" opacity="0.3"/>
<line x1="407.54782608695655" y1="268.4530434782609" x2="319.3739130434783" y2="356.62695652173915" stroke="#1a1a1a" stroke-width="0.3" opacity="0.3"/>
<line x1="413.54782608695655" y1="268.4530434782609" x2="325.3739130434783" y2="356.62695652173915" stroke="#1a1a1a" stroke-width="0.3" opacity="0.3"/>
<line x1="415.21739130434787" y1="272.7834782608696" x2="331.3739130434783" y2="356.62695652173915" stroke="#1a1a1a" stroke-width="0.3" opacity="0.3"/>
<line x1="415.21739130434787" y1="278.7834782608696" x2="337.3739130434783" y2="356.62695652173915" stroke="#1a1a1a" stroke-width="0.3" opacity="0.3"/>
<line x1="415.21739130434787" y1="284.7834782608696" x2="343.3739130434783" y2="356.62695652173915" stroke="#1a1a1a" stroke-width="0.3" opacity="0.3"/>
<line x1="415.21739130434787" y1="290.7834782608696" x2="349.3739130434783" y2="356.62695652173915" stroke="#1a1a1a" stroke-width="0.3" opacity="0.3"/>
<line x1="415.21739130434787" y1="296.7834782608696" x2="355.3739130434783" y2="356.62695652173915" stroke="#1a1a1a" stroke-width="0.3" opacity="0.3"/>
<line x1="415.21739130434787" y1="302.7834782608696" x2="361.3739130434783" y2="356.62695652173915" stroke="#1a1a1a" stroke-width="0.3" opacity="0.3"/>
<line x1="415.21739130434787" y1="308.7834782608696" x2="367.3739130434783" y2="356.62695652173915" stroke="#1a1a1a" stroke-width="0.3" opacity="0.3"/>
<line x1="415.21739130434787" y1="314.7834782608696" x2="373.3739130434783" y2="356.62695652173915" stroke="#1a1a1a" stroke-width="0.3" opacity="0.3"/>
<line x1="415.21739130434787" y1="320.7834782608696" x2="379.3739130434783" y2="356.62695652173915" stroke="#1a1a1a" stroke-width="0.3" opacity="0.3"/>
<line x1="415.21739130434787" y1="326.7834782608696" x2="385.3739130434783" y2="356.62695652173915" stroke="#1a1a1a" stroke-width="0.3" opacity="0.3"/>
<line x1="415.21739130434787" y1="332.7834782608696" x2="391.3739130434783" y2="356.62695652173915" stroke="#1a1a1a" stroke-width="0.3" opacity="0.3"/>
<line x1="415.21739130434787" y1="338.7834782608696" x2="397.3739130434783" y2="356.62695652173915" stroke="#1a1a1a" stroke-width="0.3" opacity="0.3"/>
<line x1="415.21739130434787" y1="344.7834782608696" x2="403.3739130434783" y2="356.62695652173915" stroke="#1a1a1a" stroke-width="0.3" opacity="0.3"/>
<line x1="415.21739130434787" y1="350.7834782608696" x2="409.3739130434783" y2="356.62695652173915" stroke="#1a1a1a" stroke-width="0.3" opacity="0.3"/>
<line x1="415.21739130434787" y1="268.4530434782609" x2="420.6434782608696" y2="268.4530434782609" stroke="#1a1a1a" stroke-width="2" />
<line x1="415.21739130434787" y1="356.62695652173915" x2="420.6434782608696" y2="356.62695652173915" stroke="#1a1a1a" stroke-width="2" />
<line x1="415.21739130434787" y1="268.4530434782609" x2="415.21739130434787" y2="356.62695652173915" stroke="#1a1a1a" stroke-width="2" />
<line x1="420.6434782608696" y1="268.4530434782609" x2="420.6434782608696" y2="356.62695652173915" stroke="#1a1a1a" stroke-width="2" />
<line x1="420.6434782608696" y1="269.0269565217392" x2="415.21739130434787" y2="274.4530434782609" stroke="#1a1a1a" stroke-width="0.3" opacity="0.3"/>
<line x1="420.6434782608696" y1="275.0269565217392" x2="415.21739130434787" y2="280.4530434782609" stroke="#1a1a1a" stroke-width="0.3" opacity="0.3"/>
<line x1="420.6434782608696" y1="281.0269565217392" x2="415.21739130434787" y2="286.4530434782609" stroke="#1a1a1a" stroke-width="0.3" opacity="0.3"/>
<line x1="420.6434782608696" y1="287.0269565217392" x2="415.21739130434787" y2="292.4530434782609" stroke="#1a1a1a" stroke-width="0.3" opacity="0.3"/>
<line x1="420.6434782608696" y1="293.0269565217392" x2="415.21739130434787" y2="298.4530434782609" stroke="#1a1a1a" stroke-width="0.3" opacity="0.3"/>
<line x1="420.6434782608696" y1="299.0269565217392" x2="415.21739130434787" y2="304.4530434782609" stroke="#1a1a1a" stroke-width="0.3" opacity="0.3"/>
<line x1="420.6434782608696" y1="305.0269565217392" x2="415.21739130434787" y2="310.4530434782609" stroke="#1a1a1a" stroke-width="0.3" opacity="0.3"/>
<line x1="420.6434782608696" y1="311.0269565217392" x2="415.21739130434787" y2="316.4530434782609" stroke="#1a1a1a" stroke-width="0.3" opacity="0.3"/>
<line x1="420.6434782608696" y1="317.0269565217392" x2="415.21739130434787" y2="322.4530434782609" stroke="#1a1a1a" stroke-width="0.3" opacity="0.3"/>
<line x1="420.6434782608696" y1="323.0269565217392" x2="415.21739130434787" y2="328.4530434782609" stroke="#1a1a1a" stroke-width="0.3" opacity="0.3"/>
<line x1="420.6434782608696" y1="329.0269565217392" x2="415.21739130434787" y2="334.4530434782609" stroke="#1a1a1a" stroke-width="0.3" opacity="0.3"/>
<line x1="420.6434782608696" y1="335.0269565217392" x2="415.21739130434787" y2="340.4530434782609" stroke="#1a1a1a" stroke-width="0.3" opacity="0.3"/>
<line x1="420.6434782608696" y1="341.0269565217392" x2="415.21739130434787" y2="346.4530434782609" stroke="#1a1a1a" stroke-width="0.3" opacity="0.3"/>
<line x1="420.6434782608696" y1="347.0269565217392" x2="415.21739130434787" y2="352.4530434782609" stroke="#1a1a1a" stroke-width="0.3" opacity="0.3"/>
<line x1="420.6434782608696" y1="353.0269565217392" x2="417.0434782608696" y2="356.62695652173915" stroke="#1a1a1a" stroke-width="0.3" opacity="0.3"/>
<line x1="420.6434782608696" y1="268.4530434782609" x2="426.0695652173913" y2="268.4530434782609" stroke="#1a1a1a" stroke-width="2" />
<line x1="420.6434782608696" y1="356.62695652173915" x2="426.0695652173913" y2="356.62695652173915" stroke="#1a1a1a" stroke-width="2" />
<line x1="420.6434782608696" y1="268.4530434782609" x2="420.6434782608696" y2="356.62695652173915" stroke="#1a1a1a" stroke-width="2" />
<line x1="426.0695652173913" y1="268.4530434782609" x2="426.0695652173913" y2="356.62695652173915" stroke="#1a1a1a" stroke-width="2" />
<line x1="426.0695652173913" y1="269.0269565217392" x2="420.6434782608696" y2="274.4530434782609" stroke="#1a1a1a" stroke-width="0.3" opacity="0.3"/>
<line x1="426.0695652173913" y1="275.0269565217392" x2="420.6434782608696" y2="280.4530434782609" stroke="#1a1a1a" stroke-width="0.3" opacity="0.3"/>
<line x1="426.0695652173913" y1="281.0269565217392" x2="420.6434782608696" y2="286.4530434782609" stroke="#1a1a1a" stroke-width="0.3" opacity="0.3"/>
<line x1="426.0695652173913" y1="287.0269565217392" x2="420.6434782608696" y2="292.4530434782609" stroke="#1a1a1a" stroke-width="0.3" opacity="0.3"/>
<line x1="426.0695652173913" y1="293.0269565217392" x2="420.6434782608696" y2="298.4530434782609" stroke="#1a1a1a" stroke-width="0.3" opacity="0.3"/>
<line x1="426.0695652173913" y1="299.0269565217392" x2="420.6434782608696" y2="304.4530434782609" stroke="#1a1a1a" stroke-width="0.3" opacity="0.3"/>
<line x1="426.0695652173913" y1="305.0269565217392" x2="420.6434782608696" y2="310.4530434782609" stroke="#1a1a1a" stroke-width="0.3" opacity="0.3"/>
<line x1="426.0695652173913" y1="311.0269565217392" x2="420.6434782608696" y2="316.4530434782609" stroke="#1a1a1a" stroke-width="0.3" opacity="0.3"/>
<line x1="426.0695652173913" y1="317.0269565217392" x2="420.6434782608696" y2="322.4530434782609" stroke="#1a1a1a" stroke-width="0.3" opacity="0.3"/>
<line x1="426.0695652173913" y1="323.0269565217392" x2="420.6434782608696" y2="328.4530434782609" stroke="#1a1a1a" stroke-width="0.3" opacity="0.3"/>
<line x1="426.0695652173913" y1="329.0269565217392" x2="420.6434782608696" y2="334.4530434782609" stroke="#1a1a1a" stroke-width="0.3" opacity="0.3"/>
<line x1="426.0695652173913" y1="335.0269565217392" x2="420.6434782608696" y2="340.4530434782609" stroke="#1a1a1a" stroke-width="0.3" opacity="0.3"/>
<line x1="426.0695652173913" y1="341.0269565217392" x2="420.6434782608696" y2="346.4530434782609" stroke="#1a1a1a" stroke-width="0.3" opacity="0.3"/>
<line x1="426.0695652173913" y1="347.0269565217392" x2="420.6434782608696" y2="352.4530434782609" stroke="#1a1a1a" stroke-width="0.3" opacity="0.3"/>
<line x1="426.0695652173913" y1="353.0269565217392" x2="422.46956521739133" y2="356.62695652173915" stroke="#1a1a1a" stroke-width="0.3" opacity="0.3"/>
<line x1="426.0695652173913" y1="278.62695652173915" x2="442.3478260869565" y2="278.62695652173915" stroke="#1a1a1a" stroke-width="2" />
<line x1="426.0695652173913" y1="346.4530434782609" x2="442.3478260869565" y2="346.4530434782609" stroke="#1a1a1a" stroke-width="2" />
<line x1="426.0695652173913" y1="278.62695652173915" x2="426.0695652173913" y2="346.4530434782609" stroke="#1a1a1a" stroke-width="2" />
<line x1="442.3478260869565" y1="278.62695652173915" x2="442.3478260869565" y2="346.4530434782609" stroke="#1a1a1a" stroke-width="2" />
<line x1="432.0695652173913" y1="278.62695652173915" x2="426.0695652173913" y2="284.62695652173915" stroke="#1a1a1a" stroke-width="0.3" opacity="0.3"/>
<line x1="438.0695652173913" y1="278.62695652173915" x2="426.0695652173913" y2="290.62695652173915" stroke="#1a1a1a" stroke-width="0.3" opacity="0.3"/>
<line x1="442.3478260869565" y1="280.34869565217394" x2="426.0695652173913" y2="296.62695652173915" stroke="#1a1a1a" stroke-width="0.3" opacity="0.3"/>
<line x1="442.3478260869565" y1="286.34869565217394" x2="426.0695652173913" y2="302.62695652173915" stroke="#1a1a1a" stroke-width="0.3" opacity="0.3"/>
<line x1="442.3478260869565" y1="292.34869565217394" x2="426.0695652173913" y2="308.62695652173915" stroke="#1a1a1a" stroke-width="0.3" opacity="0.3"/>
<line x1="442.3478260869565" y1="298.34869565217394" x2="426.0695652173913" y2="314.62695652173915" stroke="#1a1a1a" stroke-width="0.3" opacity="0.3"/>
<line x1="442.3478260869565" y1="304.34869565217394" x2="426.0695652173913" y2="320.62695652173915" stroke="#1a1a1a" stroke-width="0.3" opacity="0.3"/>
<line x1="442.3478260869565" y1="310.34869565217394" x2="426.0695652173913" y2="326.62695652173915" stroke="#1a1a1a" stroke-width="0.3" opacity="0.3"/>
<line x1="442.3478260869565" y1="316.34869565217394" x2="426.0695652173913" y2="332.62695652173915" stroke="#1a1a1a" stroke-width="0.3" opacity="0.3"/>
<line x1="442.3478260869565" y1="322.34869565217394" x2="426.0695652173913" y2="338.62695652173915" stroke="#1a1a1a" stroke-width="0.3" opacity="0.3"/>
<line x1="442.3478260869565" y1="328.34869565217394" x2="426.0695652173913" y2="344.62695652173915" stroke="#1a1a1a" stroke-width="0.3" opacity="0.3"/>
<line x1="442.3478260869565" y1="334.34869565217394" x2="430.24347826086955" y2="346.4530434782609" stroke="#1a1a1a" stroke-width="0.3" opacity="0.3"/>
<line x1="442.3478260869565" y1="340.34869565217394" x2="436.24347826086955" y2="346.4530434782609" stroke="#1a1a1a" stroke-width="0.3" opacity="0.3"/>
<line x1="442.3478260869565" y1="346.34869565217394" x2="442.24347826086955" y2="346.4530434782609" stroke="#1a1a1a" stroke-width="0.3" opacity="0.3"/>
<line x1="442.3478260869565" y1="296.6008695652174" x2="516.9565217391304" y2="296.6008695652174" stroke="#1a1a1a" stroke-width="2" />
<line x1="442.3478260869565" y1="328.47913043478263" x2="516.9565217391304" y2="328.47913043478263" stroke="#1a1a1a" stroke-width="2" />
<line x1="442.3478260869565" y1="296.6008695652174" x2="442.3478260869565" y2="328.47913043478263" stroke="#1a1a1a" stroke-width="2" />
<line x1="516.9565217391304" y1="296.6008695652174" x2="516.9565217391304" y2="328.47913043478263" stroke="#1a1a1a" stroke-width="2" />
<line x1="448.3478260869565" y1="296.6008695652174" x2="442.3478260869565" y2="302.6008695652174" stroke="#1a1a1a" stroke-width="0.3" opacity="0.3"/>
<line x1="454.3478260869565" y1="296.6008695652174" x2="442.3478260869565" y2="308.6008695652174" stroke="#1a1a1a" stroke-width="0.3" opacity="0.3"/>
<line x1="460.3478260869565" y1="296.6008695652174" x2="442.3478260869565" y2="314.6008695652174" stroke="#1a1a1a" stroke-width="0.3" opacity="0.3"/>
<line x1="466.3478260869565" y1="296.6008695652174" x2="442.3478260869565" y2="320.6008695652174" stroke="#1a1a1a" stroke-width="0.3" opacity="0.3"/>
<line x1="472.3478260869565" y1="296.6008695652174" x2="442.3478260869565" y2="326.6008695652174" stroke="#1a1a1a" stroke-width="0.3" opacity="0.3"/>
<line x1="478.3478260869565" y1="296.6008695652174" x2="446.4695652173913" y2="328.47913043478263" stroke="#1a1a1a" stroke-width="0.3" opacity="0.3"/>
<line x1="484.3478260869565" y1="296.6008695652174" x2="452.4695652173913" y2="328.47913043478263" stroke="#1a1a1a" stroke-width="0.3" opacity="0.3"/>
<line x1="490.3478260869565" y1="296.6008695652174" x2="458.4695652173913" y2="328.47913043478263" stroke="#1a1a1a" stroke-width="0.3" opacity="0.3"/>
<line x1="496.3478260869565" y1="296.6008695652174" x2="464.4695652173913" y2="328.47913043478263" stroke="#1a1a1a" stroke-width="0.3" opacity="0.3"/>
<line x1="502.3478260869565" y1="296.6008695652174" x2="470.4695652173913" y2="328.47913043478263" stroke="#1a1a1a" stroke-width="0.3" opacity="0.3"/>
<line x1="508.3478260869565" y1="296.6008695652174" x2="476.4695652173913" y2="328.47913043478263" stroke="#1a1a1a" stroke-width="0.3" opacity="0.3"/>
<line x1="514.3478260869565" y1="296.6008695652174" x2="482.4695652173913" y2="328.47913043478263" stroke="#1a1a1a" stroke-width="0.3" opacity="0.3"/>
<line x1="516.9565217391304" y1="299.99217391304353" x2="488.4695652173913" y2="328.47913043478263" stroke="#1a1a1a" stroke-width="0.3" opacity="0.3"/>
<line x1="516.9565217391304" y1="305.99217391304353" x2="494.4695652173913" y2="328.47913043478263" stroke="#1a1a1a" stroke-width="0.3" opacity="0.3"/>
<line x1="516.9565217391304" y1="311.99217391304353" x2="500.4695652173913" y2="328.47913043478263" stroke="#1a1a1a" stroke-width="0.3" opacity="0.3"/>
<line x1="516.9565217391304" y1="317.99217391304353" x2="506.4695652173913" y2="328.47913043478263" stroke="#1a1a1a" stroke-width="0.3" opacity="0.3"/>
<line x1="516.9565217391304" y1="323.99217391304353" x2="512.4695652173913" y2="328.47913043478263" stroke="#1a1a1a" stroke-width="0.3" opacity="0.3"/>
<line x1="516.9565217391304" y1="297.9573913043478" x2="571.2173913043478" y2="297.9573913043478" stroke="#1a1a1a" stroke-width="2" />
<line x1="516.9565217391304" y1="327.1226086956522" x2="571.2173913043478" y2="327.1226086956522" stroke="#1a1a1a" stroke-width="2" />
<line x1="516.9565217391304" y1="297.9573913043478" x2="516.9565217391304" y2="327.1226086956522" stroke="#1a1a1a" stroke-width="2" />
<line x1="571.2173913043478" y1="297.9573913043478" x2="571.2173913043478" y2="327.1226086956522" stroke="#1a1a1a" stroke-width="2" />
<line x1="522.9565217391304" y1="297.9573913043478" x2="516.9565217391304" y2="303.9573913043478" stroke="#1a1a1a" stroke-width="0.3" opacity="0.3"/>
<line x1="528.9565217391304" y1="297.9573913043478" x2="516.9565217391304" y2="309.9573913043478" stroke="#1a1a1a" stroke-width="0.3" opacity="0.3"/>
<line x1="534.9565217391304" y1="297.9573913043478" x2="516.9565217391304" y2="315.9573913043478" stroke="#1a1a1a" stroke-width="0.3" opacity="0.3"/>
<line x1="540.9565217391304" y1="297.9573913043478" x2="516.9565217391304" y2="321.9573913043478" stroke="#1a1a1a" stroke-width="0.3" opacity="0.3"/>
<line x1="546.9565217391304" y1="297.9573913043478" x2="517.791304347826" y2="327.1226086956522" stroke="#1a1a1a" stroke-width="0.3" opacity="0.3"/>
<line x1="552.9565217391304" y1="297.9573913043478" x2="523.791304347826" y2="327.1226086956522" stroke="#1a1a1a" stroke-width="0.3" opacity="0.3"/>
<line x1="558.9565217391304" y1="297.9573913043478" x2="529.791304347826" y2="327.1226086956522" stroke="#1a1a1a" stroke-width="0.3" opacity="0.3"/>
<line x1="564.9565217391304" y1="297.9573913043478" x2="535.791304347826" y2="327.1226086956522" stroke="#1a1a1a" stroke-width="0.3" opacity="0.3"/>
<line x1="570.9565217391304" y1="297.9573913043478" x2="541.791304347826" y2="327.1226086956522" stroke="#1a1a1a" stroke-width="0.3" opacity="0.3"/>
<line x1="571.2173913043478" y1="303.69652173913045" x2="547.791304347826" y2="327.1226086956522" stroke="#1a1a1a" stroke-width="0.3" opacity="0.3"/>
<line x1="571.2173913043478" y1="309.69652173913045" x2="553.791304347826" y2="327.1226086956522" stroke="#1a1a1a" stroke-width="0.3" opacity="0.3"/>
<line x1="571.2173913043478" y1="315.69652173913045" x2="559.791304347826" y2="327.1226086956522" stroke="#1a1a1a" stroke-width="0.3" opacity="0.3"/>
<line x1="571.2173913043478" y1="321.69652173913045" x2="565.791304347826" y2="327.1226086956522" stroke="#1a1a1a" stroke-width="0.3" opacity="0.3"/>
<line x1="571.2173913043478" y1="300.6704347826087" x2="625.4782608695651" y2="300.6704347826087" stroke="#1a1a1a" stroke-width="2" />
<line x1="571.2173913043478" y1="324.40956521739133" x2="625.4782608695651" y2="324.40956521739133" stroke="#1a1a1a" stroke-width="2" />
<line x1="571.2173913043478" y1="300.6704347826087" x2="571.2173913043478" y2="324.40956521739133" stroke="#1a1a1a" stroke-width="2" />
<line x1="625.4782608695651" y1="300.6704347826087" x2="625.4782608695651" y2="324.40956521739133" stroke="#1a1a1a" stroke-width="2" />
<line x1="577.2173913043478" y1="300.6704347826087" x2="571.2173913043478" y2="306.6704347826087" stroke="#1a1a1a" stroke-width="0.3" opacity="0.3"/>
<line x1="583.2173913043478" y1="300.6704347826087" x2="571.2173913043478" y2="312.6704347826087" stroke="#1a1a1a" stroke-width="0.3" opacity="0.3"/>
<line x1="589.2173913043478" y1="300.6704347826087" x2="571.2173913043478" y2="318.6704347826087" stroke="#1a1a1a" stroke-width="0.3" opacity="0.3"/>
<line x1="595.2173913043478" y1="300.6704347826087" x2="571.4782608695651" y2="324.40956521739133" stroke="#1a1a1a" stroke-width="0.3" opacity="0.3"/>
<line x1="601.2173913043478" y1="300.6704347826087" x2="577.4782608695651" y2="324.40956521739133" stroke="#1a1a1a" stroke-width="0.3" opacity="0.3"/>
<line x1="607.2173913043478" y1="300.6704347826087" x2="583.4782608695651" y2="324.40956521739133" stroke="#1a1a1a" stroke-width="0.3" opacity="0.3"/>
<line x1="613.2173913043478" y1="300.6704347826087" x2="589.4782608695651" y2="324.40956521739133" stroke="#1a1a1a" stroke-width="0.3" opacity="0.3"/>
<line x1="619.2173913043478" y1="300.6704347826087" x2="595.4782608695651" y2="324.40956521739133" stroke="#1a1a1a" stroke-width="0.3" opacity="0.3"/>
<line x1="625.2173913043478" y1="300.6704347826087" x2="601.4782608695651" y2="324.40956521739133" stroke="#1a1a1a" stroke-width="0.3" opacity="0.3"/>
<line x1="625.4782608695651" y1="306.40956521739133" x2="607.4782608695651" y2="324.40956521739133" stroke="#1a1a1a" stroke-width="0.3" opacity="0.3"/>
<line x1="625.4782608695651" y1="312.40956521739133" x2="613.4782608695651" y2="324.40956521739133" stroke="#1a1a1a" stroke-width="0.3" opacity="0.3"/>
<line x1="625.4782608695651" y1="318.40956521739133" x2="619.4782608695651" y2="324.40956521739133" stroke="#1a1a1a" stroke-width="0.3" opacity="0.3"/>
<line x1="625.4782608695651" y1="324.40956521739133" x2="625.4782608695651" y2="324.40956521739133" stroke="#1a1a1a" stroke-width="0.3" opacity="0.3"/>
<line x1="625.4782608695651" y1="303.3834782608696" x2="679.7391304347825" y2="303.3834782608696" stroke="#1a1a1a" stroke-width="2" />
<line x1="625.4782608695651" y1="321.69652173913045" x2="679.7391304347825" y2="321.69652173913045" stroke="#1a1a1a" stroke-width="2" />
<line x1="625.4782608695651" y1="303.3834782608696" x2="625.4782608695651" y2="321.69652173913045" stroke="#1a1a1a" stroke-width="2" />
<line x1="679.7391304347825" y1="303.3834782608696" x2="679.7391304347825" y2="321.69652173913045" stroke="#1a1a1a" stroke-width="2" />
<line x1="631.4782608695651" y1="303.3834782608696" x2="625.4782608695651" y2="309.3834782608696" stroke="#1a1a1a" stroke-width="0.3" opacity="0.3"/>
<line x1="637.4782608695651" y1="303.3834782608696" x2="625.4782608695651" y2="315.3834782608696" stroke="#1a1a1a" stroke-width="0.3" opacity="0.3"/>
<line x1="643.4782608695651" y1="303.3834782608696" x2="625.4782608695651" y2="321.3834782608696" stroke="#1a1a1a" stroke-width="0.3" opacity="0.3"/>
<line x1="649.4782608695651" y1="303.3834782608696" x2="631.1652173913043" y2="321.69652173913045" stroke="#1a1a1a" stroke-width="0.3" opacity="0.3"/>
<line x1="655.4782608695651" y1="303.3834782608696" x2="637.1652173913043" y2="321.69652173913045" stroke="#1a1a1a" stroke-width="0.3" opacity="0.3"/>
<line x1="661.4782608695651" y1="303.3834782608696" x2="643.1652173913043" y2="321.69652173913045" stroke="#1a1a1a" stroke-width="0.3" opacity="0.3"/>
<line x1="667.4782608695651" y1="303.3834782608696" x2="649.1652173913043" y2="321.69652173913045" stroke="#1a1a1a" stroke-width="0.3" opacity="0.3"/>
<line x1="673.4782608695651" y1="303.3834782608696" x2="655.1652173913043" y2="321.69652173913045" stroke="#1a1a1a" stroke-width="0.3" opacity="0.3"/>
<line x1="679.4782608695651" y1="303.3834782608696" x2="661.1652173913043" y2="321.69652173913045" stroke="#1a1a1a" stroke-width="0.3" opacity="0.3"/>
<line x1="679.7391304347825" y1="309.1226086956522" x2="667.1652173913043" y2="321.69652173913045" stroke="#1a1a1a" stroke-width="0.3" opacity="0.3"/>
<line x1="679.7391304347825" y1="315.1226086956522" x2="673.1652173913043" y2="321.69652173913045" stroke="#1a1a1a" stroke-width="0.3" opacity="0.3"/>
<line x1="679.7391304347825" y1="321.1226086956522" x2="679.1652173913043" y2="321.69652173913045" stroke="#1a1a1a" stroke-width="0.3" opacity="0.3"/>
<line x1="679.7391304347825" y1="305.75739130434783" x2="733.9999999999999" y2="305.75739130434783" stroke="#1a1a1a" stroke-width="2" />
<line x1="679.7391304347825" y1="319.3226086956522" x2="733.9999999999999" y2="319.3226086956522" stroke="#1a1a1a" stroke-width="2" />
<line x1="679.7391304347825" y1="305.75739130434783" x2="679.7391304347825" y2="319.3226086956522" stroke="#1a1a1a" stroke-width="2" />
<line x1="733.9999999999999" y1="305.75739130434783" x2="733.9999999999999" y2="319.3226086956522" stroke="#1a1a1a" stroke-width="2" />
<line x1="685.7391304347825" y1="305.75739130434783" x2="679.7391304347825" y2="311.75739130434783" stroke="#1a1a1a" stroke-width="0.3" opacity="0.3"/>
<line x1="691.7391304347825" y1="305.75739130434783" x2="679.7391304347825" y2="317.75739130434783" stroke="#1a1a1a" stroke-width="0.3" opacity="0.3"/>
<line x1="697.7391304347825" y1="305.75739130434783" x2="684.1739130434781" y2="319.3226086956522" stroke="#1a1a1a" stroke-width="0.3" opacity="0.3"/>
<line x1="703.7391304347825" y1="305.75739130434783" x2="690.1739130434781" y2="319.3226086956522" stroke="#1a1a1a" stroke-width="0.3" opacity="0.3"/>
<line x1="709.7391304347825" y1="305.75739130434783" x2="696.1739130434781" y2="319.3226086956522" stroke="#1a1a1a" stroke-width="0.3" opacity="0.3"/>
<line x1="715.7391304347825" y1="305.75739130434783" x2="702.1739130434781" y2="319.3226086956522" stroke="#1a1a1a" stroke-width="0.3" opacity="0.3"/>
<line x1="721.7391304347825" y1="305.75739130434783" x2="708.1739130434781" y2="319.3226086956522" stroke="#1a1a1a" stroke-width="0.3" opacity="0.3"/>
<line x1="727.7391304347825" y1="305.75739130434783" x2="714.1739130434781" y2="319.3226086956522" stroke="#1a1a1a" stroke-width="0.3" opacity="0.3"/>
<line x1="733.7391304347825" y1="305.75739130434783" x2="720.1739130434781" y2="319.3226086956522" stroke="#1a1a1a" stroke-width="0.3" opacity="0.3"/>
<line x1="733.9999999999999" y1="311.49652173913046" x2="726.1739130434781" y2="319.3226086956522" stroke="#1a1a1a" stroke-width="0.3" opacity="0.3"/>
<line x1="733.9999999999999" y1="317.49652173913046" x2="732.1739130434781" y2="319.3226086956522" stroke="#1a1a1a" stroke-width="0.3" opacity="0.3"/>
<text x="421.99999999999994" y="406.62695652173915" font-family="Arial, Helvetica, sans-serif" font-size="11" text-anchor="middle" font-weight="bold" fill="#1a1a1a">A) MAIN CROSS-SECTION VIEW (FRONTA)</text>
<line x1="110" y1="338.27913043478264" x2="110" y2="376.62695652173915" stroke="#1a1a1a" stroke-width="0.6" />
<line x1="171.04347826086956" y1="338.27913043478264" x2="171.04347826086956" y2="376.62695652173915" stroke="#1a1a1a" stroke-width="0.6" />
<line x1="110" y1="372.62695652173915" x2="171.04347826086956" y2="372.62695652173915" stroke="#1a1a1a" stroke-width="0.6" marker-start="url(#dim-arrow-l)" marker-end="url(#dim-arrow-r)"/>
<text x="140.52173913043478" y="369.62695652173915" font-family="Arial, Helvetica, sans-serif" font-size="8" text-anchor="middle" font-weight="normal" fill="#1a1a1a">4,50</text>
<line x1="171.04347826086956" y1="338.27913043478264" x2="171.04347826086956" y2="396.62695652173915" stroke="#1a1a1a" stroke-width="0.6" />
<line x1="317.54782608695655" y1="338.27913043478264" x2="317.54782608695655" y2="396.62695652173915" stroke="#1a1a1a" stroke-width="0.6" />
<line x1="171.04347826086956" y1="392.62695652173915" x2="317.54782608695655" y2="392.62695652173915" stroke="#1a1a1a" stroke-width="0.6" marker-start="url(#dim-arrow-l)" marker-end="url(#dim-arrow-r)"/>
<text x="244.29565217391306" y="389.62695652173915" font-family="Arial, Helvetica, sans-serif" font-size="8" text-anchor="middle" font-weight="normal" fill="#1a1a1a">10,80</text>
<line x1="317.54782608695655" y1="339.63565217391306" x2="317.54782608695655" y2="416.62695652173915" stroke="#1a1a1a" stroke-width="0.6" />
<line x1="415.21739130434787" y1="358.62695652173915" x2="415.21739130434787" y2="416.62695652173915" stroke="#1a1a1a" stroke-width="0.6" />
<line x1="317.54782608695655" y1="412.62695652173915" x2="415.21739130434787" y2="412.62695652173915" stroke="#1a1a1a" stroke-width="0.6" marker-start="url(#dim-arrow-l)" marker-end="url(#dim-arrow-r)"/>
<text x="366.3826086956522" y="409.62695652173915" font-family="Arial, Helvetica, sans-serif" font-size="8" text-anchor="middle" font-weight="normal" fill="#1a1a1a">7,20</text>
<line x1="415.21739130434787" y1="358.62695652173915" x2="415.21739130434787" y2="376.62695652173915" stroke="#1a1a1a" stroke-width="0.6" />
<line x1="420.6434782608696" y1="358.62695652173915" x2="420.6434782608696" y2="376.62695652173915" stroke="#1a1a1a" stroke-width="0.6" />
<line x1="415.21739130434787" y1="372.62695652173915" x2="420.6434782608696" y2="372.62695652173915" stroke="#1a1a1a" stroke-width="0.6" marker-start="url(#dim-arrow-l)" marker-end="url(#dim-arrow-r)"/>
<text x="417.9304347826087" y="369.62695652173915" font-family="Arial, Helvetica, sans-serif" font-size="8" text-anchor="middle" font-weight="normal" fill="#1a1a1a">0,40</text>
<line x1="420.6434782608696" y1="358.62695652173915" x2="420.6434782608696" y2="396.62695652173915" stroke="#1a1a1a" stroke-width="0.6" />
<line x1="426.0695652173913" y1="358.62695652173915" x2="426.0695652173913" y2="396.62695652173915" stroke="#1a1a1a" stroke-width="0.6" />
<line x1="420.6434782608696" y1="392.62695652173915" x2="426.0695652173913" y2="392.62695652173915" stroke="#1a1a1a" stroke-width="0.6" marker-start="url(#dim-arrow-l)" marker-end="url(#dim-arrow-r)"/>
<text x="423.35652173913047" y="389.62695652173915" font-family="Arial, Helvetica, sans-serif" font-size="8" text-anchor="middle" font-weight="normal" fill="#1a1a1a">0,40</text>
<line x1="426.0695652173913" y1="348.4530434782609" x2="426.0695652173913" y2="416.62695652173915" stroke="#1a1a1a" stroke-width="0.6" />
<line x1="442.3478260869565" y1="348.4530434782609" x2="442.3478260869565" y2="416.62695652173915" stroke="#1a1a1a" stroke-width="0.6" />
<line x1="426.0695652173913" y1="412.62695652173915" x2="442.3478260869565" y2="412.62695652173915" stroke="#1a1a1a" stroke-width="0.6" marker-start="url(#dim-arrow-l)" marker-end="url(#dim-arrow-r)"/>
<text x="434.2086956521739" y="409.62695652173915" font-family="Arial, Helvetica, sans-serif" font-size="8" text-anchor="middle" font-weight="normal" fill="#1a1a1a">1,20</text>
<line x1="442.3478260869565" y1="330.47913043478263" x2="442.3478260869565" y2="376.62695652173915" stroke="#1a1a1a" stroke-width="0.6" />
<line x1="516.9565217391304" y1="330.47913043478263" x2="516.9565217391304" y2="376.62695652173915" stroke="#1a1a1a" stroke-width="0.6" />
<line x1="442.3478260869565" y1="372.62695652173915" x2="516.9565217391304" y2="372.62695652173915" stroke="#1a1a1a" stroke-width="0.6" marker-start="url(#dim-arrow-l)" marker-end="url(#dim-arrow-r)"/>
<text x="479.65217391304344" y="369.62695652173915" font-family="Arial, Helvetica, sans-serif" font-size="8" text-anchor="middle" font-weight="normal" fill="#1a1a1a">5,50</text>
<line x1="516.9565217391304" y1="329.1226086956522" x2="516.9565217391304" y2="396.62695652173915" stroke="#1a1a1a" stroke-width="0.6" />
<line x1="571.2173913043478" y1="329.1226086956522" x2="571.2173913043478" y2="396.62695652173915" stroke="#1a1a1a" stroke-width="0.6" />
<line x1="516.9565217391304" y1="392.62695652173915" x2="571.2173913043478" y2="392.62695652173915" stroke="#1a1a1a" stroke-width="0.6" marker-start="url(#dim-arrow-l)" marker-end="url(#dim-arrow-r)"/>
<text x="544.086956521739" y="389.62695652173915" font-family="Arial, Helvetica, sans-serif" font-size="8" text-anchor="middle" font-weight="normal" fill="#1a1a1a">4</text>
<line x1="571.2173913043478" y1="326.40956521739133" x2="571.2173913043478" y2="416.62695652173915" stroke="#1a1a1a" stroke-width="0.6" />
<line x1="625.4782608695651" y1="326.40956521739133" x2="625.4782608695651" y2="416.62695652173915" stroke="#1a1a1a" stroke-width="0.6" />
<line x1="571.2173913043478" y1="412.62695652173915" x2="625.4782608695651" y2="412.62695652173915" stroke="#1a1a1a" stroke-width="0.6" marker-start="url(#dim-arrow-l)" marker-end="url(#dim-arrow-r)"/>
<text x="598.3478260869565" y="409.62695652173915" font-family="Arial, Helvetica, sans-serif" font-size="8" text-anchor="middle" font-weight="normal" fill="#1a1a1a">4</text>
<line x1="625.4782608695651" y1="323.69652173913045" x2="625.4782608695651" y2="376.62695652173915" stroke="#1a1a1a" stroke-width="0.6" />
<line x1="679.7391304347825" y1="323.69652173913045" x2="679.7391304347825" y2="376.62695652173915" stroke="#1a1a1a" stroke-width="0.6" />
<line x1="625.4782608695651" y1="372.62695652173915" x2="679.7391304347825" y2="372.62695652173915" stroke="#1a1a1a" stroke-width="0.6" marker-start="url(#dim-arrow-l)" marker-end="url(#dim-arrow-r)"/>
<text x="652.6086956521738" y="369.62695652173915" font-family="Arial, Helvetica, sans-serif" font-size="8" text-anchor="middle" font-weight="normal" fill="#1a1a1a">4</text>
<line x1="679.7391304347825" y1="321.3226086956522" x2="679.7391304347825" y2="396.62695652173915" stroke="#1a1a1a" stroke-width="0.6" />
<line x1="733.9999999999999" y1="321.3226086956522" x2="733.9999999999999" y2="396.62695652173915" stroke="#1a1a1a" stroke-width="0.6" />
<line x1="679.7391304347825" y1="392.62695652173915" x2="733.9999999999999" y2="392.62695652173915" stroke="#1a1a1a" stroke-width="0.6" marker-start="url(#dim-arrow-l)" marker-end="url(#dim-arrow-r)"/>
<text x="706.8695652173913" y="389.62695652173915" font-family="Arial, Helvetica, sans-serif" font-size="8" text-anchor="middle" font-weight="normal" fill="#1a1a1a">4</text>
<line x1="110" y1="358.62695652173915" x2="110" y2="448.62695652173915" stroke="#1a1a1a" stroke-width="0.6" />
<line x1="733.9999999999999" y1="358.62695652173915" x2="733.9999999999999" y2="448.62695652173915" stroke="#1a1a1a" stroke-width="0.6" />
<line x1="110" y1="444.62695652173915" x2="733.9999999999999" y2="444.62695652173915" stroke="#1a1a1a" stroke-width="0.6" marker-start="url(#dim-arrow-l)" marker-end="url(#dim-arrow-r)"/>
<text x="421.99999999999994" y="441.62695652173915" font-family="Arial, Helvetica, sans-serif" font-size="9" text-anchor="middle" font-weight="bold" fill="#1a1a1a">46</text>
<line x1="140.52173913043478" y1="288.8008695652174" x2="140.52173913043478" y2="258.4530434782609" stroke="#1a1a1a" stroke-width="0.6" />
<text x="140.52173913043478" y="254.4530434782609" font-family="Arial, Helvetica, sans-serif" font-size="8" text-anchor="middle" font-weight="normal" fill="#1a1a1a">M3,5 x 0,35</text>
<line x1="244.29565217391306" y1="288.8008695652174" x2="244.29565217391306" y2="238.4530434782609" stroke="#1a1a1a" stroke-width="0.6" />
<text x="244.29565217391306" y="234.4530434782609" font-family="Arial, Helvetica, sans-serif" font-size="8" text-anchor="middle" font-weight="normal" fill="#1a1a1a">Ø3,50</text>
<line x1="366.3826086956522" y1="268.4530434782609" x2="366.3826086956522" y2="244.4530434782609" stroke="#1a1a1a" stroke-width="0.6" />
<text x="366.3826086956522" y="240.4530434782609" font-family="Arial, Helvetica, sans-serif" font-size="8" text-anchor="middle" font-weight="normal" fill="#1a1a1a">Ø3,70 → Ø6,50</text>
<line x1="417.9304347826087" y1="268.4530434782609" x2="417.9304347826087" y2="224.4530434782609" stroke="#1a1a1a" stroke-width="0.6" />
<text x="417.9304347826087" y="220.4530434782609" font-family="Arial, Helvetica, sans-serif" font-size="8" text-anchor="middle" font-weight="normal" fill="#1a1a1a">Ø6,50</text>
<line x1="423.35652173913047" y1="268.4530434782609" x2="423.35652173913047" y2="230.4530434782609" stroke="#1a1a1a" stroke-width="0.6" />
<text x="423.35652173913047" y="226.4530434782609" font-family="Arial, Helvetica, sans-serif" font-size="8" text-anchor="middle" font-weight="normal" fill="#1a1a1a">Ø6,50</text>
<line x1="434.2086956521739" y1="278.62695652173915" x2="434.2086956521739" y2="210.4530434782609" stroke="#1a1a1a" stroke-width="0.6" />
<text x="434.2086956521739" y="206.4530434782609" font-family="Arial, Helvetica, sans-serif" font-size="8" text-anchor="middle" font-weight="normal" fill="#1a1a1a">Ø5</text>
<line x1="479.65217391304344" y1="296.6008695652174" x2="479.65217391304344" y2="216.4530434782609" stroke="#1a1a1a" stroke-width="0.6" />
<text x="479.65217391304344" y="212.4530434782609" font-family="Arial, Helvetica, sans-serif" font-size="8" text-anchor="middle" font-weight="normal" fill="#1a1a1a">Ø2,35</text>
<line x1="544.086956521739" y1="297.9573913043478" x2="544.086956521739" y2="196.4530434782609" stroke="#1a1a1a" stroke-width="0.6" />
<text x="544.086956521739" y="192.4530434782609" font-family="Arial, Helvetica, sans-serif" font-size="8" text-anchor="middle" font-weight="normal" fill="#1a1a1a">Ø2,15</text>
<line x1="598.3478260869565" y1="300.6704347826087" x2="598.3478260869565" y2="202.4530434782609" stroke="#1a1a1a" stroke-width="0.6" />
<text x="598.3478260869565" y="198.4530434782609" font-family="Arial, Helvetica, sans-serif" font-size="8" text-anchor="middle" font-weight="normal" fill="#1a1a1a">Ø1,75</text>
<line x1="652.6086956521738" y1="303.3834782608696" x2="652.6086956521738" y2="182.4530434782609" stroke="#1a1a1a" stroke-width="0.6" />
<text x="652.6086956521738" y="178.4530434782609" font-family="Arial, Helvetica, sans-serif" font-size="8" text-anchor="middle" font-weight="normal" fill="#1a1a1a">Ø1,35</text>
<line x1="706.8695652173913" y1="305.75739130434783" x2="706.8695652173913" y2="188.4530434782609" stroke="#1a1a1a" stroke-width="0.6" />
<text x="706.8695652173913" y="184.4530434782609" font-family="Arial, Helvetica, sans-serif" font-size="8" text-anchor="middle" font-weight="normal" fill="#1a1a1a">Ø1</text>
<circle cx="1090" cy="110" r="44.08695652173913" fill="none" stroke="#1a1a1a" stroke-width="2"/>
<line x1="1033.9130434782608" y1="110" x2="1146.0869565217392" y2="110" stroke="#1a1a1a" stroke-width="0.4" stroke-dasharray="12 3 3 3"/>
<line x1="1090" y1="53.913043478260875" x2="1090" y2="166.08695652173913" stroke="#1a1a1a" stroke-width="0.4" stroke-dasharray="12 3 3 3"/>
<text x="1090" y="202.08695652173913" font-family="Arial, Helvetica, sans-serif" font-size="10" text-anchor="middle" font-weight="bold" fill="#1a1a1a">B) TOP VIEW</text>
<line x1="895.0608695652174" y1="419.3895652173913" x2="1004.9391304347826" y2="419.3895652173913" stroke="#1a1a1a" stroke-width="2" />
<line x1="895.0608695652174" y1="504.8504347826087" x2="1004.9391304347826" y2="504.8504347826087" stroke="#1a1a1a" stroke-width="2" />
<line x1="895.0608695652174" y1="419.3895652173913" x2="895.0608695652174" y2="504.8504347826087" stroke="#1a1a1a" stroke-width="2" />
<line x1="1004.9391304347826" y1="419.3895652173913" x2="1004.9391304347826" y2="504.8504347826087" stroke="#1a1a1a" stroke-width="2" />
<line x1="885.0608695652174" y1="462.12" x2="1014.9391304347826" y2="462.12" stroke="#1a1a1a" stroke-width="0.4" stroke-dasharray="12 3 3 3"/>
<polyline points="895.0608695652174,424.3895652173913 900.5547826086956,421.3895652173913 906.0486956521739,424.3895652173913 906.0486956521739,424.3895652173913 911.5426086956522,421.3895652173913 917.0365217391304,424.3895652173913 917.0365217391304,424.3895652173913 922.5304347826086,421.3895652173913 928.0243478260869,424.3895652173913 928.0243478260869,424.3895652173913 933.5182608695652,421.3895652173913 939.0121739130434,424.3895652173913 939.0121739130434,424.3895652173913 944.5060869565216,421.3895652173913 949.9999999999999,424.3895652173913 949.9999999999999,424.3895652173913 955.4939130434782,421.3895652173913 960.9878260869564,424.3895652173913 960.9878260869564,424.3895652173913 966.4817391304346,421.3895652173913 971.9756521739129,424.3895652173913 971.9756521739129,424.3895652173913 977.4695652173912,421.3895652173913 982.9634782608694,424.3895652173913 982.9634782608694,424.3895652173913 988.4573913043475,421.3895652173913 993.9513043478258,424.3895652173913 993.9513043478258,424.3895652173913 999.4452173913041,421.3895652173913 1004.9391304347823,424.3895652173913 1004.9391304347823,424.3895652173913 1004.9391304347824,421.3895652173913 1004.9391304347826,424.3895652173913" fill="none" stroke="#1a1a1a" stroke-width="0.8"/>
<polyline points="895.0608695652174,499.8504347826087 900.5547826086956,502.8504347826087 906.0486956521739,499.8504347826087 906.0486956521739,499.8504347826087 911.5426086956522,502.8504347826087 917.0365217391304,499.8504347826087 917.0365217391304,499.8504347826087 922.5304347826086,502.8504347826087 928.0243478260869,499.8504347826087 928.0243478260869,499.8504347826087 933.5182608695652,502.8504347826087 939.0121739130434,499.8504347826087 939.0121739130434,499.8504347826087 944.5060869565216,502.8504347826087 949.9999999999999,499.8504347826087 949.9999999999999,499.8504347826087 955.4939130434782,502.8504347826087 960.9878260869564,499.8504347826087 960.9878260869564,499.8504347826087 966.4817391304346,502.8504347826087 971.9756521739129,499.8504347826087 971.9756521739129,499.8504347826087 977.4695652173912,502.8504347826087 982.9634782608694,499.8504347826087 982.9634782608694,499.8504347826087 988.4573913043475,502.8504347826087 993.9513043478258,499.8504347826087 993.9513043478258,499.8504347826087 999.4452173913041,502.8504347826087 1004.9391304347823,499.8504347826087 1004.9391304347823,499.8504347826087 1004.9391304347824,502.8504347826087 1004.9391304347826,499.8504347826087" fill="none" stroke="#1a1a1a" stroke-width="0.8"/>
<line x1="895.0608695652174" y1="506.8504347826087" x2="895.0608695652174" y2="522.8504347826088" stroke="#1a1a1a" stroke-width="0.6" />
<line x1="1004.9391304347826" y1="506.8504347826087" x2="1004.9391304347826" y2="522.8504347826088" stroke="#1a1a1a" stroke-width="0.6" />
<line x1="895.0608695652174" y1="518.8504347826088" x2="1004.9391304347826" y2="518.8504347826088" stroke="#1a1a1a" stroke-width="0.6" marker-start="url(#dim-arrow-l)" marker-end="url(#dim-arrow-r)"/>
<text x="950" y="516.8504347826088" font-family="Arial, Helvetica, sans-serif" font-size="8" text-anchor="middle" font-weight="normal" fill="#1a1a1a">4,50</text>
<line x1="1006.9391304347826" y1="419.3895652173913" x2="1022.9391304347826" y2="419.3895652173913" stroke="#1a1a1a" stroke-width="0.6" />
<line x1="1006.9391304347826" y1="504.8504347826087" x2="1022.9391304347826" y2="504.8504347826087" stroke="#1a1a1a" stroke-width="0.6" />
<line x1="1018.9391304347826" y1="419.3895652173913" x2="1018.9391304347826" y2="504.8504347826087" stroke="#1a1a1a" stroke-width="0.6" marker-start="url(#dim-arrow-l)" marker-end="url(#dim-arrow-r)"/>
<text x="1024.9391304347826" y="465.12" font-family="Arial, Helvetica, sans-serif" font-size="8" text-anchor="start" font-weight="normal" fill="#1a1a1a">Ø3,50</text>
<text x="950" y="532.8504347826088" font-family="Arial, Helvetica, sans-serif" font-size="9" text-anchor="middle" font-weight="bold" fill="#1a1a1a">M3,5</text>
<text x="950" y="405.3895652173913" font-family="Arial, Helvetica, sans-serif" font-size="10" text-anchor="middle" font-weight="bold" fill="#1a1a1a">D) DETAIL</text>


<text x="870" y="601" font-family="Arial, Helvetica, sans-serif" font-size="10" text-anchor="start" font-weight="bold" fill="#1a1a1a">NOTES:</text>
<text x="870" y="617" font-family="Arial, Helvetica, sans-serif" font-size="8" text-anchor="start" font-weight="normal" fill="#1a1a1a">1. DIMENSÕES EM MM.</text>
<text x="870" y="631" font-family="Arial, Helvetica, sans-serif" font-size="8" text-anchor="start" font-weight="normal" fill="#1a1a1a">2. ROSCA M3,5 ESPECIFICADA PELO USUÁRIO.</text>
<text x="870" y="645" font-family="Arial, Helvetica, sans-serif" font-size="8" text-anchor="start" font-weight="normal" fill="#1a1a1a">3. PRELIMINAR GERADO DO PDF/PPTX PADRAO RONALDO.</text>
<text x="870" y="659" font-family="Arial, Helvetica, sans-serif" font-size="8" text-anchor="start" font-weight="normal" fill="#1a1a1a">4. COTAS INFERIORES SOMAM 45,60 MM; TOTAL INFORMADO E 46,00 MM. RESIDUO DE 0,40 MM MARCADO COMO VALIDACAO.</text>
<text x="870" y="673" font-family="Arial, Helvetica, sans-serif" font-size="8" text-anchor="start" font-weight="normal" fill="#1a1a1a">5. D = SUPERFICIE DIAMANTADA.</text>
<text x="741.9999999999999" y="315.3226086956522" font-family="Arial, Helvetica, sans-serif" font-size="8" text-anchor="start" font-weight="normal" fill="#1a1a1a">Ra 0.4</text>
<text x="874" y="777" font-family="Arial, Helvetica, sans-serif" font-size="8" text-anchor="start" font-weight="normal" fill="#1a1a1a">Barra exportado em CAD para manufatura de precisão.</text>
</svg>