<svg xmlns="http://www.w3.org/2000/svg" width="1800" height="1040" viewBox="0 0 1800 1040">
      <defs>
        <marker id="arrow-orange" markerWidth="10" markerHeight="10" refX="5" refY="5" orient="auto">
          <path d="M10 0 L0 5 L10 10 z" fill="#f97316"/>
        </marker>
        <marker id="arrow-blue" markerWidth="10" markerHeight="10" refX="5" refY="5" orient="auto">
          <path d="M10 0 L0 5 L10 10 z" fill="#0ea5e9"/>
        </marker>
      </defs>
      <rect width="100%" height="100%" fill="white"/>
      <text x="1420" y="70" text-anchor="middle" font-size="34" font-weight="700">Cylinder Pointed Bur 12s MCXL nova</text>
      <line x1="60" y1="470" x2="1460" y2="470" stroke="#94a3b8" stroke-width="1" stroke-dasharray="8 6"/>
      <polygon points="80,333.5 266.10526315789474,333.5 266.10526315789474,333.5 638.3157894736843,333.5 638.3157894736843,325.7 896,216.5 896,216.5 910.3157894736842,216.5 910.3157894736842,275 953.2631578947368,275 953.2631578947368,378.35 1010.5263157894738,378.35 1010.5263157894738,386.15 1153.6842105263158,386.15 1153.6842105263158,401.75 1397.0526315789473,401.75 1397.0526315789473,401.75 1440,423.2 1440,516.8 1397.0526315789473,538.25 1397.0526315789473,538.25 1153.6842105263158,538.25 1153.6842105263158,553.85 1010.5263157894738,553.85 1010.5263157894738,561.65 953.2631578947368,561.65 953.2631578947368,665 910.3157894736842,665 910.3157894736842,723.5 896,723.5 896,723.5 638.3157894736843,614.3 638.3157894736843,606.5 266.10526315789474,606.5 266.10526315789474,606.5 80,606.5" fill="none" stroke="#083344" stroke-width="3"/>
      <line x1="80" y1="300" x2="80" y2="820" stroke="#e5e7eb" stroke-width="0.7" stroke-dasharray="5 5"/>
<line x1="266.10526315789474" y1="300" x2="266.10526315789474" y2="820" stroke="#e5e7eb" stroke-width="0.7" stroke-dasharray="5 5"/>
<line x1="638.3157894736843" y1="300" x2="638.3157894736843" y2="820" stroke="#e5e7eb" stroke-width="0.7" stroke-dasharray="5 5"/>
<line x1="896" y1="300" x2="896" y2="820" stroke="#e5e7eb" stroke-width="0.7" stroke-dasharray="5 5"/>
<line x1="910.3157894736842" y1="300" x2="910.3157894736842" y2="820" stroke="#e5e7eb" stroke-width="0.7" stroke-dasharray="5 5"/>
<line x1="953.2631578947368" y1="300" x2="953.2631578947368" y2="820" stroke="#e5e7eb" stroke-width="0.7" stroke-dasharray="5 5"/>
<line x1="1010.5263157894738" y1="300" x2="1010.5263157894738" y2="820" stroke="#e5e7eb" stroke-width="0.7" stroke-dasharray="5 5"/>
<line x1="1153.6842105263158" y1="300" x2="1153.6842105263158" y2="820" stroke="#e5e7eb" stroke-width="0.7" stroke-dasharray="5 5"/>
<line x1="1397.0526315789473" y1="300" x2="1397.0526315789473" y2="820" stroke="#e5e7eb" stroke-width="0.7" stroke-dasharray="5 5"/>
      
    <line x1="80" y1="670" x2="80" y2="710" stroke="#f97316" stroke-width="1.2"/>
    <line x1="266.10526315789474" y1="670" x2="266.10526315789474" y2="710" stroke="#f97316" stroke-width="1.2"/>
    <line x1="80" y1="690" x2="266.10526315789474" y2="690" stroke="#f97316" stroke-width="1.4" marker-start="url(#arrow-orange)" marker-end="url(#arrow-orange)"/>
    <text x="173.05263157894737" y="682" text-anchor="middle" font-size="20" fill="#111827">5,20</text>
  

    <line x1="266.10526315789474" y1="714" x2="266.10526315789474" y2="754" stroke="#f97316" stroke-width="1.2"/>
    <line x1="638.3157894736843" y1="714" x2="638.3157894736843" y2="754" stroke="#f97316" stroke-width="1.2"/>
    <line x1="266.10526315789474" y1="734" x2="638.3157894736843" y2="734" stroke="#f97316" stroke-width="1.4" marker-start="url(#arrow-orange)" marker-end="url(#arrow-orange)"/>
    <text x="452.2105263157895" y="726" text-anchor="middle" font-size="20" fill="#111827">10,40*</text>
  

    <line x1="638.3157894736843" y1="758" x2="638.3157894736843" y2="798" stroke="#f97316" stroke-width="1.2"/>
    <line x1="896" y1="758" x2="896" y2="798" stroke="#f97316" stroke-width="1.2"/>
    <line x1="638.3157894736843" y1="778" x2="896" y2="778" stroke="#f97316" stroke-width="1.4" marker-start="url(#arrow-orange)" marker-end="url(#arrow-orange)"/>
    <text x="767.1578947368421" y="770" text-anchor="middle" font-size="20" fill="#111827">7,20</text>
  

    <line x1="896" y1="670" x2="896" y2="710" stroke="#f97316" stroke-width="1.2"/>
    <line x1="910.3157894736842" y1="670" x2="910.3157894736842" y2="710" stroke="#f97316" stroke-width="1.2"/>
    <line x1="896" y1="690" x2="910.3157894736842" y2="690" stroke="#f97316" stroke-width="1.4" marker-start="url(#arrow-orange)" marker-end="url(#arrow-orange)"/>
    <text x="903.1578947368421" y="682" text-anchor="middle" font-size="20" fill="#111827">0,40</text>
  

    <line x1="910.3157894736842" y1="714" x2="910.3157894736842" y2="754" stroke="#f97316" stroke-width="1.2"/>
    <line x1="953.2631578947368" y1="714" x2="953.2631578947368" y2="754" stroke="#f97316" stroke-width="1.2"/>
    <line x1="910.3157894736842" y1="734" x2="953.2631578947368" y2="734" stroke="#f97316" stroke-width="1.4" marker-start="url(#arrow-orange)" marker-end="url(#arrow-orange)"/>
    <text x="931.7894736842104" y="726" text-anchor="middle" font-size="20" fill="#111827">1,20</text>
  

    <line x1="953.2631578947368" y1="758" x2="953.2631578947368" y2="798" stroke="#f97316" stroke-width="1.2"/>
    <line x1="1010.5263157894738" y1="758" x2="1010.5263157894738" y2="798" stroke="#f97316" stroke-width="1.2"/>
    <line x1="953.2631578947368" y1="778" x2="1010.5263157894738" y2="778" stroke="#f97316" stroke-width="1.4" marker-start="url(#arrow-orange)" marker-end="url(#arrow-orange)"/>
    <text x="981.8947368421052" y="770" text-anchor="middle" font-size="20" fill="#111827">1,60</text>
  

    <line x1="1010.5263157894738" y1="670" x2="1010.5263157894738" y2="710" stroke="#f97316" stroke-width="1.2"/>
    <line x1="1153.6842105263158" y1="670" x2="1153.6842105263158" y2="710" stroke="#f97316" stroke-width="1.2"/>
    <line x1="1010.5263157894738" y1="690" x2="1153.6842105263158" y2="690" stroke="#f97316" stroke-width="1.4" marker-start="url(#arrow-orange)" marker-end="url(#arrow-orange)"/>
    <text x="1082.1052631578948" y="682" text-anchor="middle" font-size="20" fill="#111827">4,00</text>
  

    <line x1="1153.6842105263158" y1="714" x2="1153.6842105263158" y2="754" stroke="#f97316" stroke-width="1.2"/>
    <line x1="1397.0526315789473" y1="714" x2="1397.0526315789473" y2="754" stroke="#f97316" stroke-width="1.2"/>
    <line x1="1153.6842105263158" y1="734" x2="1397.0526315789473" y2="734" stroke="#f97316" stroke-width="1.4" marker-start="url(#arrow-orange)" marker-end="url(#arrow-orange)"/>
    <text x="1275.3684210526317" y="726" text-anchor="middle" font-size="20" fill="#111827">6,80</text>
  

    <line x1="1397.0526315789473" y1="758" x2="1397.0526315789473" y2="798" stroke="#f97316" stroke-width="1.2"/>
    <line x1="1440" y1="758" x2="1440" y2="798" stroke="#f97316" stroke-width="1.2"/>
    <line x1="1397.0526315789473" y1="778" x2="1440" y2="778" stroke="#f97316" stroke-width="1.4" marker-start="url(#arrow-orange)" marker-end="url(#arrow-orange)"/>
    <text x="1418.5263157894738" y="770" text-anchor="middle" font-size="20" fill="#111827">1,20</text>
  
      
    <line x1="80" y1="820" x2="80" y2="860" stroke="#f97316" stroke-width="1.2"/>
    <line x1="1440" y1="820" x2="1440" y2="860" stroke="#f97316" stroke-width="1.2"/>
    <line x1="80" y1="840" x2="1440" y2="840" stroke="#f97316" stroke-width="1.4" marker-start="url(#arrow-orange)" marker-end="url(#arrow-orange)"/>
    <text x="760" y="832" text-anchor="middle" font-size="20" fill="#111827">38,00</text>
  
      
    <line x1="173.05263157894737" y1="250" x2="173.05263157894737" y2="325.5" stroke="#f97316" stroke-width="1.6" marker-end="url(#arrow-orange)"/>
    <text x="173.05263157894737" y="242" text-anchor="middle" font-size="20" fill="#111827">Rosca M3,5x0,35</text>
  

    <line x1="767.1578947368421" y1="292" x2="767.1578947368421" y2="208.5" stroke="#f97316" stroke-width="1.6" marker-end="url(#arrow-orange)"/>
    <text x="767.1578947368421" y="284" text-anchor="middle" font-size="20" fill="#111827">Ø 3,70</text>
  

    <line x1="931.7894736842104" y1="334" x2="931.7894736842104" y2="267" stroke="#0ea5e9" stroke-width="1.6" marker-end="url(#arrow-blue)"/>
    <text x="931.7894736842104" y="326" text-anchor="middle" font-size="20" fill="#111827">Ø 5</text>
  

    <line x1="981.8947368421052" y1="376" x2="981.8947368421052" y2="370.35" stroke="#f97316" stroke-width="1.6" marker-end="url(#arrow-orange)"/>
    <text x="981.8947368421052" y="368" text-anchor="middle" font-size="20" fill="#111827">Ø 2,35</text>
  

    <line x1="1082.1052631578948" y1="250" x2="1082.1052631578948" y2="378.15" stroke="#f97316" stroke-width="1.6" marker-end="url(#arrow-orange)"/>
    <text x="1082.1052631578948" y="242" text-anchor="middle" font-size="20" fill="#111827">Ø 2,15</text>
  

    <line x1="1275.3684210526317" y1="292" x2="1275.3684210526317" y2="393.75" stroke="#f97316" stroke-width="1.6" marker-end="url(#arrow-orange)"/>
    <text x="1275.3684210526317" y="284" text-anchor="middle" font-size="20" fill="#111827">Ø 1,75</text>
  
      <text x="1420" y="970" text-anchor="middle" font-size="28" font-weight="700">D = superficie diamantada quando indicado</text>
      <text x="70" y="895" font-size="16" fill="#92400e">- Preliminar gerado do PPTX padrao Ronaldo.</text>
<text x="70" y="917" font-size="16" fill="#92400e">- A cota inferior de 10,00 nao fecha com o total 38,0 quando combinada com as demais cotas; ajuste marcado para revisao.</text>
<text x="70" y="939" font-size="16" fill="#92400e">- D = superficie diamantada.</text>
<text x="70" y="961" font-size="16" fill="#92400e">- Validar: Confirmar por que a soma das cotas parciais fica 0,40 mm menor que o total 38,0.</text>
<text x="70" y="983" font-size="16" fill="#92400e">- Validar: Confirmar se a ponta final deve terminar em Ø1,20 ou fechar em ponta.</text>
<text x="70" y="1005" font-size="16" fill="#92400e">- Validar: Confirmar como representar as duas canaletas verdes no STEP.</text>
    </svg>