<svg xmlns="http://www.w3.org/2000/svg" width="358.527" height="60" viewBox="0 0 358.527 60">
  <g id="Grupo_1333" data-name="Grupo 1333" transform="translate(-1039.106 200.204)">
    <path id="Caminho_1438" data-name="Caminho 1438" d="M82.154,1.4h28.928q6.891,0,11.137,3.689a12.277,12.277,0,0,1,4.248,9.737v5.577a11.048,11.048,0,0,1-2.527,7.183,14.752,14.752,0,0,1-7.011,4.6v.156a12.419,12.419,0,0,1,4.127,3.807,22.489,22.489,0,0,1,2.683,6.008l4.49,14.213h-9.7l-4.325-13.585A11.16,11.16,0,0,0,111,37.369a7.441,7.441,0,0,0-5.045-1.883H91.529V56.372H82.154ZM109,27.554a8.525,8.525,0,0,0,5.889-1.964,6.513,6.513,0,0,0,2.2-5.1V15.068a5.331,5.331,0,0,0-1.68-4.085,6.327,6.327,0,0,0-4.487-1.568H91.529V27.554Z" transform="translate(1177.927 -197.745)" fill="#17100d"/>
    <path id="Caminho_1439" data-name="Caminho 1439" d="M.123,21.793a15.744,15.744,0,0,0,4.061,7.159Q8.992,33.76,17.325,33.76h9.216A23.513,23.513,0,0,0,35.916,32a14.665,14.665,0,0,0,6.329-4.929c.135-.19.228-.393.352-.588a23.388,23.388,0,0,0-7.522-11.14c.008.132.038.256.038.39v3.527a5.311,5.311,0,0,1-2.406,4.525,10.62,10.62,0,0,1-6.329,1.724H17.485a8.373,8.373,0,0,1-6.53-2.6A10.16,10.16,0,0,1,8.591,15.81H5.047A23.481,23.481,0,0,0,.123,21.793" transform="translate(1039.167 -174.489)" fill="#ce004e"/>
    <path id="Caminho_1440" data-name="Caminho 1440" d="M10.259,31.477A28.419,28.419,0,0,1,44.606,42.942V39.39A10.5,10.5,0,0,0,40.88,31.1q-3.724-3.246-10.618-4.448L15.68,24.087a8.681,8.681,0,0,1-4.646-1.963,4.858,4.858,0,0,1-1.6-3.725V15.512a5.2,5.2,0,0,1,2.282-4.446,10.156,10.156,0,0,1,6.051-1.644h9.053a7.157,7.157,0,0,1,5.49,2.285,8.429,8.429,0,0,1,2.122,5.969h9.136a17.579,17.579,0,0,0-2.084-8.652,14.356,14.356,0,0,0-5.889-5.809,18.252,18.252,0,0,0-8.776-2.043H17.764a23.4,23.4,0,0,0-9.3,1.721A14.312,14.312,0,0,0,2.258,7.74a12.2,12.2,0,0,0-2.2,7.211v4.407A11.157,11.157,0,0,0,3.7,27.934a16.974,16.974,0,0,0,6.557,3.544" transform="translate(1039.05 -198.152)" fill="#ce004e"/>
    <path id="Caminho_1441" data-name="Caminho 1441" d="M135.307.177l-9.936,5.735a1.321,1.321,0,0,0-.66,1.144V18.528a1.314,1.314,0,0,0,.66,1.144l9.936,5.738a1.316,1.316,0,0,0,1.32,0l9.936-5.738a1.314,1.314,0,0,0,.66-1.144V7.056a1.321,1.321,0,0,0-.66-1.144L136.626.177a1.316,1.316,0,0,0-1.32,0" transform="translate(1250.411 -200.203)" fill="#ce004e"/>
    <path id="Caminho_1442" data-name="Caminho 1442" d="M73.555,55.417,53.9,5.568A6.041,6.041,0,0,0,47.888,1.4H43.64l-16.1,40.615a33.248,33.248,0,0,1,11.525-5.69l8.825-23.535h.082L58.69,41.662A28.747,28.747,0,0,0,21.745,56.379h9.831a20.07,20.07,0,0,1,32.546-.092l.036.092h9.867c-.146-.326-.313-.641-.47-.962" transform="translate(1075.714 -197.748)" fill="#17100d"/>
    <path id="Caminho_1443" data-name="Caminho 1443" d="M156.321,55.417,136.661,5.568A6.032,6.032,0,0,0,130.654,1.4h-4.248L110.3,42.018a33.224,33.224,0,0,1,11.525-5.69l8.825-23.535h.082l10.72,28.87a28.751,28.751,0,0,0-36.948,14.717h9.829a20.076,20.076,0,0,1,32.552-.092l.036.092h9.864c-.146-.326-.313-.641-.467-.962" transform="translate(1215.069 -197.748)" fill="#17100d"/>
    <path id="Caminho_1444" data-name="Caminho 1444" d="M56.994,9.413H83.033A32.283,32.283,0,0,1,87.786,1.4H47.619V56.372h9.375V33.99H82.978V25.983H56.994Z" transform="translate(1119.558 -197.745)" fill="#17100d"/>
    <path id="Caminho_1445" data-name="Caminho 1445" d="M79.248,52.208V1.4H69.87V57.543a35.943,35.943,0,0,1,9.378-5.334" transform="translate(1157.563 -197.746)" fill="#17100d"/>
  </g>
</svg>
