<svg xmlns="http://www.w3.org/2000/svg" width="1260" height="891" viewBox="0 0 1260 891" role="img" aria-label="Desenho técnico A3 — Cylinder Pointed Bur 12s MCXL nova">
  <defs>
    <marker id="dim-arrow-l" markerWidth="8" markerHeight="6" refX="0" refY="3" orient="auto">
      <path d="M8,0 L0,3 L8,6" fill="none" stroke="#1a1a1a" stroke-width="0.8"/>
    </marker>
    <marker id="dim-arrow-r" markerWidth="8" markerHeight="6" refX="8" refY="3" orient="auto">
      <path d="M0,0 L8,3 L0,6" fill="none" stroke="#1a1a1a" stroke-width="0.8"/>
    </marker>
    <marker id="leader-dot" markerWidth="4" markerHeight="4" refX="2" refY="2">
      <circle cx="2" cy="2" r="1.5" fill="#1a1a1a"/>
    </marker>
  </defs>
  <rect x="0" y="0" width="1260" height="891" fill="#ffffff"/>
<rect x="20" y="20" width="1220" height="851" fill="none" stroke="#1a1a1a" stroke-width="2"/>
<rect x="30" y="30" width="1200" height="831" fill="none" stroke="#1a1a1a" stroke-width="0.8"/>
<line x1="30" y1="20" x2="30" y2="30" stroke="#1a1a1a" stroke-width="0.8" />
<line x1="30" y1="861" x2="30" y2="871" stroke="#1a1a1a" stroke-width="0.8" />
<text x="180" y="32" font-family="Arial, Helvetica, sans-serif" font-size="9" text-anchor="middle" font-weight="normal" fill="#1a1a1a">4</text>
<text x="180" y="867" font-family="Arial, Helvetica, sans-serif" font-size="9" text-anchor="middle" font-weight="normal" fill="#1a1a1a">4</text>
<line x1="330" y1="20" x2="330" y2="30" stroke="#1a1a1a" stroke-width="0.8" />
<line x1="330" y1="861" x2="330" y2="871" stroke="#1a1a1a" stroke-width="0.8" />
<text x="480" y="32" font-family="Arial, Helvetica, sans-serif" font-size="9" text-anchor="middle" font-weight="normal" fill="#1a1a1a">3</text>
<text x="480" y="867" font-family="Arial, Helvetica, sans-serif" font-size="9" text-anchor="middle" font-weight="normal" fill="#1a1a1a">3</text>
<line x1="630" y1="20" x2="630" y2="30" stroke="#1a1a1a" stroke-width="0.8" />
<line x1="630" y1="861" x2="630" y2="871" stroke="#1a1a1a" stroke-width="0.8" />
<text x="780" y="32" font-family="Arial, Helvetica, sans-serif" font-size="9" text-anchor="middle" font-weight="normal" fill="#1a1a1a">2</text>
<text x="780" y="867" font-family="Arial, Helvetica, sans-serif" font-size="9" text-anchor="middle" font-weight="normal" fill="#1a1a1a">2</text>
<line x1="930" y1="20" x2="930" y2="30" stroke="#1a1a1a" stroke-width="0.8" />
<line x1="930" y1="861" x2="930" y2="871" stroke="#1a1a1a" stroke-width="0.8" />
<text x="1080" y="32" font-family="Arial, Helvetica, sans-serif" font-size="9" text-anchor="middle" font-weight="normal" fill="#1a1a1a">1</text>
<text x="1080" y="867" font-family="Arial, Helvetica, sans-serif" font-size="9" text-anchor="middle" font-weight="normal" fill="#1a1a1a">1</text>
<line x1="1230" y1="20" x2="1230" y2="30" stroke="#1a1a1a" stroke-width="0.8" />
<line x1="1230" y1="861" x2="1230" y2="871" stroke="#1a1a1a" stroke-width="0.8" />
<line x1="20" y1="30" x2="30" y2="30" stroke="#1a1a1a" stroke-width="0.8" />
<line x1="1230" y1="30" x2="1240" y2="30" stroke="#1a1a1a" stroke-width="0.8" />
<text x="25" y="136.875" font-family="Arial, Helvetica, sans-serif" font-size="9" text-anchor="start" font-weight="normal" fill="#1a1a1a">A</text>
<text x="1235" y="136.875" font-family="Arial, Helvetica, sans-serif" font-size="9" text-anchor="end" font-weight="normal" fill="#1a1a1a">A</text>
<line x1="20" y1="237.75" x2="30" y2="237.75" stroke="#1a1a1a" stroke-width="0.8" />
<line x1="1230" y1="237.75" x2="1240" y2="237.75" stroke="#1a1a1a" stroke-width="0.8" />
<text x="25" y="344.625" font-family="Arial, Helvetica, sans-serif" font-size="9" text-anchor="start" font-weight="normal" fill="#1a1a1a">B</text>
<text x="1235" y="344.625" font-family="Arial, Helvetica, sans-serif" font-size="9" text-anchor="end" font-weight="normal" fill="#1a1a1a">B</text>
<line x1="20" y1="445.5" x2="30" y2="445.5" stroke="#1a1a1a" stroke-width="0.8" />
<line x1="1230" y1="445.5" x2="1240" y2="445.5" stroke="#1a1a1a" stroke-width="0.8" />
<text x="25" y="552.375" font-family="Arial, Helvetica, sans-serif" font-size="9" text-anchor="start" font-weight="normal" fill="#1a1a1a">C</text>
<text x="1235" y="552.375" font-family="Arial, Helvetica, sans-serif" font-size="9" text-anchor="end" font-weight="normal" fill="#1a1a1a">C</text>
<line x1="20" y1="653.25" x2="30" y2="653.25" stroke="#1a1a1a" stroke-width="0.8" />
<line x1="1230" y1="653.25" x2="1240" y2="653.25" stroke="#1a1a1a" stroke-width="0.8" />
<text x="25" y="760.125" font-family="Arial, Helvetica, sans-serif" font-size="9" text-anchor="start" font-weight="normal" fill="#1a1a1a">D</text>
<text x="1235" y="760.125" font-family="Arial, Helvetica, sans-serif" font-size="9" text-anchor="end" font-weight="normal" fill="#1a1a1a">D</text>
<line x1="20" y1="861" x2="30" y2="861" stroke="#1a1a1a" stroke-width="0.8" />
<line x1="1230" y1="861" x2="1240" y2="861" stroke="#1a1a1a" stroke-width="0.8" />
<line x1="630" y1="20" x2="630" y2="14" stroke="#1a1a1a" stroke-width="0.8" />
<line x1="630" y1="871" x2="630" y2="877" stroke="#1a1a1a" stroke-width="0.8" />
<line x1="20" y1="445.5" x2="14" y2="445.5" stroke="#1a1a1a" stroke-width="0.8" />
<line x1="1240" y1="445.5" x2="1246" y2="445.5" stroke="#1a1a1a" stroke-width="0.8" />
<rect x="870" y="701" width="360" height="160" fill="none" stroke="#1a1a1a" stroke-width="2"/>
<line x1="870" y1="741" x2="1230" y2="741" stroke="#1a1a1a" stroke-width="0.8" />
<line x1="870" y1="781" x2="1230" y2="781" stroke="#1a1a1a" stroke-width="0.8" />
<line x1="870" y1="821" x2="1230" y2="821" stroke="#1a1a1a" stroke-width="0.8" />
<line x1="1068" y1="701" x2="1068" y2="741" stroke="#1a1a1a" stroke-width="0.8" />
<text x="874" y="711" font-family="Arial, Helvetica, sans-serif" font-size="7" text-anchor="start" fill="#555">DRAWN BY:</text>
<text x="874" y="729" font-family="Arial, Helvetica, sans-serif" font-size="11" text-anchor="start" font-weight="normal" fill="#1a1a1a">A.Expert</text>
<text x="874" y="737" font-family="Arial, Helvetica, sans-serif" font-size="8" text-anchor="start" font-weight="normal" fill="#1a1a1a">DATE: 2026-05-05</text>
<text x="1072" y="711" font-family="Arial, Helvetica, sans-serif" font-size="7" text-anchor="start" fill="#555">SCALE:</text>
<text x="1072" y="729" font-family="Arial, Helvetica, sans-serif" font-size="14" text-anchor="start" font-weight="bold" fill="#1a1a1a">1:1</text>
<line x1="1068" y1="741" x2="1068" y2="781" stroke="#1a1a1a" stroke-width="0.8" />
<text x="874" y="751" font-family="Arial, Helvetica, sans-serif" font-size="7" text-anchor="start" fill="#555">MATERIAL:</text>
<text x="874" y="767" font-family="Arial, Helvetica, sans-serif" font-size="10" text-anchor="start" font-weight="normal" fill="#1a1a1a">Aço Inoxidável</text>
<text x="1072" y="751" font-family="Arial, Helvetica, sans-serif" font-size="7" text-anchor="start" fill="#555">TITLE:</text>
<text x="1072" y="769" font-family="Arial, Helvetica, sans-serif" font-size="13" text-anchor="start" font-weight="bold" fill="#1a1a1a">CYLINDER POINTED BUR 12S MCXL NOVA</text>
<line x1="1068" y1="781" x2="1068" y2="821" stroke="#1a1a1a" stroke-width="0.8" />
<text x="874" y="791" font-family="Arial, Helvetica, sans-serif" font-size="7" text-anchor="start" fill="#555">TOLERANCE:</text>
<text x="874" y="807" font-family="Arial, Helvetica, sans-serif" font-size="10" text-anchor="start" font-weight="normal" fill="#1a1a1a">ISO 2768-m</text>
<text x="1072" y="791" font-family="Arial, Helvetica, sans-serif" font-size="7" text-anchor="start" fill="#555">PART NO:</text>
<text x="1072" y="809" font-family="Arial, Helvetica, sans-serif" font-size="13" text-anchor="start" font-weight="bold" fill="#1a1a1a">RONALDO-CYL-12S-MCXL-NOVA-PRELIM</text>
<line x1="1140" y1="821" x2="1140" y2="861" stroke="#1a1a1a" stroke-width="0.8" />
<text x="874" y="831" font-family="Arial, Helvetica, sans-serif" font-size="7" text-anchor="start" fill="#555">REV:</text>
<text x="874" y="847" font-family="Arial, Helvetica, sans-serif" font-size="12" text-anchor="start" font-weight="bold" fill="#1a1a1a">A</text>
<text x="1072" y="841" font-family="Arial, Helvetica, sans-serif" font-size="11" text-anchor="start" font-weight="normal" fill="#1a1a1a">ISO</text>
<line x1="1068" y1="821" x2="1068" y2="861" stroke="#1a1a1a" stroke-width="0.8" />
<text x="1144" y="841" font-family="Arial, Helvetica, sans-serif" font-size="11" text-anchor="start" font-weight="bold" fill="#1a1a1a">A3</text>
<circle cx="152.69473684210527" cy="312.54" r="48.69473684210527" fill="none" stroke="#1a1a1a" stroke-width="0.8" stroke-dasharray="4 2"/>
<text x="152.69473684210527" y="229.10842105263157" font-family="Arial, Helvetica, sans-serif" font-size="8" text-anchor="middle" font-weight="normal" fill="#1a1a1a">VER DETALHE &quot;D&quot;</text>
<line x1="90" y1="312.54" x2="754.0000000000002" y2="312.54" stroke="#1a1a1a" stroke-width="0.4" stroke-dasharray="12 3 3 3"/>
<line x1="110" y1="283.80315789473684" x2="195.38947368421054" y2="283.80315789473684" stroke="#1a1a1a" stroke-width="2" />
<line x1="110" y1="341.2768421052632" x2="195.38947368421054" y2="341.2768421052632" stroke="#1a1a1a" stroke-width="2" />
<line x1="110" y1="283.80315789473684" x2="110" y2="341.2768421052632" stroke="#1a1a1a" stroke-width="2" />
<line x1="195.38947368421054" y1="283.80315789473684" x2="195.38947368421054" y2="341.2768421052632" stroke="#1a1a1a" stroke-width="2" />
<polyline points="110,289.80315789473684 113.55789473684212,285.80315789473684 117.11578947368422,289.80315789473684 117.11578947368422,289.80315789473684 120.67368421052632,285.80315789473684 124.23157894736843,289.80315789473684 124.23157894736843,289.80315789473684 127.78947368421053,285.80315789473684 131.34736842105264,289.80315789473684 131.34736842105264,289.80315789473684 134.90526315789475,285.80315789473684 138.46315789473684,289.80315789473684 138.46315789473684,289.80315789473684 142.02105263157893,285.80315789473684 145.57894736842104,289.80315789473684 145.57894736842104,289.80315789473684 149.13684210526316,285.80315789473684 152.69473684210524,289.80315789473684 152.69473684210524,289.80315789473684 156.25263157894733,285.80315789473684 159.81052631578945,289.80315789473684 159.81052631578945,289.80315789473684 163.36842105263156,285.80315789473684 166.92631578947365,289.80315789473684 166.92631578947365,289.80315789473684 170.48421052631574,285.80315789473684 174.04210526315785,289.80315789473684 174.04210526315785,289.80315789473684 177.59999999999997,285.80315789473684 181.15789473684205,289.80315789473684 181.15789473684205,289.80315789473684 184.71578947368414,285.80315789473684 188.27368421052626,289.80315789473684 188.27368421052626,289.80315789473684 191.83157894736837,285.80315789473684 195.38947368421046,289.80315789473684 195.38947368421046,289.80315789473684 195.3894736842105,285.80315789473684 195.38947368421054,289.80315789473684" fill="none" stroke="#1a1a1a" stroke-width="0.8"/>
<polyline points="110,335.2768421052632 113.55789473684212,339.2768421052632 117.11578947368422,335.2768421052632 117.11578947368422,335.2768421052632 120.67368421052632,339.2768421052632 124.23157894736843,335.2768421052632 124.23157894736843,335.2768421052632 127.78947368421053,339.2768421052632 131.34736842105264,335.2768421052632 131.34736842105264,335.2768421052632 134.90526315789475,339.2768421052632 138.46315789473684,335.2768421052632 138.46315789473684,335.2768421052632 142.02105263157893,339.2768421052632 145.57894736842104,335.2768421052632 145.57894736842104,335.2768421052632 149.13684210526316,339.2768421052632 152.69473684210524,335.2768421052632 152.69473684210524,335.2768421052632 156.25263157894733,339.2768421052632 159.81052631578945,335.2768421052632 159.81052631578945,335.2768421052632 163.36842105263156,339.2768421052632 166.92631578947365,335.2768421052632 166.92631578947365,335.2768421052632 170.48421052631574,339.2768421052632 174.04210526315785,335.2768421052632 174.04210526315785,335.2768421052632 177.59999999999997,339.2768421052632 181.15789473684205,335.2768421052632 181.15789473684205,335.2768421052632 184.71578947368414,339.2768421052632 188.27368421052626,335.2768421052632 188.27368421052626,335.2768421052632 191.83157894736837,339.2768421052632 195.38947368421046,335.2768421052632 195.38947368421046,335.2768421052632 195.3894736842105,339.2768421052632 195.38947368421054,335.2768421052632" fill="none" stroke="#1a1a1a" stroke-width="0.8"/>
<line x1="195.38947368421054" y1="283.80315789473684" x2="366.16842105263163" y2="283.80315789473684" stroke="#1a1a1a" stroke-width="2" />
<line x1="195.38947368421054" y1="341.2768421052632" x2="366.16842105263163" y2="341.2768421052632" stroke="#1a1a1a" stroke-width="2" />
<line x1="195.38947368421054" y1="283.80315789473684" x2="195.38947368421054" y2="341.2768421052632" stroke="#1a1a1a" stroke-width="2" />
<line x1="366.16842105263163" y1="283.80315789473684" x2="366.16842105263163" y2="341.2768421052632" stroke="#1a1a1a" stroke-width="2" />
<line x1="201.38947368421054" y1="283.80315789473684" x2="195.38947368421054" y2="289.80315789473684" stroke="#1a1a1a" stroke-width="0.3" opacity="0.3"/>
<line x1="207.38947368421054" y1="283.80315789473684" x2="195.38947368421054" y2="295.80315789473684" stroke="#1a1a1a" stroke-width="0.3" opacity="0.3"/>
<line x1="213.38947368421054" y1="283.80315789473684" x2="195.38947368421054" y2="301.80315789473684" stroke="#1a1a1a" stroke-width="0.3" opacity="0.3"/>
<line x1="219.38947368421054" y1="283.80315789473684" x2="195.38947368421054" y2="307.80315789473684" stroke="#1a1a1a" stroke-width="0.3" opacity="0.3"/>
<line x1="225.38947368421054" y1="283.80315789473684" x2="195.38947368421054" y2="313.80315789473684" stroke="#1a1a1a" stroke-width="0.3" opacity="0.3"/>
<line x1="231.38947368421054" y1="283.80315789473684" x2="195.38947368421054" y2="319.80315789473684" stroke="#1a1a1a" stroke-width="0.3" opacity="0.3"/>
<line x1="237.38947368421054" y1="283.80315789473684" x2="195.38947368421054" y2="325.80315789473684" stroke="#1a1a1a" stroke-width="0.3" opacity="0.3"/>
<line x1="243.38947368421054" y1="283.80315789473684" x2="195.38947368421054" y2="331.80315789473684" stroke="#1a1a1a" stroke-width="0.3" opacity="0.3"/>
<line x1="249.38947368421054" y1="283.80315789473684" x2="195.38947368421054" y2="337.80315789473684" stroke="#1a1a1a" stroke-width="0.3" opacity="0.3"/>
<line x1="255.38947368421054" y1="283.80315789473684" x2="197.91578947368419" y2="341.2768421052632" stroke="#1a1a1a" stroke-width="0.3" opacity="0.3"/>
<line x1="261.38947368421054" y1="283.80315789473684" x2="203.91578947368419" y2="341.2768421052632" stroke="#1a1a1a" stroke-width="0.3" opacity="0.3"/>
<line x1="267.38947368421054" y1="283.80315789473684" x2="209.91578947368419" y2="341.2768421052632" stroke="#1a1a1a" stroke-width="0.3" opacity="0.3"/>
<line x1="273.38947368421054" y1="283.80315789473684" x2="215.91578947368419" y2="341.2768421052632" stroke="#1a1a1a" stroke-width="0.3" opacity="0.3"/>
<line x1="279.38947368421054" y1="283.80315789473684" x2="221.91578947368419" y2="341.2768421052632" stroke="#1a1a1a" stroke-width="0.3" opacity="0.3"/>
<line x1="285.38947368421054" y1="283.80315789473684" x2="227.91578947368419" y2="341.2768421052632" stroke="#1a1a1a" stroke-width="0.3" opacity="0.3"/>
<line x1="291.38947368421054" y1="283.80315789473684" x2="233.91578947368419" y2="341.2768421052632" stroke="#1a1a1a" stroke-width="0.3" opacity="0.3"/>
<line x1="297.38947368421054" y1="283.80315789473684" x2="239.91578947368419" y2="341.2768421052632" stroke="#1a1a1a" stroke-width="0.3" opacity="0.3"/>
<line x1="303.38947368421054" y1="283.80315789473684" x2="245.91578947368419" y2="341.2768421052632" stroke="#1a1a1a" stroke-width="0.3" opacity="0.3"/>
<line x1="309.38947368421054" y1="283.80315789473684" x2="251.91578947368419" y2="341.2768421052632" stroke="#1a1a1a" stroke-width="0.3" opacity="0.3"/>
<line x1="315.38947368421054" y1="283.80315789473684" x2="257.9157894736842" y2="341.2768421052632" stroke="#1a1a1a" stroke-width="0.3" opacity="0.3"/>
<line x1="321.38947368421054" y1="283.80315789473684" x2="263.9157894736842" y2="341.2768421052632" stroke="#1a1a1a" stroke-width="0.3" opacity="0.3"/>
<line x1="327.38947368421054" y1="283.80315789473684" x2="269.9157894736842" y2="341.2768421052632" stroke="#1a1a1a" stroke-width="0.3" opacity="0.3"/>
<line x1="333.38947368421054" y1="283.80315789473684" x2="275.9157894736842" y2="341.2768421052632" stroke="#1a1a1a" stroke-width="0.3" opacity="0.3"/>
<line x1="339.38947368421054" y1="283.80315789473684" x2="281.9157894736842" y2="341.2768421052632" stroke="#1a1a1a" stroke-width="0.3" opacity="0.3"/>
<line x1="345.38947368421054" y1="283.80315789473684" x2="287.9157894736842" y2="341.2768421052632" stroke="#1a1a1a" stroke-width="0.3" opacity="0.3"/>
<line x1="351.38947368421054" y1="283.80315789473684" x2="293.9157894736842" y2="341.2768421052632" stroke="#1a1a1a" stroke-width="0.3" opacity="0.3"/>
<line x1="357.38947368421054" y1="283.80315789473684" x2="299.9157894736842" y2="341.2768421052632" stroke="#1a1a1a" stroke-width="0.3" opacity="0.3"/>
<line x1="363.38947368421054" y1="283.80315789473684" x2="305.9157894736842" y2="341.2768421052632" stroke="#1a1a1a" stroke-width="0.3" opacity="0.3"/>
<line x1="366.16842105263163" y1="287.02421052631576" x2="311.9157894736842" y2="341.2768421052632" stroke="#1a1a1a" stroke-width="0.3" opacity="0.3"/>
<line x1="366.16842105263163" y1="293.02421052631576" x2="317.9157894736842" y2="341.2768421052632" stroke="#1a1a1a" stroke-width="0.3" opacity="0.3"/>
<line x1="366.16842105263163" y1="299.02421052631576" x2="323.9157894736842" y2="341.2768421052632" stroke="#1a1a1a" stroke-width="0.3" opacity="0.3"/>
<line x1="366.16842105263163" y1="305.02421052631576" x2="329.9157894736842" y2="341.2768421052632" stroke="#1a1a1a" stroke-width="0.3" opacity="0.3"/>
<line x1="366.16842105263163" y1="311.02421052631576" x2="335.9157894736842" y2="341.2768421052632" stroke="#1a1a1a" stroke-width="0.3" opacity="0.3"/>
<line x1="366.16842105263163" y1="317.02421052631576" x2="341.9157894736842" y2="341.2768421052632" stroke="#1a1a1a" stroke-width="0.3" opacity="0.3"/>
<line x1="366.16842105263163" y1="323.02421052631576" x2="347.9157894736842" y2="341.2768421052632" stroke="#1a1a1a" stroke-width="0.3" opacity="0.3"/>
<line x1="366.16842105263163" y1="329.02421052631576" x2="353.9157894736842" y2="341.2768421052632" stroke="#1a1a1a" stroke-width="0.3" opacity="0.3"/>
<line x1="366.16842105263163" y1="335.02421052631576" x2="359.9157894736842" y2="341.2768421052632" stroke="#1a1a1a" stroke-width="0.3" opacity="0.3"/>
<line x1="366.16842105263163" y1="341.02421052631576" x2="365.9157894736842" y2="341.2768421052632" stroke="#1a1a1a" stroke-width="0.3" opacity="0.3"/>
<line x1="366.16842105263163" y1="282.16105263157897" x2="484.4000000000001" y2="259.17157894736846" stroke="#1a1a1a" stroke-width="2" />
<line x1="366.16842105263163" y1="342.9189473684211" x2="484.4000000000001" y2="365.9084210526316" stroke="#1a1a1a" stroke-width="2" />
<line x1="366.16842105263163" y1="282.16105263157897" x2="366.16842105263163" y2="342.9189473684211" stroke="#1a1a1a" stroke-width="2" />
<line x1="484.4000000000001" y1="259.17157894736846" x2="484.4000000000001" y2="365.9084210526316" stroke="#1a1a1a" stroke-width="2" />
<line x1="372.16842105263163" y1="259.17157894736846" x2="366.16842105263163" y2="265.17157894736846" stroke="#1a1a1a" stroke-width="0.3" opacity="0.3"/>
<line x1="378.16842105263163" y1="259.17157894736846" x2="366.16842105263163" y2="271.17157894736846" stroke="#1a1a1a" stroke-width="0.3" opacity="0.3"/>
<line x1="384.16842105263163" y1="259.17157894736846" x2="366.16842105263163" y2="277.17157894736846" stroke="#1a1a1a" stroke-width="0.3" opacity="0.3"/>
<line x1="390.16842105263163" y1="259.17157894736846" x2="366.16842105263163" y2="283.17157894736846" stroke="#1a1a1a" stroke-width="0.3" opacity="0.3"/>
<line x1="396.16842105263163" y1="259.17157894736846" x2="366.16842105263163" y2="289.17157894736846" stroke="#1a1a1a" stroke-width="0.3" opacity="0.3"/>
<line x1="402.16842105263163" y1="259.17157894736846" x2="366.16842105263163" y2="295.17157894736846" stroke="#1a1a1a" stroke-width="0.3" opacity="0.3"/>
<line x1="408.16842105263163" y1="259.17157894736846" x2="366.16842105263163" y2="301.17157894736846" stroke="#1a1a1a" stroke-width="0.3" opacity="0.3"/>
<line x1="414.16842105263163" y1="259.17157894736846" x2="366.16842105263163" y2="307.17157894736846" stroke="#1a1a1a" stroke-width="0.3" opacity="0.3"/>
<line x1="420.16842105263163" y1="259.17157894736846" x2="366.16842105263163" y2="313.17157894736846" stroke="#1a1a1a" stroke-width="0.3" opacity="0.3"/>
<line x1="426.16842105263163" y1="259.17157894736846" x2="366.16842105263163" y2="319.17157894736846" stroke="#1a1a1a" stroke-width="0.3" opacity="0.3"/>
<line x1="432.16842105263163" y1="259.17157894736846" x2="366.16842105263163" y2="325.17157894736846" stroke="#1a1a1a" stroke-width="0.3" opacity="0.3"/>
<line x1="438.16842105263163" y1="259.17157894736846" x2="366.16842105263163" y2="331.17157894736846" stroke="#1a1a1a" stroke-width="0.3" opacity="0.3"/>
<line x1="444.16842105263163" y1="259.17157894736846" x2="366.16842105263163" y2="337.17157894736846" stroke="#1a1a1a" stroke-width="0.3" opacity="0.3"/>
<line x1="450.16842105263163" y1="259.17157894736846" x2="366.16842105263163" y2="343.17157894736846" stroke="#1a1a1a" stroke-width="0.3" opacity="0.3"/>
<line x1="456.16842105263163" y1="259.17157894736846" x2="366.16842105263163" y2="349.17157894736846" stroke="#1a1a1a" stroke-width="0.3" opacity="0.3"/>
<line x1="462.16842105263163" y1="259.17157894736846" x2="366.16842105263163" y2="355.17157894736846" stroke="#1a1a1a" stroke-width="0.3" opacity="0.3"/>
<line x1="468.16842105263163" y1="259.17157894736846" x2="366.16842105263163" y2="361.17157894736846" stroke="#1a1a1a" stroke-width="0.3" opacity="0.3"/>
<line x1="474.16842105263163" y1="259.17157894736846" x2="367.4315789473685" y2="365.9084210526316" stroke="#1a1a1a" stroke-width="0.3" opacity="0.3"/>
<line x1="480.16842105263163" y1="259.17157894736846" x2="373.4315789473685" y2="365.9084210526316" stroke="#1a1a1a" stroke-width="0.3" opacity="0.3"/>
<line x1="484.4000000000001" y1="260.94" x2="379.4315789473685" y2="365.9084210526316" stroke="#1a1a1a" stroke-width="0.3" opacity="0.3"/>
<line x1="484.4000000000001" y1="266.94" x2="385.4315789473685" y2="365.9084210526316" stroke="#1a1a1a" stroke-width="0.3" opacity="0.3"/>
<line x1="484.4000000000001" y1="272.94" x2="391.4315789473685" y2="365.9084210526316" stroke="#1a1a1a" stroke-width="0.3" opacity="0.3"/>
<line x1="484.4000000000001" y1="278.94" x2="397.4315789473685" y2="365.9084210526316" stroke="#1a1a1a" stroke-width="0.3" opacity="0.3"/>
<line x1="484.4000000000001" y1="284.94" x2="403.4315789473685" y2="365.9084210526316" stroke="#1a1a1a" stroke-width="0.3" opacity="0.3"/>
<line x1="484.4000000000001" y1="290.94" x2="409.4315789473685" y2="365.9084210526316" stroke="#1a1a1a" stroke-width="0.3" opacity="0.3"/>
<line x1="484.4000000000001" y1="296.94" x2="415.4315789473685" y2="365.9084210526316" stroke="#1a1a1a" stroke-width="0.3" opacity="0.3"/>
<line x1="484.4000000000001" y1="302.94" x2="421.4315789473685" y2="365.9084210526316" stroke="#1a1a1a" stroke-width="0.3" opacity="0.3"/>
<line x1="484.4000000000001" y1="308.94" x2="427.4315789473685" y2="365.9084210526316" stroke="#1a1a1a" stroke-width="0.3" opacity="0.3"/>
<line x1="484.4000000000001" y1="314.94" x2="433.4315789473685" y2="365.9084210526316" stroke="#1a1a1a" stroke-width="0.3" opacity="0.3"/>
<line x1="484.4000000000001" y1="320.94" x2="439.4315789473685" y2="365.9084210526316" stroke="#1a1a1a" stroke-width="0.3" opacity="0.3"/>
<line x1="484.4000000000001" y1="326.94" x2="445.4315789473685" y2="365.9084210526316" stroke="#1a1a1a" stroke-width="0.3" opacity="0.3"/>
<line x1="484.4000000000001" y1="332.94" x2="451.4315789473685" y2="365.9084210526316" stroke="#1a1a1a" stroke-width="0.3" opacity="0.3"/>
<line x1="484.4000000000001" y1="338.94" x2="457.4315789473685" y2="365.9084210526316" stroke="#1a1a1a" stroke-width="0.3" opacity="0.3"/>
<line x1="484.4000000000001" y1="344.94" x2="463.4315789473685" y2="365.9084210526316" stroke="#1a1a1a" stroke-width="0.3" opacity="0.3"/>
<line x1="484.4000000000001" y1="350.94" x2="469.4315789473685" y2="365.9084210526316" stroke="#1a1a1a" stroke-width="0.3" opacity="0.3"/>
<line x1="484.4000000000001" y1="356.94" x2="475.4315789473685" y2="365.9084210526316" stroke="#1a1a1a" stroke-width="0.3" opacity="0.3"/>
<line x1="484.4000000000001" y1="362.94" x2="481.4315789473685" y2="365.9084210526316" stroke="#1a1a1a" stroke-width="0.3" opacity="0.3"/>
<line x1="484.4000000000001" y1="259.17157894736846" x2="490.9684210526317" y2="259.17157894736846" stroke="#1a1a1a" stroke-width="2" />
<line x1="484.4000000000001" y1="365.9084210526316" x2="490.9684210526317" y2="365.9084210526316" stroke="#1a1a1a" stroke-width="2" />
<line x1="484.4000000000001" y1="259.17157894736846" x2="484.4000000000001" y2="365.9084210526316" stroke="#1a1a1a" stroke-width="2" />
<line x1="490.9684210526317" y1="259.17157894736846" x2="490.9684210526317" y2="365.9084210526316" stroke="#1a1a1a" stroke-width="2" />
<line x1="490.4000000000001" y1="259.17157894736846" x2="484.4000000000001" y2="265.17157894736846" stroke="#1a1a1a" stroke-width="0.3" opacity="0.3"/>
<line x1="490.9684210526317" y1="264.60315789473685" x2="484.4000000000001" y2="271.17157894736846" stroke="#1a1a1a" stroke-width="0.3" opacity="0.3"/>
<line x1="490.9684210526317" y1="270.60315789473685" x2="484.4000000000001" y2="277.17157894736846" stroke="#1a1a1a" stroke-width="0.3" opacity="0.3"/>
<line x1="490.9684210526317" y1="276.60315789473685" x2="484.4000000000001" y2="283.17157894736846" stroke="#1a1a1a" stroke-width="0.3" opacity="0.3"/>
<line x1="490.9684210526317" y1="282.60315789473685" x2="484.4000000000001" y2="289.17157894736846" stroke="#1a1a1a" stroke-width="0.3" opacity="0.3"/>
<line x1="490.9684210526317" y1="288.60315789473685" x2="484.4000000000001" y2="295.17157894736846" stroke="#1a1a1a" stroke-width="0.3" opacity="0.3"/>
<line x1="490.9684210526317" y1="294.60315789473685" x2="484.4000000000001" y2="301.17157894736846" stroke="#1a1a1a" stroke-width="0.3" opacity="0.3"/>
<line x1="490.9684210526317" y1="300.60315789473685" x2="484.4000000000001" y2="307.17157894736846" stroke="#1a1a1a" stroke-width="0.3" opacity="0.3"/>
<line x1="490.9684210526317" y1="306.60315789473685" x2="484.4000000000001" y2="313.17157894736846" stroke="#1a1a1a" stroke-width="0.3" opacity="0.3"/>
<line x1="490.9684210526317" y1="312.60315789473685" x2="484.4000000000001" y2="319.17157894736846" stroke="#1a1a1a" stroke-width="0.3" opacity="0.3"/>
<line x1="490.9684210526317" y1="318.60315789473685" x2="484.4000000000001" y2="325.17157894736846" stroke="#1a1a1a" stroke-width="0.3" opacity="0.3"/>
<line x1="490.9684210526317" y1="324.60315789473685" x2="484.4000000000001" y2="331.17157894736846" stroke="#1a1a1a" stroke-width="0.3" opacity="0.3"/>
<line x1="490.9684210526317" y1="330.60315789473685" x2="484.4000000000001" y2="337.17157894736846" stroke="#1a1a1a" stroke-width="0.3" opacity="0.3"/>
<line x1="490.9684210526317" y1="336.60315789473685" x2="484.4000000000001" y2="343.17157894736846" stroke="#1a1a1a" stroke-width="0.3" opacity="0.3"/>
<line x1="490.9684210526317" y1="342.60315789473685" x2="484.4000000000001" y2="349.17157894736846" stroke="#1a1a1a" stroke-width="0.3" opacity="0.3"/>
<line x1="490.9684210526317" y1="348.60315789473685" x2="484.4000000000001" y2="355.17157894736846" stroke="#1a1a1a" stroke-width="0.3" opacity="0.3"/>
<line x1="490.9684210526317" y1="354.60315789473685" x2="484.4000000000001" y2="361.17157894736846" stroke="#1a1a1a" stroke-width="0.3" opacity="0.3"/>
<line x1="490.9684210526317" y1="360.60315789473685" x2="485.66315789473697" y2="365.9084210526316" stroke="#1a1a1a" stroke-width="0.3" opacity="0.3"/>
<line x1="490.9684210526317" y1="271.4873684210527" x2="510.67368421052646" y2="271.4873684210527" stroke="#1a1a1a" stroke-width="2" />
<line x1="490.9684210526317" y1="353.59263157894736" x2="510.67368421052646" y2="353.59263157894736" stroke="#1a1a1a" stroke-width="2" />
<line x1="490.9684210526317" y1="271.4873684210527" x2="490.9684210526317" y2="353.59263157894736" stroke="#1a1a1a" stroke-width="2" />
<line x1="510.67368421052646" y1="271.4873684210527" x2="510.67368421052646" y2="353.59263157894736" stroke="#1a1a1a" stroke-width="2" />
<line x1="496.9684210526317" y1="271.4873684210527" x2="490.9684210526317" y2="277.4873684210527" stroke="#1a1a1a" stroke-width="0.3" opacity="0.3"/>
<line x1="502.9684210526317" y1="271.4873684210527" x2="490.9684210526317" y2="283.4873684210527" stroke="#1a1a1a" stroke-width="0.3" opacity="0.3"/>
<line x1="508.9684210526317" y1="271.4873684210527" x2="490.9684210526317" y2="289.4873684210527" stroke="#1a1a1a" stroke-width="0.3" opacity="0.3"/>
<line x1="510.67368421052646" y1="275.7821052631579" x2="490.9684210526317" y2="295.4873684210527" stroke="#1a1a1a" stroke-width="0.3" opacity="0.3"/>
<line x1="510.67368421052646" y1="281.7821052631579" x2="490.9684210526317" y2="301.4873684210527" stroke="#1a1a1a" stroke-width="0.3" opacity="0.3"/>
<line x1="510.67368421052646" y1="287.7821052631579" x2="490.9684210526317" y2="307.4873684210527" stroke="#1a1a1a" stroke-width="0.3" opacity="0.3"/>
<line x1="510.67368421052646" y1="293.7821052631579" x2="490.9684210526317" y2="313.4873684210527" stroke="#1a1a1a" stroke-width="0.3" opacity="0.3"/>
<line x1="510.67368421052646" y1="299.7821052631579" x2="490.9684210526317" y2="319.4873684210527" stroke="#1a1a1a" stroke-width="0.3" opacity="0.3"/>
<line x1="510.67368421052646" y1="305.7821052631579" x2="490.9684210526317" y2="325.4873684210527" stroke="#1a1a1a" stroke-width="0.3" opacity="0.3"/>
<line x1="510.67368421052646" y1="311.7821052631579" x2="490.9684210526317" y2="331.4873684210527" stroke="#1a1a1a" stroke-width="0.3" opacity="0.3"/>
<line x1="510.67368421052646" y1="317.7821052631579" x2="490.9684210526317" y2="337.4873684210527" stroke="#1a1a1a" stroke-width="0.3" opacity="0.3"/>
<line x1="510.67368421052646" y1="323.7821052631579" x2="490.9684210526317" y2="343.4873684210527" stroke="#1a1a1a" stroke-width="0.3" opacity="0.3"/>
<line x1="510.67368421052646" y1="329.7821052631579" x2="490.9684210526317" y2="349.4873684210527" stroke="#1a1a1a" stroke-width="0.3" opacity="0.3"/>
<line x1="510.67368421052646" y1="335.7821052631579" x2="492.863157894737" y2="353.59263157894736" stroke="#1a1a1a" stroke-width="0.3" opacity="0.3"/>
<line x1="510.67368421052646" y1="341.7821052631579" x2="498.863157894737" y2="353.59263157894736" stroke="#1a1a1a" stroke-width="0.3" opacity="0.3"/>
<line x1="510.67368421052646" y1="347.7821052631579" x2="504.863157894737" y2="353.59263157894736" stroke="#1a1a1a" stroke-width="0.3" opacity="0.3"/>
<line x1="510.67368421052646" y1="293.2452631578948" x2="536.9473684210528" y2="293.2452631578948" stroke="#1a1a1a" stroke-width="2" />
<line x1="510.67368421052646" y1="331.83473684210526" x2="536.9473684210528" y2="331.83473684210526" stroke="#1a1a1a" stroke-width="2" />
<line x1="510.67368421052646" y1="293.2452631578948" x2="510.67368421052646" y2="331.83473684210526" stroke="#1a1a1a" stroke-width="2" />
<line x1="536.9473684210528" y1="293.2452631578948" x2="536.9473684210528" y2="331.83473684210526" stroke="#1a1a1a" stroke-width="2" />
<line x1="516.6736842105265" y1="293.2452631578948" x2="510.67368421052646" y2="299.24526315789484" stroke="#1a1a1a" stroke-width="0.3" opacity="0.3"/>
<line x1="522.6736842105265" y1="293.2452631578948" x2="510.67368421052646" y2="305.24526315789484" stroke="#1a1a1a" stroke-width="0.3" opacity="0.3"/>
<line x1="528.6736842105265" y1="293.2452631578948" x2="510.67368421052646" y2="311.24526315789484" stroke="#1a1a1a" stroke-width="0.3" opacity="0.3"/>
<line x1="534.6736842105265" y1="293.2452631578948" x2="510.67368421052646" y2="317.24526315789484" stroke="#1a1a1a" stroke-width="0.3" opacity="0.3"/>
<line x1="536.9473684210528" y1="296.97157894736847" x2="510.67368421052646" y2="323.24526315789484" stroke="#1a1a1a" stroke-width="0.3" opacity="0.3"/>
<line x1="536.9473684210528" y1="302.97157894736847" x2="510.67368421052646" y2="329.24526315789484" stroke="#1a1a1a" stroke-width="0.3" opacity="0.3"/>
<line x1="536.9473684210528" y1="308.97157894736847" x2="514.084210526316" y2="331.83473684210526" stroke="#1a1a1a" stroke-width="0.3" opacity="0.3"/>
<line x1="536.9473684210528" y1="314.97157894736847" x2="520.084210526316" y2="331.83473684210526" stroke="#1a1a1a" stroke-width="0.3" opacity="0.3"/>
<line x1="536.9473684210528" y1="320.97157894736847" x2="526.084210526316" y2="331.83473684210526" stroke="#1a1a1a" stroke-width="0.3" opacity="0.3"/>
<line x1="536.9473684210528" y1="326.97157894736847" x2="532.084210526316" y2="331.83473684210526" stroke="#1a1a1a" stroke-width="0.3" opacity="0.3"/>
<line x1="536.9473684210528" y1="294.88736842105266" x2="602.6315789473687" y2="294.88736842105266" stroke="#1a1a1a" stroke-width="2" />
<line x1="536.9473684210528" y1="330.1926315789474" x2="602.6315789473687" y2="330.1926315789474" stroke="#1a1a1a" stroke-width="2" />
<line x1="536.9473684210528" y1="294.88736842105266" x2="536.9473684210528" y2="330.1926315789474" stroke="#1a1a1a" stroke-width="2" />
<line x1="602.6315789473687" y1="294.88736842105266" x2="602.6315789473687" y2="330.1926315789474" stroke="#1a1a1a" stroke-width="2" />
<line x1="542.9473684210528" y1="294.88736842105266" x2="536.9473684210528" y2="300.88736842105266" stroke="#1a1a1a" stroke-width="0.3" opacity="0.3"/>
<line x1="548.9473684210528" y1="294.88736842105266" x2="536.9473684210528" y2="306.88736842105266" stroke="#1a1a1a" stroke-width="0.3" opacity="0.3"/>
<line x1="554.9473684210528" y1="294.88736842105266" x2="536.9473684210528" y2="312.88736842105266" stroke="#1a1a1a" stroke-width="0.3" opacity="0.3"/>
<line x1="560.9473684210528" y1="294.88736842105266" x2="536.9473684210528" y2="318.88736842105266" stroke="#1a1a1a" stroke-width="0.3" opacity="0.3"/>
<line x1="566.9473684210528" y1="294.88736842105266" x2="536.9473684210528" y2="324.88736842105266" stroke="#1a1a1a" stroke-width="0.3" opacity="0.3"/>
<line x1="572.9473684210528" y1="294.88736842105266" x2="537.6421052631581" y2="330.1926315789474" stroke="#1a1a1a" stroke-width="0.3" opacity="0.3"/>
<line x1="578.9473684210528" y1="294.88736842105266" x2="543.6421052631581" y2="330.1926315789474" stroke="#1a1a1a" stroke-width="0.3" opacity="0.3"/>
<line x1="584.9473684210528" y1="294.88736842105266" x2="549.6421052631581" y2="330.1926315789474" stroke="#1a1a1a" stroke-width="0.3" opacity="0.3"/>
<line x1="590.9473684210528" y1="294.88736842105266" x2="555.6421052631581" y2="330.1926315789474" stroke="#1a1a1a" stroke-width="0.3" opacity="0.3"/>
<line x1="596.9473684210528" y1="294.88736842105266" x2="561.6421052631581" y2="330.1926315789474" stroke="#1a1a1a" stroke-width="0.3" opacity="0.3"/>
<line x1="602.6315789473687" y1="295.2031578947368" x2="567.6421052631581" y2="330.1926315789474" stroke="#1a1a1a" stroke-width="0.3" opacity="0.3"/>
<line x1="602.6315789473687" y1="301.2031578947368" x2="573.6421052631581" y2="330.1926315789474" stroke="#1a1a1a" stroke-width="0.3" opacity="0.3"/>
<line x1="602.6315789473687" y1="307.2031578947368" x2="579.6421052631581" y2="330.1926315789474" stroke="#1a1a1a" stroke-width="0.3" opacity="0.3"/>
<line x1="602.6315789473687" y1="313.2031578947368" x2="585.6421052631581" y2="330.1926315789474" stroke="#1a1a1a" stroke-width="0.3" opacity="0.3"/>
<line x1="602.6315789473687" y1="319.2031578947368" x2="591.6421052631581" y2="330.1926315789474" stroke="#1a1a1a" stroke-width="0.3" opacity="0.3"/>
<line x1="602.6315789473687" y1="325.2031578947368" x2="597.6421052631581" y2="330.1926315789474" stroke="#1a1a1a" stroke-width="0.3" opacity="0.3"/>
<line x1="602.6315789473687" y1="298.17157894736846" x2="714.2947368421055" y2="298.17157894736846" stroke="#1a1a1a" stroke-width="2" />
<line x1="602.6315789473687" y1="326.9084210526316" x2="714.2947368421055" y2="326.9084210526316" stroke="#1a1a1a" stroke-width="2" />
<line x1="602.6315789473687" y1="298.17157894736846" x2="602.6315789473687" y2="326.9084210526316" stroke="#1a1a1a" stroke-width="2" />
<line x1="714.2947368421055" y1="298.17157894736846" x2="714.2947368421055" y2="326.9084210526316" stroke="#1a1a1a" stroke-width="2" />
<line x1="608.6315789473687" y1="298.17157894736846" x2="602.6315789473687" y2="304.17157894736846" stroke="#1a1a1a" stroke-width="0.3" opacity="0.3"/>
<line x1="614.6315789473687" y1="298.17157894736846" x2="602.6315789473687" y2="310.17157894736846" stroke="#1a1a1a" stroke-width="0.3" opacity="0.3"/>
<line x1="620.6315789473687" y1="298.17157894736846" x2="602.6315789473687" y2="316.17157894736846" stroke="#1a1a1a" stroke-width="0.3" opacity="0.3"/>
<line x1="626.6315789473687" y1="298.17157894736846" x2="602.6315789473687" y2="322.17157894736846" stroke="#1a1a1a" stroke-width="0.3" opacity="0.3"/>
<line x1="632.6315789473687" y1="298.17157894736846" x2="603.8947368421055" y2="326.9084210526316" stroke="#1a1a1a" stroke-width="0.3" opacity="0.3"/>
<line x1="638.6315789473687" y1="298.17157894736846" x2="609.8947368421055" y2="326.9084210526316" stroke="#1a1a1a" stroke-width="0.3" opacity="0.3"/>
<line x1="644.6315789473687" y1="298.17157894736846" x2="615.8947368421055" y2="326.9084210526316" stroke="#1a1a1a" stroke-width="0.3" opacity="0.3"/>
<line x1="650.6315789473687" y1="298.17157894736846" x2="621.8947368421055" y2="326.9084210526316" stroke="#1a1a1a" stroke-width="0.3" opacity="0.3"/>
<line x1="656.6315789473687" y1="298.17157894736846" x2="627.8947368421055" y2="326.9084210526316" stroke="#1a1a1a" stroke-width="0.3" opacity="0.3"/>
<line x1="662.6315789473687" y1="298.17157894736846" x2="633.8947368421055" y2="326.9084210526316" stroke="#1a1a1a" stroke-width="0.3" opacity="0.3"/>
<line x1="668.6315789473687" y1="298.17157894736846" x2="639.8947368421055" y2="326.9084210526316" stroke="#1a1a1a" stroke-width="0.3" opacity="0.3"/>
<line x1="674.6315789473687" y1="298.17157894736846" x2="645.8947368421055" y2="326.9084210526316" stroke="#1a1a1a" stroke-width="0.3" opacity="0.3"/>
<line x1="680.6315789473687" y1="298.17157894736846" x2="651.8947368421055" y2="326.9084210526316" stroke="#1a1a1a" stroke-width="0.3" opacity="0.3"/>
<line x1="686.6315789473687" y1="298.17157894736846" x2="657.8947368421055" y2="326.9084210526316" stroke="#1a1a1a" stroke-width="0.3" opacity="0.3"/>
<line x1="692.6315789473687" y1="298.17157894736846" x2="663.8947368421055" y2="326.9084210526316" stroke="#1a1a1a" stroke-width="0.3" opacity="0.3"/>
<line x1="698.6315789473687" y1="298.17157894736846" x2="669.8947368421055" y2="326.9084210526316" stroke="#1a1a1a" stroke-width="0.3" opacity="0.3"/>
<line x1="704.6315789473687" y1="298.17157894736846" x2="675.8947368421055" y2="326.9084210526316" stroke="#1a1a1a" stroke-width="0.3" opacity="0.3"/>
<line x1="710.6315789473687" y1="298.17157894736846" x2="681.8947368421055" y2="326.9084210526316" stroke="#1a1a1a" stroke-width="0.3" opacity="0.3"/>
<line x1="714.2947368421055" y1="300.5084210526316" x2="687.8947368421055" y2="326.9084210526316" stroke="#1a1a1a" stroke-width="0.3" opacity="0.3"/>
<line x1="714.2947368421055" y1="306.5084210526316" x2="693.8947368421055" y2="326.9084210526316" stroke="#1a1a1a" stroke-width="0.3" opacity="0.3"/>
<line x1="714.2947368421055" y1="312.5084210526316" x2="699.8947368421055" y2="326.9084210526316" stroke="#1a1a1a" stroke-width="0.3" opacity="0.3"/>
<line x1="714.2947368421055" y1="318.5084210526316" x2="705.8947368421055" y2="326.9084210526316" stroke="#1a1a1a" stroke-width="0.3" opacity="0.3"/>
<line x1="714.2947368421055" y1="324.5084210526316" x2="711.8947368421055" y2="326.9084210526316" stroke="#1a1a1a" stroke-width="0.3" opacity="0.3"/>
<line x1="714.2947368421055" y1="298.17157894736846" x2="734.0000000000002" y2="302.68736842105267" stroke="#1a1a1a" stroke-width="2" />
<line x1="714.2947368421055" y1="326.9084210526316" x2="734.0000000000002" y2="322.3926315789474" stroke="#1a1a1a" stroke-width="2" />
<line x1="714.2947368421055" y1="298.17157894736846" x2="714.2947368421055" y2="326.9084210526316" stroke="#1a1a1a" stroke-width="2" />
<line x1="734.0000000000002" y1="302.68736842105267" x2="734.0000000000002" y2="322.3926315789474" stroke="#1a1a1a" stroke-width="2" />
<line x1="720.2947368421055" y1="298.17157894736846" x2="714.2947368421055" y2="304.17157894736846" stroke="#1a1a1a" stroke-width="0.3" opacity="0.3"/>
<line x1="726.2947368421055" y1="298.17157894736846" x2="714.2947368421055" y2="310.17157894736846" stroke="#1a1a1a" stroke-width="0.3" opacity="0.3"/>
<line x1="732.2947368421055" y1="298.17157894736846" x2="714.2947368421055" y2="316.17157894736846" stroke="#1a1a1a" stroke-width="0.3" opacity="0.3"/>
<line x1="734.0000000000002" y1="302.46631578947375" x2="714.2947368421055" y2="322.17157894736846" stroke="#1a1a1a" stroke-width="0.3" opacity="0.3"/>
<line x1="734.0000000000002" y1="308.46631578947375" x2="715.5578947368424" y2="326.9084210526316" stroke="#1a1a1a" stroke-width="0.3" opacity="0.3"/>
<line x1="734.0000000000002" y1="314.46631578947375" x2="721.5578947368424" y2="326.9084210526316" stroke="#1a1a1a" stroke-width="0.3" opacity="0.3"/>
<line x1="734.0000000000002" y1="320.46631578947375" x2="727.5578947368424" y2="326.9084210526316" stroke="#1a1a1a" stroke-width="0.3" opacity="0.3"/>
<line x1="734.0000000000002" y1="326.46631578947375" x2="733.5578947368424" y2="326.9084210526316" stroke="#1a1a1a" stroke-width="0.3" opacity="0.3"/>
<text x="422.0000000000001" y="415.9084210526316" font-family="Arial, Helvetica, sans-serif" font-size="11" text-anchor="middle" font-weight="bold" fill="#1a1a1a">A) MAIN CROSS-SECTION VIEW (FRONTA)</text>
<line x1="110" y1="343.2768421052632" x2="110" y2="385.9084210526316" stroke="#1a1a1a" stroke-width="0.6" />
<line x1="195.38947368421054" y1="343.2768421052632" x2="195.38947368421054" y2="385.9084210526316" stroke="#1a1a1a" stroke-width="0.6" />
<line x1="110" y1="381.9084210526316" x2="195.38947368421054" y2="381.9084210526316" stroke="#1a1a1a" stroke-width="0.6" marker-start="url(#dim-arrow-l)" marker-end="url(#dim-arrow-r)"/>
<text x="152.69473684210527" y="378.9084210526316" font-family="Arial, Helvetica, sans-serif" font-size="8" text-anchor="middle" font-weight="normal" fill="#1a1a1a">5,20</text>
<line x1="195.38947368421054" y1="343.2768421052632" x2="195.38947368421054" y2="405.9084210526316" stroke="#1a1a1a" stroke-width="0.6" />
<line x1="366.16842105263163" y1="343.2768421052632" x2="366.16842105263163" y2="405.9084210526316" stroke="#1a1a1a" stroke-width="0.6" />
<line x1="195.38947368421054" y1="401.9084210526316" x2="366.16842105263163" y2="401.9084210526316" stroke="#1a1a1a" stroke-width="0.6" marker-start="url(#dim-arrow-l)" marker-end="url(#dim-arrow-r)"/>
<text x="280.7789473684211" y="398.9084210526316" font-family="Arial, Helvetica, sans-serif" font-size="8" text-anchor="middle" font-weight="normal" fill="#1a1a1a">10,40</text>
<line x1="366.16842105263163" y1="344.9189473684211" x2="366.16842105263163" y2="425.9084210526316" stroke="#1a1a1a" stroke-width="0.6" />
<line x1="484.4000000000001" y1="367.9084210526316" x2="484.4000000000001" y2="425.9084210526316" stroke="#1a1a1a" stroke-width="0.6" />
<line x1="366.16842105263163" y1="421.9084210526316" x2="484.4000000000001" y2="421.9084210526316" stroke="#1a1a1a" stroke-width="0.6" marker-start="url(#dim-arrow-l)" marker-end="url(#dim-arrow-r)"/>
<text x="425.28421052631586" y="418.9084210526316" font-family="Arial, Helvetica, sans-serif" font-size="8" text-anchor="middle" font-weight="normal" fill="#1a1a1a">7,20</text>
<line x1="484.4000000000001" y1="367.9084210526316" x2="484.4000000000001" y2="385.9084210526316" stroke="#1a1a1a" stroke-width="0.6" />
<line x1="490.9684210526317" y1="367.9084210526316" x2="490.9684210526317" y2="385.9084210526316" stroke="#1a1a1a" stroke-width="0.6" />
<line x1="484.4000000000001" y1="381.9084210526316" x2="490.9684210526317" y2="381.9084210526316" stroke="#1a1a1a" stroke-width="0.6" marker-start="url(#dim-arrow-l)" marker-end="url(#dim-arrow-r)"/>
<text x="487.6842105263159" y="378.9084210526316" font-family="Arial, Helvetica, sans-serif" font-size="8" text-anchor="middle" font-weight="normal" fill="#1a1a1a">0,40</text>
<line x1="490.9684210526317" y1="355.59263157894736" x2="490.9684210526317" y2="405.9084210526316" stroke="#1a1a1a" stroke-width="0.6" />
<line x1="510.67368421052646" y1="355.59263157894736" x2="510.67368421052646" y2="405.9084210526316" stroke="#1a1a1a" stroke-width="0.6" />
<line x1="490.9684210526317" y1="401.9084210526316" x2="510.67368421052646" y2="401.9084210526316" stroke="#1a1a1a" stroke-width="0.6" marker-start="url(#dim-arrow-l)" marker-end="url(#dim-arrow-r)"/>
<text x="500.82105263157905" y="398.9084210526316" font-family="Arial, Helvetica, sans-serif" font-size="8" text-anchor="middle" font-weight="normal" fill="#1a1a1a">1,20</text>
<line x1="510.67368421052646" y1="333.83473684210526" x2="510.67368421052646" y2="425.9084210526316" stroke="#1a1a1a" stroke-width="0.6" />
<line x1="536.9473684210528" y1="333.83473684210526" x2="536.9473684210528" y2="425.9084210526316" stroke="#1a1a1a" stroke-width="0.6" />
<line x1="510.67368421052646" y1="421.9084210526316" x2="536.9473684210528" y2="421.9084210526316" stroke="#1a1a1a" stroke-width="0.6" marker-start="url(#dim-arrow-l)" marker-end="url(#dim-arrow-r)"/>
<text x="523.8105263157896" y="418.9084210526316" font-family="Arial, Helvetica, sans-serif" font-size="8" text-anchor="middle" font-weight="normal" fill="#1a1a1a">1,60</text>
<line x1="536.9473684210528" y1="332.1926315789474" x2="536.9473684210528" y2="385.9084210526316" stroke="#1a1a1a" stroke-width="0.6" />
<line x1="602.6315789473687" y1="332.1926315789474" x2="602.6315789473687" y2="385.9084210526316" stroke="#1a1a1a" stroke-width="0.6" />
<line x1="536.9473684210528" y1="381.9084210526316" x2="602.6315789473687" y2="381.9084210526316" stroke="#1a1a1a" stroke-width="0.6" marker-start="url(#dim-arrow-l)" marker-end="url(#dim-arrow-r)"/>
<text x="569.7894736842107" y="378.9084210526316" font-family="Arial, Helvetica, sans-serif" font-size="8" text-anchor="middle" font-weight="normal" fill="#1a1a1a">4</text>
<line x1="602.6315789473687" y1="328.9084210526316" x2="602.6315789473687" y2="405.9084210526316" stroke="#1a1a1a" stroke-width="0.6" />
<line x1="714.2947368421055" y1="328.9084210526316" x2="714.2947368421055" y2="405.9084210526316" stroke="#1a1a1a" stroke-width="0.6" />
<line x1="602.6315789473687" y1="401.9084210526316" x2="714.2947368421055" y2="401.9084210526316" stroke="#1a1a1a" stroke-width="0.6" marker-start="url(#dim-arrow-l)" marker-end="url(#dim-arrow-r)"/>
<text x="658.4631578947372" y="398.9084210526316" font-family="Arial, Helvetica, sans-serif" font-size="8" text-anchor="middle" font-weight="normal" fill="#1a1a1a">6,80</text>
<line x1="714.2947368421055" y1="328.9084210526316" x2="714.2947368421055" y2="425.9084210526316" stroke="#1a1a1a" stroke-width="0.6" />
<line x1="734.0000000000002" y1="324.3926315789474" x2="734.0000000000002" y2="425.9084210526316" stroke="#1a1a1a" stroke-width="0.6" />
<line x1="714.2947368421055" y1="421.9084210526316" x2="734.0000000000002" y2="421.9084210526316" stroke="#1a1a1a" stroke-width="0.6" marker-start="url(#dim-arrow-l)" marker-end="url(#dim-arrow-r)"/>
<text x="724.1473684210529" y="418.9084210526316" font-family="Arial, Helvetica, sans-serif" font-size="8" text-anchor="middle" font-weight="normal" fill="#1a1a1a">1,20</text>
<line x1="110" y1="367.9084210526316" x2="110" y2="457.9084210526316" stroke="#1a1a1a" stroke-width="0.6" />
<line x1="734.0000000000002" y1="367.9084210526316" x2="734.0000000000002" y2="457.9084210526316" stroke="#1a1a1a" stroke-width="0.6" />
<line x1="110" y1="453.9084210526316" x2="734.0000000000002" y2="453.9084210526316" stroke="#1a1a1a" stroke-width="0.6" marker-start="url(#dim-arrow-l)" marker-end="url(#dim-arrow-r)"/>
<text x="422.0000000000001" y="450.9084210526316" font-family="Arial, Helvetica, sans-serif" font-size="9" text-anchor="middle" font-weight="bold" fill="#1a1a1a">38</text>
<line x1="152.69473684210527" y1="283.80315789473684" x2="152.69473684210527" y2="249.17157894736846" stroke="#1a1a1a" stroke-width="0.6" />
<text x="152.69473684210527" y="245.17157894736846" font-family="Arial, Helvetica, sans-serif" font-size="8" text-anchor="middle" font-weight="normal" fill="#1a1a1a">M3,5 x 0,35</text>
<line x1="280.7789473684211" y1="283.80315789473684" x2="280.7789473684211" y2="229.17157894736846" stroke="#1a1a1a" stroke-width="0.6" />
<text x="280.7789473684211" y="225.17157894736846" font-family="Arial, Helvetica, sans-serif" font-size="8" text-anchor="middle" font-weight="normal" fill="#1a1a1a">Ø3,50</text>
<line x1="425.28421052631586" y1="259.17157894736846" x2="425.28421052631586" y2="235.17157894736846" stroke="#1a1a1a" stroke-width="0.6" />
<text x="425.28421052631586" y="231.17157894736846" font-family="Arial, Helvetica, sans-serif" font-size="8" text-anchor="middle" font-weight="normal" fill="#1a1a1a">Ø3,70 → Ø6,50</text>
<line x1="487.6842105263159" y1="259.17157894736846" x2="487.6842105263159" y2="215.17157894736846" stroke="#1a1a1a" stroke-width="0.6" />
<text x="487.6842105263159" y="211.17157894736846" font-family="Arial, Helvetica, sans-serif" font-size="8" text-anchor="middle" font-weight="normal" fill="#1a1a1a">Ø6,50</text>
<line x1="500.82105263157905" y1="271.4873684210527" x2="500.82105263157905" y2="221.17157894736846" stroke="#1a1a1a" stroke-width="0.6" />
<text x="500.82105263157905" y="217.17157894736846" font-family="Arial, Helvetica, sans-serif" font-size="8" text-anchor="middle" font-weight="normal" fill="#1a1a1a">Ø5</text>
<line x1="523.8105263157896" y1="293.2452631578948" x2="523.8105263157896" y2="201.17157894736846" stroke="#1a1a1a" stroke-width="0.6" />
<text x="523.8105263157896" y="197.17157894736846" font-family="Arial, Helvetica, sans-serif" font-size="8" text-anchor="middle" font-weight="normal" fill="#1a1a1a">Ø2,35</text>
<line x1="569.7894736842107" y1="294.88736842105266" x2="569.7894736842107" y2="207.17157894736846" stroke="#1a1a1a" stroke-width="0.6" />
<text x="569.7894736842107" y="203.17157894736846" font-family="Arial, Helvetica, sans-serif" font-size="8" text-anchor="middle" font-weight="normal" fill="#1a1a1a">Ø2,15</text>
<line x1="658.4631578947372" y1="298.17157894736846" x2="658.4631578947372" y2="187.17157894736846" stroke="#1a1a1a" stroke-width="0.6" />
<text x="658.4631578947372" y="183.17157894736846" font-family="Arial, Helvetica, sans-serif" font-size="8" text-anchor="middle" font-weight="normal" fill="#1a1a1a">Ø1,75</text>
<line x1="724.1473684210529" y1="298.17157894736846" x2="724.1473684210529" y2="193.17157894736846" stroke="#1a1a1a" stroke-width="0.6" />
<text x="724.1473684210529" y="189.17157894736846" font-family="Arial, Helvetica, sans-serif" font-size="8" text-anchor="middle" font-weight="normal" fill="#1a1a1a">Ø1,75 → Ø1,20</text>
<circle cx="1090" cy="110" r="53.36842105263158" fill="none" stroke="#1a1a1a" stroke-width="2"/>
<line x1="1024.6315789473683" y1="110" x2="1155.3684210526317" y2="110" stroke="#1a1a1a" stroke-width="0.4" stroke-dasharray="12 3 3 3"/>
<line x1="1090" y1="44.63157894736842" x2="1090" y2="175.3684210526316" stroke="#1a1a1a" stroke-width="0.4" stroke-dasharray="12 3 3 3"/>
<text x="1090" y="211.3684210526316" font-family="Arial, Helvetica, sans-serif" font-size="10" text-anchor="middle" font-weight="bold" fill="#1a1a1a">B) TOP VIEW</text>
<line x1="873.1494736842105" y1="410.3936842105263" x2="1026.8505263157895" y2="410.3936842105263" stroke="#1a1a1a" stroke-width="2" />
<line x1="873.1494736842105" y1="513.8463157894737" x2="1026.8505263157895" y2="513.8463157894737" stroke="#1a1a1a" stroke-width="2" />
<line x1="873.1494736842105" y1="410.3936842105263" x2="873.1494736842105" y2="513.8463157894737" stroke="#1a1a1a" stroke-width="2" />
<line x1="1026.8505263157895" y1="410.3936842105263" x2="1026.8505263157895" y2="513.8463157894737" stroke="#1a1a1a" stroke-width="2" />
<line x1="863.1494736842105" y1="462.12" x2="1036.8505263157895" y2="462.12" stroke="#1a1a1a" stroke-width="0.4" stroke-dasharray="12 3 3 3"/>
<polyline points="873.1494736842105,415.3936842105263 880.8345263157895,412.3936842105263 888.5195789473685,415.3936842105263 888.5195789473685,415.3936842105263 896.2046315789474,412.3936842105263 903.8896842105264,415.3936842105263 903.8896842105264,415.3936842105263 911.5747368421054,412.3936842105263 919.2597894736844,415.3936842105263 919.2597894736844,415.3936842105263 926.9448421052633,412.3936842105263 934.6298947368423,415.3936842105263 934.6298947368423,415.3936842105263 942.3149473684213,412.3936842105263 950.0000000000002,415.3936842105263 950.0000000000002,415.3936842105263 957.6850526315792,412.3936842105263 965.3701052631582,415.3936842105263 965.3701052631582,415.3936842105263 973.0551578947371,412.3936842105263 980.7402105263161,415.3936842105263 980.7402105263161,415.3936842105263 988.4252631578951,412.3936842105263 996.110315789474,415.3936842105263 996.110315789474,415.3936842105263 1003.795368421053,412.3936842105263 1011.480421052632,415.3936842105263 1011.480421052632,415.3936842105263 1019.1654736842107,412.3936842105263 1026.8505263157895,415.3936842105263" fill="none" stroke="#1a1a1a" stroke-width="0.8"/>
<polyline points="873.1494736842105,508.8463157894737 880.8345263157895,511.8463157894737 888.5195789473685,508.8463157894737 888.5195789473685,508.8463157894737 896.2046315789474,511.8463157894737 903.8896842105264,508.8463157894737 903.8896842105264,508.8463157894737 911.5747368421054,511.8463157894737 919.2597894736844,508.8463157894737 919.2597894736844,508.8463157894737 926.9448421052633,511.8463157894737 934.6298947368423,508.8463157894737 934.6298947368423,508.8463157894737 942.3149473684213,511.8463157894737 950.0000000000002,508.8463157894737 950.0000000000002,508.8463157894737 957.6850526315792,511.8463157894737 965.3701052631582,508.8463157894737 965.3701052631582,508.8463157894737 973.0551578947371,511.8463157894737 980.7402105263161,508.8463157894737 980.7402105263161,508.8463157894737 988.4252631578951,511.8463157894737 996.110315789474,508.8463157894737 996.110315789474,508.8463157894737 1003.795368421053,511.8463157894737 1011.480421052632,508.8463157894737 1011.480421052632,508.8463157894737 1019.1654736842107,511.8463157894737 1026.8505263157895,508.8463157894737" fill="none" stroke="#1a1a1a" stroke-width="0.8"/>
<line x1="873.1494736842105" y1="515.8463157894737" x2="873.1494736842105" y2="531.8463157894737" stroke="#1a1a1a" stroke-width="0.6" />
<line x1="1026.8505263157895" y1="515.8463157894737" x2="1026.8505263157895" y2="531.8463157894737" stroke="#1a1a1a" stroke-width="0.6" />
<line x1="873.1494736842105" y1="527.8463157894737" x2="1026.8505263157895" y2="527.8463157894737" stroke="#1a1a1a" stroke-width="0.6" marker-start="url(#dim-arrow-l)" marker-end="url(#dim-arrow-r)"/>
<text x="950" y="525.8463157894737" font-family="Arial, Helvetica, sans-serif" font-size="8" text-anchor="middle" font-weight="normal" fill="#1a1a1a">5,20</text>
<line x1="1028.8505263157895" y1="410.3936842105263" x2="1044.8505263157895" y2="410.3936842105263" stroke="#1a1a1a" stroke-width="0.6" />
<line x1="1028.8505263157895" y1="513.8463157894737" x2="1044.8505263157895" y2="513.8463157894737" stroke="#1a1a1a" stroke-width="0.6" />
<line x1="1040.8505263157895" y1="410.3936842105263" x2="1040.8505263157895" y2="513.8463157894737" stroke="#1a1a1a" stroke-width="0.6" marker-start="url(#dim-arrow-l)" marker-end="url(#dim-arrow-r)"/>
<text x="1046.8505263157895" y="465.12" font-family="Arial, Helvetica, sans-serif" font-size="8" text-anchor="start" font-weight="normal" fill="#1a1a1a">Ø3,50</text>
<text x="950" y="541.8463157894737" font-family="Arial, Helvetica, sans-serif" font-size="9" text-anchor="middle" font-weight="bold" fill="#1a1a1a">M3,5</text>
<text x="950" y="396.3936842105263" font-family="Arial, Helvetica, sans-serif" font-size="10" text-anchor="middle" font-weight="bold" fill="#1a1a1a">D) DETAIL</text>


<text x="870" y="601" font-family="Arial, Helvetica, sans-serif" font-size="10" text-anchor="start" font-weight="bold" fill="#1a1a1a">NOTES:</text>
<text x="870" y="617" font-family="Arial, Helvetica, sans-serif" font-size="8" text-anchor="start" font-weight="normal" fill="#1a1a1a">1. DIMENSÕES EM MM.</text>
<text x="870" y="631" font-family="Arial, Helvetica, sans-serif" font-size="8" text-anchor="start" font-weight="normal" fill="#1a1a1a">2. ROSCA M3,5 ESPECIFICADA PELO USUÁRIO.</text>
<text x="870" y="645" font-family="Arial, Helvetica, sans-serif" font-size="8" text-anchor="start" font-weight="normal" fill="#1a1a1a">3. PRELIMINAR GERADO DO PPTX PADRAO RONALDO.</text>
<text x="870" y="659" font-family="Arial, Helvetica, sans-serif" font-size="8" text-anchor="start" font-weight="normal" fill="#1a1a1a">4. A COTA INFERIOR DE 10,00 NAO FECHA COM O TOTAL 38,0 QUANDO COMBINADA COM AS DEMAIS COTAS; AJUSTE MARCADO PARA REVISAO.</text>
<text x="870" y="673" font-family="Arial, Helvetica, sans-serif" font-size="8" text-anchor="start" font-weight="normal" fill="#1a1a1a">5. D = SUPERFICIE DIAMANTADA.</text>
<text x="742.0000000000002" y="318.3926315789474" font-family="Arial, Helvetica, sans-serif" font-size="8" text-anchor="start" font-weight="normal" fill="#1a1a1a">Ra 0.4</text>
<text x="874" y="777" font-family="Arial, Helvetica, sans-serif" font-size="8" text-anchor="start" font-weight="normal" fill="#1a1a1a">Barra exportado em CAD para manufatura de precisão.</text>
</svg>