<svg xmlns="http://www.w3.org/2000/svg" width="1260" height="891" viewBox="0 0 1260 891" role="img" aria-label="Desenho técnico A3 — Croqui 116.037">
  <defs>
    <marker id="dim-arrow-l" markerWidth="8" markerHeight="6" refX="0" refY="3" orient="auto">
      <path d="M8,0 L0,3 L8,6" fill="none" stroke="#1a1a1a" stroke-width="0.8"/>
    </marker>
    <marker id="dim-arrow-r" markerWidth="8" markerHeight="6" refX="8" refY="3" orient="auto">
      <path d="M0,0 L8,3 L0,6" fill="none" stroke="#1a1a1a" stroke-width="0.8"/>
    </marker>
    <marker id="leader-dot" markerWidth="4" markerHeight="4" refX="2" refY="2">
      <circle cx="2" cy="2" r="1.5" fill="#1a1a1a"/>
    </marker>
  </defs>
  <rect x="0" y="0" width="1260" height="891" fill="#ffffff"/>
<rect x="20" y="20" width="1220" height="851" fill="none" stroke="#1a1a1a" stroke-width="2"/>
<rect x="30" y="30" width="1200" height="831" fill="none" stroke="#1a1a1a" stroke-width="0.8"/>
<line x1="30" y1="20" x2="30" y2="30" stroke="#1a1a1a" stroke-width="0.8" />
<line x1="30" y1="861" x2="30" y2="871" stroke="#1a1a1a" stroke-width="0.8" />
<text x="180" y="32" font-family="Arial, Helvetica, sans-serif" font-size="9" text-anchor="middle" font-weight="normal" fill="#1a1a1a">4</text>
<text x="180" y="867" font-family="Arial, Helvetica, sans-serif" font-size="9" text-anchor="middle" font-weight="normal" fill="#1a1a1a">4</text>
<line x1="330" y1="20" x2="330" y2="30" stroke="#1a1a1a" stroke-width="0.8" />
<line x1="330" y1="861" x2="330" y2="871" stroke="#1a1a1a" stroke-width="0.8" />
<text x="480" y="32" font-family="Arial, Helvetica, sans-serif" font-size="9" text-anchor="middle" font-weight="normal" fill="#1a1a1a">3</text>
<text x="480" y="867" font-family="Arial, Helvetica, sans-serif" font-size="9" text-anchor="middle" font-weight="normal" fill="#1a1a1a">3</text>
<line x1="630" y1="20" x2="630" y2="30" stroke="#1a1a1a" stroke-width="0.8" />
<line x1="630" y1="861" x2="630" y2="871" stroke="#1a1a1a" stroke-width="0.8" />
<text x="780" y="32" font-family="Arial, Helvetica, sans-serif" font-size="9" text-anchor="middle" font-weight="normal" fill="#1a1a1a">2</text>
<text x="780" y="867" font-family="Arial, Helvetica, sans-serif" font-size="9" text-anchor="middle" font-weight="normal" fill="#1a1a1a">2</text>
<line x1="930" y1="20" x2="930" y2="30" stroke="#1a1a1a" stroke-width="0.8" />
<line x1="930" y1="861" x2="930" y2="871" stroke="#1a1a1a" stroke-width="0.8" />
<text x="1080" y="32" font-family="Arial, Helvetica, sans-serif" font-size="9" text-anchor="middle" font-weight="normal" fill="#1a1a1a">1</text>
<text x="1080" y="867" font-family="Arial, Helvetica, sans-serif" font-size="9" text-anchor="middle" font-weight="normal" fill="#1a1a1a">1</text>
<line x1="1230" y1="20" x2="1230" y2="30" stroke="#1a1a1a" stroke-width="0.8" />
<line x1="1230" y1="861" x2="1230" y2="871" stroke="#1a1a1a" stroke-width="0.8" />
<line x1="20" y1="30" x2="30" y2="30" stroke="#1a1a1a" stroke-width="0.8" />
<line x1="1230" y1="30" x2="1240" y2="30" stroke="#1a1a1a" stroke-width="0.8" />
<text x="25" y="136.875" font-family="Arial, Helvetica, sans-serif" font-size="9" text-anchor="start" font-weight="normal" fill="#1a1a1a">A</text>
<text x="1235" y="136.875" font-family="Arial, Helvetica, sans-serif" font-size="9" text-anchor="end" font-weight="normal" fill="#1a1a1a">A</text>
<line x1="20" y1="237.75" x2="30" y2="237.75" stroke="#1a1a1a" stroke-width="0.8" />
<line x1="1230" y1="237.75" x2="1240" y2="237.75" stroke="#1a1a1a" stroke-width="0.8" />
<text x="25" y="344.625" font-family="Arial, Helvetica, sans-serif" font-size="9" text-anchor="start" font-weight="normal" fill="#1a1a1a">B</text>
<text x="1235" y="344.625" font-family="Arial, Helvetica, sans-serif" font-size="9" text-anchor="end" font-weight="normal" fill="#1a1a1a">B</text>
<line x1="20" y1="445.5" x2="30" y2="445.5" stroke="#1a1a1a" stroke-width="0.8" />
<line x1="1230" y1="445.5" x2="1240" y2="445.5" stroke="#1a1a1a" stroke-width="0.8" />
<text x="25" y="552.375" font-family="Arial, Helvetica, sans-serif" font-size="9" text-anchor="start" font-weight="normal" fill="#1a1a1a">C</text>
<text x="1235" y="552.375" font-family="Arial, Helvetica, sans-serif" font-size="9" text-anchor="end" font-weight="normal" fill="#1a1a1a">C</text>
<line x1="20" y1="653.25" x2="30" y2="653.25" stroke="#1a1a1a" stroke-width="0.8" />
<line x1="1230" y1="653.25" x2="1240" y2="653.25" stroke="#1a1a1a" stroke-width="0.8" />
<text x="25" y="760.125" font-family="Arial, Helvetica, sans-serif" font-size="9" text-anchor="start" font-weight="normal" fill="#1a1a1a">D</text>
<text x="1235" y="760.125" font-family="Arial, Helvetica, sans-serif" font-size="9" text-anchor="end" font-weight="normal" fill="#1a1a1a">D</text>
<line x1="20" y1="861" x2="30" y2="861" stroke="#1a1a1a" stroke-width="0.8" />
<line x1="1230" y1="861" x2="1240" y2="861" stroke="#1a1a1a" stroke-width="0.8" />
<line x1="630" y1="20" x2="630" y2="14" stroke="#1a1a1a" stroke-width="0.8" />
<line x1="630" y1="871" x2="630" y2="877" stroke="#1a1a1a" stroke-width="0.8" />
<line x1="20" y1="445.5" x2="14" y2="445.5" stroke="#1a1a1a" stroke-width="0.8" />
<line x1="1240" y1="445.5" x2="1246" y2="445.5" stroke="#1a1a1a" stroke-width="0.8" />
<rect x="870" y="701" width="360" height="160" fill="none" stroke="#1a1a1a" stroke-width="2"/>
<line x1="870" y1="741" x2="1230" y2="741" stroke="#1a1a1a" stroke-width="0.8" />
<line x1="870" y1="781" x2="1230" y2="781" stroke="#1a1a1a" stroke-width="0.8" />
<line x1="870" y1="821" x2="1230" y2="821" stroke="#1a1a1a" stroke-width="0.8" />
<line x1="1068" y1="701" x2="1068" y2="741" stroke="#1a1a1a" stroke-width="0.8" />
<text x="874" y="711" font-family="Arial, Helvetica, sans-serif" font-size="7" text-anchor="start" fill="#555">DRAWN BY:</text>
<text x="874" y="729" font-family="Arial, Helvetica, sans-serif" font-size="11" text-anchor="start" font-weight="normal" fill="#1a1a1a">A.Expert</text>
<text x="874" y="737" font-family="Arial, Helvetica, sans-serif" font-size="8" text-anchor="start" font-weight="normal" fill="#1a1a1a">DATE: 2026-05-05</text>
<text x="1072" y="711" font-family="Arial, Helvetica, sans-serif" font-size="7" text-anchor="start" fill="#555">SCALE:</text>
<text x="1072" y="729" font-family="Arial, Helvetica, sans-serif" font-size="14" text-anchor="start" font-weight="bold" fill="#1a1a1a">1:1</text>
<line x1="1068" y1="741" x2="1068" y2="781" stroke="#1a1a1a" stroke-width="0.8" />
<text x="874" y="751" font-family="Arial, Helvetica, sans-serif" font-size="7" text-anchor="start" fill="#555">MATERIAL:</text>
<text x="874" y="767" font-family="Arial, Helvetica, sans-serif" font-size="10" text-anchor="start" font-weight="normal" fill="#1a1a1a">Aço Inoxidável</text>
<text x="1072" y="751" font-family="Arial, Helvetica, sans-serif" font-size="7" text-anchor="start" fill="#555">TITLE:</text>
<text x="1072" y="769" font-family="Arial, Helvetica, sans-serif" font-size="13" text-anchor="start" font-weight="bold" fill="#1a1a1a">CROQUI 116.037</text>
<line x1="1068" y1="781" x2="1068" y2="821" stroke="#1a1a1a" stroke-width="0.8" />
<text x="874" y="791" font-family="Arial, Helvetica, sans-serif" font-size="7" text-anchor="start" fill="#555">TOLERANCE:</text>
<text x="874" y="807" font-family="Arial, Helvetica, sans-serif" font-size="10" text-anchor="start" font-weight="normal" fill="#1a1a1a">ISO 2768-m</text>
<text x="1072" y="791" font-family="Arial, Helvetica, sans-serif" font-size="7" text-anchor="start" fill="#555">PART NO:</text>
<text x="1072" y="809" font-family="Arial, Helvetica, sans-serif" font-size="13" text-anchor="start" font-weight="bold" fill="#1a1a1a">116.037-PRELIM</text>
<line x1="1140" y1="821" x2="1140" y2="861" stroke="#1a1a1a" stroke-width="0.8" />
<text x="874" y="831" font-family="Arial, Helvetica, sans-serif" font-size="7" text-anchor="start" fill="#555">REV:</text>
<text x="874" y="847" font-family="Arial, Helvetica, sans-serif" font-size="12" text-anchor="start" font-weight="bold" fill="#1a1a1a">A</text>
<text x="1072" y="841" font-family="Arial, Helvetica, sans-serif" font-size="11" text-anchor="start" font-weight="normal" fill="#1a1a1a">ISO</text>
<line x1="1068" y1="821" x2="1068" y2="861" stroke="#1a1a1a" stroke-width="0.8" />
<text x="1144" y="841" font-family="Arial, Helvetica, sans-serif" font-size="11" text-anchor="start" font-weight="bold" fill="#1a1a1a">A3</text>
<circle cx="608.3567567567568" cy="312.54" r="50" fill="none" stroke="#1a1a1a" stroke-width="0.8" stroke-dasharray="4 2"/>
<text x="608.3567567567568" y="138.48594594594596" font-family="Arial, Helvetica, sans-serif" font-size="8" text-anchor="middle" font-weight="normal" fill="#1a1a1a">VER DETALHE &quot;D&quot;</text>
<line x1="90" y1="312.54" x2="754" y2="312.54" stroke="#1a1a1a" stroke-width="0.4" stroke-dasharray="12 3 3 3"/>
<line x1="110" y1="172.0556756756757" x2="396.7027027027027" y2="172.0556756756757" stroke="#1a1a1a" stroke-width="2" />
<line x1="110" y1="453.0243243243243" x2="396.7027027027027" y2="453.0243243243243" stroke="#1a1a1a" stroke-width="2" />
<line x1="110" y1="172.0556756756757" x2="110" y2="453.0243243243243" stroke="#1a1a1a" stroke-width="2" />
<line x1="396.7027027027027" y1="172.0556756756757" x2="396.7027027027027" y2="453.0243243243243" stroke="#1a1a1a" stroke-width="2" />
<line x1="116" y1="172.05567567567573" x2="110" y2="178.05567567567573" stroke="#1a1a1a" stroke-width="0.3" opacity="0.3"/>
<line x1="122" y1="172.05567567567573" x2="110" y2="184.05567567567573" stroke="#1a1a1a" stroke-width="0.3" opacity="0.3"/>
<line x1="128" y1="172.05567567567573" x2="110" y2="190.05567567567573" stroke="#1a1a1a" stroke-width="0.3" opacity="0.3"/>
<line x1="134" y1="172.05567567567573" x2="110" y2="196.05567567567573" stroke="#1a1a1a" stroke-width="0.3" opacity="0.3"/>
<line x1="140" y1="172.05567567567573" x2="110" y2="202.05567567567576" stroke="#1a1a1a" stroke-width="0.3" opacity="0.3"/>
<line x1="146" y1="172.05567567567573" x2="110" y2="208.05567567567573" stroke="#1a1a1a" stroke-width="0.3" opacity="0.3"/>
<line x1="152" y1="172.05567567567573" x2="110" y2="214.05567567567573" stroke="#1a1a1a" stroke-width="0.3" opacity="0.3"/>
<line x1="158" y1="172.05567567567573" x2="110" y2="220.05567567567573" stroke="#1a1a1a" stroke-width="0.3" opacity="0.3"/>
<line x1="164" y1="172.05567567567573" x2="110" y2="226.05567567567573" stroke="#1a1a1a" stroke-width="0.3" opacity="0.3"/>
<line x1="170" y1="172.05567567567573" x2="110" y2="232.05567567567573" stroke="#1a1a1a" stroke-width="0.3" opacity="0.3"/>
<line x1="176" y1="172.05567567567573" x2="110" y2="238.05567567567573" stroke="#1a1a1a" stroke-width="0.3" opacity="0.3"/>
<line x1="182" y1="172.05567567567573" x2="110" y2="244.05567567567573" stroke="#1a1a1a" stroke-width="0.3" opacity="0.3"/>
<line x1="188" y1="172.05567567567573" x2="110" y2="250.05567567567573" stroke="#1a1a1a" stroke-width="0.3" opacity="0.3"/>
<line x1="194" y1="172.05567567567573" x2="110" y2="256.05567567567573" stroke="#1a1a1a" stroke-width="0.3" opacity="0.3"/>
<line x1="200" y1="172.05567567567573" x2="110" y2="262.05567567567573" stroke="#1a1a1a" stroke-width="0.3" opacity="0.3"/>
<line x1="206" y1="172.05567567567573" x2="110" y2="268.05567567567573" stroke="#1a1a1a" stroke-width="0.3" opacity="0.3"/>
<line x1="212" y1="172.05567567567573" x2="110" y2="274.05567567567573" stroke="#1a1a1a" stroke-width="0.3" opacity="0.3"/>
<line x1="218" y1="172.05567567567573" x2="110" y2="280.05567567567573" stroke="#1a1a1a" stroke-width="0.3" opacity="0.3"/>
<line x1="224" y1="172.05567567567573" x2="110" y2="286.05567567567573" stroke="#1a1a1a" stroke-width="0.3" opacity="0.3"/>
<line x1="230" y1="172.05567567567573" x2="110" y2="292.05567567567573" stroke="#1a1a1a" stroke-width="0.3" opacity="0.3"/>
<line x1="236" y1="172.05567567567573" x2="110" y2="298.05567567567573" stroke="#1a1a1a" stroke-width="0.3" opacity="0.3"/>
<line x1="242" y1="172.05567567567573" x2="110" y2="304.05567567567573" stroke="#1a1a1a" stroke-width="0.3" opacity="0.3"/>
<line x1="248" y1="172.05567567567573" x2="110" y2="310.05567567567573" stroke="#1a1a1a" stroke-width="0.3" opacity="0.3"/>
<line x1="254" y1="172.05567567567573" x2="110" y2="316.05567567567573" stroke="#1a1a1a" stroke-width="0.3" opacity="0.3"/>
<line x1="260" y1="172.05567567567573" x2="110" y2="322.05567567567573" stroke="#1a1a1a" stroke-width="0.3" opacity="0.3"/>
<line x1="266" y1="172.05567567567573" x2="110" y2="328.05567567567573" stroke="#1a1a1a" stroke-width="0.3" opacity="0.3"/>
<line x1="272" y1="172.05567567567573" x2="110" y2="334.05567567567573" stroke="#1a1a1a" stroke-width="0.3" opacity="0.3"/>
<line x1="278" y1="172.05567567567573" x2="110" y2="340.05567567567573" stroke="#1a1a1a" stroke-width="0.3" opacity="0.3"/>
<line x1="284" y1="172.05567567567573" x2="110" y2="346.05567567567573" stroke="#1a1a1a" stroke-width="0.3" opacity="0.3"/>
<line x1="290" y1="172.05567567567573" x2="110" y2="352.05567567567573" stroke="#1a1a1a" stroke-width="0.3" opacity="0.3"/>
<line x1="296" y1="172.05567567567573" x2="110" y2="358.05567567567573" stroke="#1a1a1a" stroke-width="0.3" opacity="0.3"/>
<line x1="302" y1="172.05567567567573" x2="110" y2="364.05567567567573" stroke="#1a1a1a" stroke-width="0.3" opacity="0.3"/>
<line x1="308" y1="172.05567567567573" x2="110" y2="370.05567567567573" stroke="#1a1a1a" stroke-width="0.3" opacity="0.3"/>
<line x1="314" y1="172.05567567567573" x2="110" y2="376.05567567567573" stroke="#1a1a1a" stroke-width="0.3" opacity="0.3"/>
<line x1="320" y1="172.05567567567573" x2="110" y2="382.05567567567573" stroke="#1a1a1a" stroke-width="0.3" opacity="0.3"/>
<line x1="326" y1="172.05567567567573" x2="110" y2="388.05567567567573" stroke="#1a1a1a" stroke-width="0.3" opacity="0.3"/>
<line x1="332" y1="172.05567567567573" x2="110" y2="394.05567567567573" stroke="#1a1a1a" stroke-width="0.3" opacity="0.3"/>
<line x1="338" y1="172.05567567567573" x2="110" y2="400.05567567567573" stroke="#1a1a1a" stroke-width="0.3" opacity="0.3"/>
<line x1="344" y1="172.05567567567573" x2="110" y2="406.05567567567573" stroke="#1a1a1a" stroke-width="0.3" opacity="0.3"/>
<line x1="350" y1="172.05567567567573" x2="110" y2="412.05567567567573" stroke="#1a1a1a" stroke-width="0.3" opacity="0.3"/>
<line x1="356" y1="172.05567567567573" x2="110" y2="418.05567567567573" stroke="#1a1a1a" stroke-width="0.3" opacity="0.3"/>
<line x1="362" y1="172.05567567567573" x2="110" y2="424.05567567567573" stroke="#1a1a1a" stroke-width="0.3" opacity="0.3"/>
<line x1="368" y1="172.05567567567573" x2="110" y2="430.05567567567573" stroke="#1a1a1a" stroke-width="0.3" opacity="0.3"/>
<line x1="374" y1="172.05567567567573" x2="110" y2="436.05567567567573" stroke="#1a1a1a" stroke-width="0.3" opacity="0.3"/>
<line x1="380" y1="172.05567567567573" x2="110" y2="442.05567567567573" stroke="#1a1a1a" stroke-width="0.3" opacity="0.3"/>
<line x1="386" y1="172.05567567567573" x2="110" y2="448.05567567567573" stroke="#1a1a1a" stroke-width="0.3" opacity="0.3"/>
<line x1="392" y1="172.05567567567573" x2="111.03135135135142" y2="453.0243243243243" stroke="#1a1a1a" stroke-width="0.3" opacity="0.3"/>
<line x1="396.7027027027027" y1="173.35297297297302" x2="117.03135135135142" y2="453.0243243243243" stroke="#1a1a1a" stroke-width="0.3" opacity="0.3"/>
<line x1="396.7027027027027" y1="179.35297297297302" x2="123.03135135135142" y2="453.0243243243243" stroke="#1a1a1a" stroke-width="0.3" opacity="0.3"/>
<line x1="396.7027027027027" y1="185.35297297297302" x2="129.03135135135142" y2="453.0243243243243" stroke="#1a1a1a" stroke-width="0.3" opacity="0.3"/>
<line x1="396.7027027027027" y1="191.35297297297302" x2="135.03135135135142" y2="453.0243243243243" stroke="#1a1a1a" stroke-width="0.3" opacity="0.3"/>
<line x1="396.7027027027027" y1="197.35297297297302" x2="141.03135135135142" y2="453.0243243243243" stroke="#1a1a1a" stroke-width="0.3" opacity="0.3"/>
<line x1="396.7027027027027" y1="203.35297297297302" x2="147.03135135135142" y2="453.0243243243243" stroke="#1a1a1a" stroke-width="0.3" opacity="0.3"/>
<line x1="396.7027027027027" y1="209.35297297297302" x2="153.03135135135142" y2="453.0243243243243" stroke="#1a1a1a" stroke-width="0.3" opacity="0.3"/>
<line x1="396.7027027027027" y1="215.35297297297302" x2="159.03135135135142" y2="453.0243243243243" stroke="#1a1a1a" stroke-width="0.3" opacity="0.3"/>
<line x1="396.7027027027027" y1="221.35297297297302" x2="165.03135135135142" y2="453.0243243243243" stroke="#1a1a1a" stroke-width="0.3" opacity="0.3"/>
<line x1="396.7027027027027" y1="227.35297297297302" x2="171.03135135135142" y2="453.0243243243243" stroke="#1a1a1a" stroke-width="0.3" opacity="0.3"/>
<line x1="396.7027027027027" y1="233.35297297297302" x2="177.03135135135142" y2="453.0243243243243" stroke="#1a1a1a" stroke-width="0.3" opacity="0.3"/>
<line x1="396.7027027027027" y1="239.35297297297302" x2="183.03135135135142" y2="453.0243243243243" stroke="#1a1a1a" stroke-width="0.3" opacity="0.3"/>
<line x1="396.7027027027027" y1="245.35297297297302" x2="189.03135135135142" y2="453.0243243243243" stroke="#1a1a1a" stroke-width="0.3" opacity="0.3"/>
<line x1="396.7027027027027" y1="251.35297297297302" x2="195.03135135135142" y2="453.0243243243243" stroke="#1a1a1a" stroke-width="0.3" opacity="0.3"/>
<line x1="396.7027027027027" y1="257.352972972973" x2="201.03135135135142" y2="453.0243243243243" stroke="#1a1a1a" stroke-width="0.3" opacity="0.3"/>
<line x1="396.7027027027027" y1="263.352972972973" x2="207.03135135135142" y2="453.0243243243243" stroke="#1a1a1a" stroke-width="0.3" opacity="0.3"/>
<line x1="396.7027027027027" y1="269.352972972973" x2="213.03135135135142" y2="453.0243243243243" stroke="#1a1a1a" stroke-width="0.3" opacity="0.3"/>
<line x1="396.7027027027027" y1="275.352972972973" x2="219.03135135135142" y2="453.0243243243243" stroke="#1a1a1a" stroke-width="0.3" opacity="0.3"/>
<line x1="396.7027027027027" y1="281.352972972973" x2="225.03135135135142" y2="453.0243243243243" stroke="#1a1a1a" stroke-width="0.3" opacity="0.3"/>
<line x1="396.7027027027027" y1="287.352972972973" x2="231.03135135135142" y2="453.0243243243243" stroke="#1a1a1a" stroke-width="0.3" opacity="0.3"/>
<line x1="396.7027027027027" y1="293.352972972973" x2="237.03135135135142" y2="453.0243243243243" stroke="#1a1a1a" stroke-width="0.3" opacity="0.3"/>
<line x1="396.7027027027027" y1="299.352972972973" x2="243.03135135135142" y2="453.0243243243243" stroke="#1a1a1a" stroke-width="0.3" opacity="0.3"/>
<line x1="396.7027027027027" y1="305.352972972973" x2="249.03135135135142" y2="453.0243243243243" stroke="#1a1a1a" stroke-width="0.3" opacity="0.3"/>
<line x1="396.7027027027027" y1="311.352972972973" x2="255.03135135135142" y2="453.0243243243243" stroke="#1a1a1a" stroke-width="0.3" opacity="0.3"/>
<line x1="396.7027027027027" y1="317.352972972973" x2="261.0313513513514" y2="453.0243243243243" stroke="#1a1a1a" stroke-width="0.3" opacity="0.3"/>
<line x1="396.7027027027027" y1="323.352972972973" x2="267.0313513513514" y2="453.0243243243243" stroke="#1a1a1a" stroke-width="0.3" opacity="0.3"/>
<line x1="396.7027027027027" y1="329.352972972973" x2="273.0313513513514" y2="453.0243243243243" stroke="#1a1a1a" stroke-width="0.3" opacity="0.3"/>
<line x1="396.7027027027027" y1="335.352972972973" x2="279.0313513513514" y2="453.0243243243243" stroke="#1a1a1a" stroke-width="0.3" opacity="0.3"/>
<line x1="396.7027027027027" y1="341.352972972973" x2="285.0313513513514" y2="453.0243243243243" stroke="#1a1a1a" stroke-width="0.3" opacity="0.3"/>
<line x1="396.7027027027027" y1="347.352972972973" x2="291.0313513513514" y2="453.0243243243243" stroke="#1a1a1a" stroke-width="0.3" opacity="0.3"/>
<line x1="396.7027027027027" y1="353.352972972973" x2="297.0313513513514" y2="453.0243243243243" stroke="#1a1a1a" stroke-width="0.3" opacity="0.3"/>
<line x1="396.7027027027027" y1="359.352972972973" x2="303.0313513513514" y2="453.0243243243243" stroke="#1a1a1a" stroke-width="0.3" opacity="0.3"/>
<line x1="396.7027027027027" y1="365.352972972973" x2="309.0313513513514" y2="453.0243243243243" stroke="#1a1a1a" stroke-width="0.3" opacity="0.3"/>
<line x1="396.7027027027027" y1="371.352972972973" x2="315.0313513513514" y2="453.0243243243243" stroke="#1a1a1a" stroke-width="0.3" opacity="0.3"/>
<line x1="396.7027027027027" y1="377.352972972973" x2="321.0313513513514" y2="453.0243243243243" stroke="#1a1a1a" stroke-width="0.3" opacity="0.3"/>
<line x1="396.7027027027027" y1="383.352972972973" x2="327.0313513513514" y2="453.0243243243243" stroke="#1a1a1a" stroke-width="0.3" opacity="0.3"/>
<line x1="396.7027027027027" y1="389.352972972973" x2="333.0313513513514" y2="453.0243243243243" stroke="#1a1a1a" stroke-width="0.3" opacity="0.3"/>
<line x1="396.7027027027027" y1="395.352972972973" x2="339.0313513513514" y2="453.0243243243243" stroke="#1a1a1a" stroke-width="0.3" opacity="0.3"/>
<line x1="396.7027027027027" y1="401.352972972973" x2="345.0313513513514" y2="453.0243243243243" stroke="#1a1a1a" stroke-width="0.3" opacity="0.3"/>
<line x1="396.7027027027027" y1="407.352972972973" x2="351.0313513513514" y2="453.0243243243243" stroke="#1a1a1a" stroke-width="0.3" opacity="0.3"/>
<line x1="396.7027027027027" y1="413.352972972973" x2="357.0313513513514" y2="453.0243243243243" stroke="#1a1a1a" stroke-width="0.3" opacity="0.3"/>
<line x1="396.7027027027027" y1="419.352972972973" x2="363.0313513513514" y2="453.0243243243243" stroke="#1a1a1a" stroke-width="0.3" opacity="0.3"/>
<line x1="396.7027027027027" y1="425.352972972973" x2="369.0313513513514" y2="453.0243243243243" stroke="#1a1a1a" stroke-width="0.3" opacity="0.3"/>
<line x1="396.7027027027027" y1="431.352972972973" x2="375.0313513513514" y2="453.0243243243243" stroke="#1a1a1a" stroke-width="0.3" opacity="0.3"/>
<line x1="396.7027027027027" y1="437.352972972973" x2="381.0313513513514" y2="453.0243243243243" stroke="#1a1a1a" stroke-width="0.3" opacity="0.3"/>
<line x1="396.7027027027027" y1="443.352972972973" x2="387.0313513513514" y2="453.0243243243243" stroke="#1a1a1a" stroke-width="0.3" opacity="0.3"/>
<line x1="396.7027027027027" y1="449.352972972973" x2="393.0313513513514" y2="453.0243243243243" stroke="#1a1a1a" stroke-width="0.3" opacity="0.3"/>
<line x1="396.7027027027027" y1="228.2156756756757" x2="482.71351351351353" y2="228.2156756756757" stroke="#1a1a1a" stroke-width="2" />
<line x1="396.7027027027027" y1="396.86432432432434" x2="482.71351351351353" y2="396.86432432432434" stroke="#1a1a1a" stroke-width="2" />
<line x1="396.7027027027027" y1="228.2156756756757" x2="396.7027027027027" y2="396.86432432432434" stroke="#1a1a1a" stroke-width="2" />
<line x1="482.71351351351353" y1="228.2156756756757" x2="482.71351351351353" y2="396.86432432432434" stroke="#1a1a1a" stroke-width="2" />
<line x1="402.7027027027027" y1="228.2156756756757" x2="396.7027027027027" y2="234.2156756756757" stroke="#1a1a1a" stroke-width="0.3" opacity="0.3"/>
<line x1="408.7027027027027" y1="228.2156756756757" x2="396.7027027027027" y2="240.2156756756757" stroke="#1a1a1a" stroke-width="0.3" opacity="0.3"/>
<line x1="414.7027027027027" y1="228.2156756756757" x2="396.7027027027027" y2="246.2156756756757" stroke="#1a1a1a" stroke-width="0.3" opacity="0.3"/>
<line x1="420.7027027027027" y1="228.2156756756757" x2="396.7027027027027" y2="252.2156756756757" stroke="#1a1a1a" stroke-width="0.3" opacity="0.3"/>
<line x1="426.7027027027027" y1="228.2156756756757" x2="396.7027027027027" y2="258.2156756756757" stroke="#1a1a1a" stroke-width="0.3" opacity="0.3"/>
<line x1="432.7027027027027" y1="228.2156756756757" x2="396.7027027027027" y2="264.2156756756757" stroke="#1a1a1a" stroke-width="0.3" opacity="0.3"/>
<line x1="438.7027027027027" y1="228.2156756756757" x2="396.7027027027027" y2="270.2156756756757" stroke="#1a1a1a" stroke-width="0.3" opacity="0.3"/>
<line x1="444.7027027027027" y1="228.2156756756757" x2="396.7027027027027" y2="276.2156756756757" stroke="#1a1a1a" stroke-width="0.3" opacity="0.3"/>
<line x1="450.7027027027027" y1="228.2156756756757" x2="396.7027027027027" y2="282.2156756756757" stroke="#1a1a1a" stroke-width="0.3" opacity="0.3"/>
<line x1="456.7027027027027" y1="228.2156756756757" x2="396.7027027027027" y2="288.2156756756757" stroke="#1a1a1a" stroke-width="0.3" opacity="0.3"/>
<line x1="462.7027027027027" y1="228.2156756756757" x2="396.7027027027027" y2="294.2156756756757" stroke="#1a1a1a" stroke-width="0.3" opacity="0.3"/>
<line x1="468.7027027027027" y1="228.2156756756757" x2="396.7027027027027" y2="300.2156756756757" stroke="#1a1a1a" stroke-width="0.3" opacity="0.3"/>
<line x1="474.7027027027027" y1="228.2156756756757" x2="396.7027027027027" y2="306.2156756756757" stroke="#1a1a1a" stroke-width="0.3" opacity="0.3"/>
<line x1="480.7027027027027" y1="228.2156756756757" x2="396.7027027027027" y2="312.2156756756757" stroke="#1a1a1a" stroke-width="0.3" opacity="0.3"/>
<line x1="482.71351351351353" y1="232.20486486486487" x2="396.7027027027027" y2="318.2156756756757" stroke="#1a1a1a" stroke-width="0.3" opacity="0.3"/>
<line x1="482.71351351351353" y1="238.20486486486487" x2="396.7027027027027" y2="324.2156756756757" stroke="#1a1a1a" stroke-width="0.3" opacity="0.3"/>
<line x1="482.71351351351353" y1="244.20486486486487" x2="396.7027027027027" y2="330.2156756756757" stroke="#1a1a1a" stroke-width="0.3" opacity="0.3"/>
<line x1="482.71351351351353" y1="250.20486486486487" x2="396.7027027027027" y2="336.2156756756757" stroke="#1a1a1a" stroke-width="0.3" opacity="0.3"/>
<line x1="482.71351351351353" y1="256.2048648648649" x2="396.7027027027027" y2="342.2156756756757" stroke="#1a1a1a" stroke-width="0.3" opacity="0.3"/>
<line x1="482.71351351351353" y1="262.2048648648649" x2="396.7027027027027" y2="348.2156756756757" stroke="#1a1a1a" stroke-width="0.3" opacity="0.3"/>
<line x1="482.71351351351353" y1="268.2048648648649" x2="396.7027027027027" y2="354.2156756756757" stroke="#1a1a1a" stroke-width="0.3" opacity="0.3"/>
<line x1="482.71351351351353" y1="274.2048648648649" x2="396.7027027027027" y2="360.2156756756757" stroke="#1a1a1a" stroke-width="0.3" opacity="0.3"/>
<line x1="482.71351351351353" y1="280.2048648648649" x2="396.7027027027027" y2="366.2156756756757" stroke="#1a1a1a" stroke-width="0.3" opacity="0.3"/>
<line x1="482.71351351351353" y1="286.2048648648649" x2="396.7027027027027" y2="372.2156756756757" stroke="#1a1a1a" stroke-width="0.3" opacity="0.3"/>
<line x1="482.71351351351353" y1="292.2048648648649" x2="396.7027027027027" y2="378.2156756756757" stroke="#1a1a1a" stroke-width="0.3" opacity="0.3"/>
<line x1="482.71351351351353" y1="298.2048648648649" x2="396.7027027027027" y2="384.2156756756757" stroke="#1a1a1a" stroke-width="0.3" opacity="0.3"/>
<line x1="482.71351351351353" y1="304.2048648648649" x2="396.7027027027027" y2="390.2156756756757" stroke="#1a1a1a" stroke-width="0.3" opacity="0.3"/>
<line x1="482.71351351351353" y1="310.2048648648649" x2="396.7027027027027" y2="396.2156756756757" stroke="#1a1a1a" stroke-width="0.3" opacity="0.3"/>
<line x1="482.71351351351353" y1="316.2048648648649" x2="402.05405405405406" y2="396.86432432432434" stroke="#1a1a1a" stroke-width="0.3" opacity="0.3"/>
<line x1="482.71351351351353" y1="322.2048648648649" x2="408.05405405405406" y2="396.86432432432434" stroke="#1a1a1a" stroke-width="0.3" opacity="0.3"/>
<line x1="482.71351351351353" y1="328.2048648648649" x2="414.05405405405406" y2="396.86432432432434" stroke="#1a1a1a" stroke-width="0.3" opacity="0.3"/>
<line x1="482.71351351351353" y1="334.2048648648649" x2="420.05405405405406" y2="396.86432432432434" stroke="#1a1a1a" stroke-width="0.3" opacity="0.3"/>
<line x1="482.71351351351353" y1="340.2048648648649" x2="426.05405405405406" y2="396.86432432432434" stroke="#1a1a1a" stroke-width="0.3" opacity="0.3"/>
<line x1="482.71351351351353" y1="346.2048648648649" x2="432.05405405405406" y2="396.86432432432434" stroke="#1a1a1a" stroke-width="0.3" opacity="0.3"/>
<line x1="482.71351351351353" y1="352.2048648648649" x2="438.05405405405406" y2="396.86432432432434" stroke="#1a1a1a" stroke-width="0.3" opacity="0.3"/>
<line x1="482.71351351351353" y1="358.2048648648649" x2="444.05405405405406" y2="396.86432432432434" stroke="#1a1a1a" stroke-width="0.3" opacity="0.3"/>
<line x1="482.71351351351353" y1="364.2048648648649" x2="450.05405405405406" y2="396.86432432432434" stroke="#1a1a1a" stroke-width="0.3" opacity="0.3"/>
<line x1="482.71351351351353" y1="370.2048648648649" x2="456.05405405405406" y2="396.86432432432434" stroke="#1a1a1a" stroke-width="0.3" opacity="0.3"/>
<line x1="482.71351351351353" y1="376.2048648648649" x2="462.05405405405406" y2="396.86432432432434" stroke="#1a1a1a" stroke-width="0.3" opacity="0.3"/>
<line x1="482.71351351351353" y1="382.2048648648649" x2="468.05405405405406" y2="396.86432432432434" stroke="#1a1a1a" stroke-width="0.3" opacity="0.3"/>
<line x1="482.71351351351353" y1="388.2048648648649" x2="474.05405405405406" y2="396.86432432432434" stroke="#1a1a1a" stroke-width="0.3" opacity="0.3"/>
<line x1="482.71351351351353" y1="394.2048648648649" x2="480.05405405405406" y2="396.86432432432434" stroke="#1a1a1a" stroke-width="0.3" opacity="0.3"/>
<line x1="482.71351351351353" y1="194.48594594594596" x2="734" y2="194.48594594594596" stroke="#1a1a1a" stroke-width="2" />
<line x1="482.71351351351353" y1="430.5940540540541" x2="734" y2="430.5940540540541" stroke="#1a1a1a" stroke-width="2" />
<line x1="482.71351351351353" y1="194.48594594594596" x2="482.71351351351353" y2="430.5940540540541" stroke="#1a1a1a" stroke-width="2" />
<line x1="734" y1="194.48594594594596" x2="734" y2="430.5940540540541" stroke="#1a1a1a" stroke-width="2" />
<polyline points="482.71351351351353,200.48594594594596 493.18378378378384,196.48594594594596 503.6540540540541,200.48594594594596 503.6540540540541,200.48594594594596 514.1243243243243,196.48594594594596 524.5945945945946,200.48594594594596 524.5945945945946,200.48594594594596 535.0648648648648,196.48594594594596 545.5351351351351,200.48594594594596 545.5351351351351,200.48594594594596 556.0054054054053,196.48594594594596 566.4756756756756,200.48594594594596 566.4756756756756,200.48594594594596 576.9459459459458,196.48594594594596 587.4162162162161,200.48594594594596 587.4162162162161,200.48594594594596 597.8864864864863,196.48594594594596 608.3567567567566,200.48594594594596 608.3567567567566,200.48594594594596 618.8270270270268,196.48594594594596 629.2972972972971,200.48594594594596 629.2972972972971,200.48594594594596 639.7675675675673,196.48594594594596 650.2378378378376,200.48594594594596 650.2378378378376,200.48594594594596 660.7081081081078,196.48594594594596 671.178378378378,200.48594594594596 671.178378378378,200.48594594594596 681.6486486486483,196.48594594594596 692.1189189189186,200.48594594594596 692.1189189189186,200.48594594594596 702.5891891891888,196.48594594594596 713.059459459459,200.48594594594596 713.059459459459,200.48594594594596 723.5297297297293,196.48594594594596 733.9999999999995,200.48594594594596 733.9999999999995,200.48594594594596 733.9999999999998,196.48594594594596 734,200.48594594594596" fill="none" stroke="#1a1a1a" stroke-width="0.8"/>
<polyline points="482.71351351351353,424.5940540540541 493.18378378378384,428.5940540540541 503.6540540540541,424.5940540540541 503.6540540540541,424.5940540540541 514.1243243243243,428.5940540540541 524.5945945945946,424.5940540540541 524.5945945945946,424.5940540540541 535.0648648648648,428.5940540540541 545.5351351351351,424.5940540540541 545.5351351351351,424.5940540540541 556.0054054054053,428.5940540540541 566.4756756756756,424.5940540540541 566.4756756756756,424.5940540540541 576.9459459459458,428.5940540540541 587.4162162162161,424.5940540540541 587.4162162162161,424.5940540540541 597.8864864864863,428.5940540540541 608.3567567567566,424.5940540540541 608.3567567567566,424.5940540540541 618.8270270270268,428.5940540540541 629.2972972972971,424.5940540540541 629.2972972972971,424.5940540540541 639.7675675675673,428.5940540540541 650.2378378378376,424.5940540540541 650.2378378378376,424.5940540540541 660.7081081081078,428.5940540540541 671.178378378378,424.5940540540541 671.178378378378,424.5940540540541 681.6486486486483,428.5940540540541 692.1189189189186,424.5940540540541 692.1189189189186,424.5940540540541 702.5891891891888,428.5940540540541 713.059459459459,424.5940540540541 713.059459459459,424.5940540540541 723.5297297297293,428.5940540540541 733.9999999999995,424.5940540540541 733.9999999999995,424.5940540540541 733.9999999999998,428.5940540540541 734,424.5940540540541" fill="none" stroke="#1a1a1a" stroke-width="0.8"/>
<text x="422" y="503.0243243243243" font-family="Arial, Helvetica, sans-serif" font-size="11" text-anchor="middle" font-weight="bold" fill="#1a1a1a">A) MAIN CROSS-SECTION VIEW (FRONTA)</text>
<line x1="110" y1="455.0243243243243" x2="110" y2="473.0243243243243" stroke="#1a1a1a" stroke-width="0.6" />
<line x1="396.7027027027027" y1="455.0243243243243" x2="396.7027027027027" y2="473.0243243243243" stroke="#1a1a1a" stroke-width="0.6" />
<line x1="110" y1="469.0243243243243" x2="396.7027027027027" y2="469.0243243243243" stroke="#1a1a1a" stroke-width="0.6" marker-start="url(#dim-arrow-l)" marker-end="url(#dim-arrow-r)"/>
<text x="253.35135135135135" y="466.0243243243243" font-family="Arial, Helvetica, sans-serif" font-size="8" text-anchor="middle" font-weight="normal" fill="#1a1a1a">1,70</text>
<line x1="396.7027027027027" y1="398.86432432432434" x2="396.7027027027027" y2="493.0243243243243" stroke="#1a1a1a" stroke-width="0.6" />
<line x1="482.71351351351353" y1="398.86432432432434" x2="482.71351351351353" y2="493.0243243243243" stroke="#1a1a1a" stroke-width="0.6" />
<line x1="396.7027027027027" y1="489.0243243243243" x2="482.71351351351353" y2="489.0243243243243" stroke="#1a1a1a" stroke-width="0.6" marker-start="url(#dim-arrow-l)" marker-end="url(#dim-arrow-r)"/>
<text x="439.70810810810815" y="486.0243243243243" font-family="Arial, Helvetica, sans-serif" font-size="8" text-anchor="middle" font-weight="normal" fill="#1a1a1a">0,51</text>
<line x1="482.71351351351353" y1="432.5940540540541" x2="482.71351351351353" y2="513.0243243243243" stroke="#1a1a1a" stroke-width="0.6" />
<line x1="734" y1="432.5940540540541" x2="734" y2="513.0243243243243" stroke="#1a1a1a" stroke-width="0.6" />
<line x1="482.71351351351353" y1="509.0243243243243" x2="734" y2="509.0243243243243" stroke="#1a1a1a" stroke-width="0.6" marker-start="url(#dim-arrow-l)" marker-end="url(#dim-arrow-r)"/>
<text x="608.3567567567568" y="506.0243243243243" font-family="Arial, Helvetica, sans-serif" font-size="8" text-anchor="middle" font-weight="normal" fill="#1a1a1a">1,49</text>
<line x1="110" y1="455.0243243243243" x2="110" y2="545.0243243243243" stroke="#1a1a1a" stroke-width="0.6" />
<line x1="734" y1="455.0243243243243" x2="734" y2="545.0243243243243" stroke="#1a1a1a" stroke-width="0.6" />
<line x1="110" y1="541.0243243243243" x2="734" y2="541.0243243243243" stroke="#1a1a1a" stroke-width="0.6" marker-start="url(#dim-arrow-l)" marker-end="url(#dim-arrow-r)"/>
<text x="422" y="538.0243243243243" font-family="Arial, Helvetica, sans-serif" font-size="9" text-anchor="middle" font-weight="bold" fill="#1a1a1a">3,70</text>
<line x1="253.35135135135135" y1="172.0556756756757" x2="253.35135135135135" y2="162.0556756756757" stroke="#1a1a1a" stroke-width="0.6" />
<text x="253.35135135135135" y="158.0556756756757" font-family="Arial, Helvetica, sans-serif" font-size="8" text-anchor="middle" font-weight="normal" fill="#1a1a1a">Ø1,67</text>
<line x1="439.70810810810815" y1="228.2156756756757" x2="439.70810810810815" y2="142.0556756756757" stroke="#1a1a1a" stroke-width="0.6" />
<text x="439.70810810810815" y="138.0556756756757" font-family="Arial, Helvetica, sans-serif" font-size="8" text-anchor="middle" font-weight="normal" fill="#1a1a1a">Ø1</text>
<line x1="608.3567567567568" y1="194.48594594594596" x2="608.3567567567568" y2="148.0556756756757" stroke="#1a1a1a" stroke-width="0.6" />
<text x="608.3567567567568" y="144.0556756756757" font-family="Arial, Helvetica, sans-serif" font-size="8" text-anchor="middle" font-weight="normal" fill="#1a1a1a">M1,4 x 0,30</text>
<circle cx="1090" cy="110" r="80" fill="none" stroke="#1a1a1a" stroke-width="2"/>
<line x1="998" y1="110" x2="1182" y2="110" stroke="#1a1a1a" stroke-width="0.4" stroke-dasharray="12 3 3 3"/>
<line x1="1090" y1="18" x2="1090" y2="202" stroke="#1a1a1a" stroke-width="0.4" stroke-dasharray="12 3 3 3"/>
<text x="1090" y="238" font-family="Arial, Helvetica, sans-serif" font-size="10" text-anchor="middle" font-weight="bold" fill="#1a1a1a">B) TOP VIEW</text>
<line x1="723.8421621621621" y1="249.62270270270272" x2="1176.1578378378379" y2="249.62270270270272" stroke="#1a1a1a" stroke-width="2" />
<line x1="723.8421621621621" y1="674.6172972972972" x2="1176.1578378378379" y2="674.6172972972972" stroke="#1a1a1a" stroke-width="2" />
<line x1="723.8421621621621" y1="249.62270270270272" x2="723.8421621621621" y2="674.6172972972972" stroke="#1a1a1a" stroke-width="2" />
<line x1="1176.1578378378379" y1="249.62270270270272" x2="1176.1578378378379" y2="674.6172972972972" stroke="#1a1a1a" stroke-width="2" />
<line x1="713.8421621621621" y1="462.12" x2="1186.1578378378379" y2="462.12" stroke="#1a1a1a" stroke-width="0.4" stroke-dasharray="12 3 3 3"/>
<polyline points="723.8421621621621,254.62270270270272 746.457945945946,251.62270270270272 769.0737297297297,254.62270270270272 769.0737297297297,254.62270270270272 791.6895135135135,251.62270270270272 814.3052972972973,254.62270270270272 814.3052972972973,254.62270270270272 836.9210810810812,251.62270270270272 859.5368648648649,254.62270270270272 859.5368648648649,254.62270270270272 882.1526486486487,251.62270270270272 904.7684324324325,254.62270270270272 904.7684324324325,254.62270270270272 927.3842162162164,251.62270270270272 950.0000000000001,254.62270270270272 950.0000000000001,254.62270270270272 972.6157837837839,251.62270270270272 995.2315675675677,254.62270270270272 995.2315675675677,254.62270270270272 1017.8473513513514,251.62270270270272 1040.4631351351352,254.62270270270272 1040.4631351351352,254.62270270270272 1063.078918918919,251.62270270270272 1085.6947027027027,254.62270270270272 1085.6947027027027,254.62270270270272 1108.3104864864863,251.62270270270272 1130.9262702702702,254.62270270270272 1130.9262702702702,254.62270270270272 1153.542054054054,251.62270270270272 1176.1578378378376,254.62270270270272 1176.1578378378376,254.62270270270272 1176.1578378378376,251.62270270270272 1176.1578378378379,254.62270270270272" fill="none" stroke="#1a1a1a" stroke-width="0.8"/>
<polyline points="723.8421621621621,669.6172972972972 746.457945945946,672.6172972972972 769.0737297297297,669.6172972972972 769.0737297297297,669.6172972972972 791.6895135135135,672.6172972972972 814.3052972972973,669.6172972972972 814.3052972972973,669.6172972972972 836.9210810810812,672.6172972972972 859.5368648648649,669.6172972972972 859.5368648648649,669.6172972972972 882.1526486486487,672.6172972972972 904.7684324324325,669.6172972972972 904.7684324324325,669.6172972972972 927.3842162162164,672.6172972972972 950.0000000000001,669.6172972972972 950.0000000000001,669.6172972972972 972.6157837837839,672.6172972972972 995.2315675675677,669.6172972972972 995.2315675675677,669.6172972972972 1017.8473513513514,672.6172972972972 1040.4631351351352,669.6172972972972 1040.4631351351352,669.6172972972972 1063.078918918919,672.6172972972972 1085.6947027027027,669.6172972972972 1085.6947027027027,669.6172972972972 1108.3104864864863,672.6172972972972 1130.9262702702702,669.6172972972972 1130.9262702702702,669.6172972972972 1153.542054054054,672.6172972972972 1176.1578378378376,669.6172972972972 1176.1578378378376,669.6172972972972 1176.1578378378376,672.6172972972972 1176.1578378378379,669.6172972972972" fill="none" stroke="#1a1a1a" stroke-width="0.8"/>
<line x1="723.8421621621621" y1="676.6172972972972" x2="723.8421621621621" y2="692.6172972972972" stroke="#1a1a1a" stroke-width="0.6" />
<line x1="1176.1578378378379" y1="676.6172972972972" x2="1176.1578378378379" y2="692.6172972972972" stroke="#1a1a1a" stroke-width="0.6" />
<line x1="723.8421621621621" y1="688.6172972972972" x2="1176.1578378378379" y2="688.6172972972972" stroke="#1a1a1a" stroke-width="0.6" marker-start="url(#dim-arrow-l)" marker-end="url(#dim-arrow-r)"/>
<text x="950" y="686.6172972972972" font-family="Arial, Helvetica, sans-serif" font-size="8" text-anchor="middle" font-weight="normal" fill="#1a1a1a">1,49</text>
<line x1="1178.1578378378379" y1="249.62270270270272" x2="1194.1578378378379" y2="249.62270270270272" stroke="#1a1a1a" stroke-width="0.6" />
<line x1="1178.1578378378379" y1="674.6172972972972" x2="1194.1578378378379" y2="674.6172972972972" stroke="#1a1a1a" stroke-width="0.6" />
<line x1="1190.1578378378379" y1="249.62270270270272" x2="1190.1578378378379" y2="674.6172972972972" stroke="#1a1a1a" stroke-width="0.6" marker-start="url(#dim-arrow-l)" marker-end="url(#dim-arrow-r)"/>
<text x="1196.1578378378379" y="465.12" font-family="Arial, Helvetica, sans-serif" font-size="8" text-anchor="start" font-weight="normal" fill="#1a1a1a">Ø1,40</text>
<text x="950" y="702.6172972972972" font-family="Arial, Helvetica, sans-serif" font-size="9" text-anchor="middle" font-weight="bold" fill="#1a1a1a">M1,4</text>
<text x="950" y="235.62270270270272" font-family="Arial, Helvetica, sans-serif" font-size="10" text-anchor="middle" font-weight="bold" fill="#1a1a1a">D) DETAIL</text>


<text x="870" y="601" font-family="Arial, Helvetica, sans-serif" font-size="10" text-anchor="start" font-weight="bold" fill="#1a1a1a">NOTES:</text>
<text x="870" y="617" font-family="Arial, Helvetica, sans-serif" font-size="8" text-anchor="start" font-weight="normal" fill="#1a1a1a">1. DIMENSÕES EM MM.</text>
<text x="870" y="631" font-family="Arial, Helvetica, sans-serif" font-size="8" text-anchor="start" font-weight="normal" fill="#1a1a1a">2. ROSCA M1,4 ESPECIFICADA PELO USUÁRIO.</text>
<text x="870" y="645" font-family="Arial, Helvetica, sans-serif" font-size="8" text-anchor="start" font-weight="normal" fill="#1a1a1a">3. PRELIMINAR EXTRAIDO DO CROQUI 116.037.</text>
<text x="870" y="659" font-family="Arial, Helvetica, sans-serif" font-size="8" text-anchor="start" font-weight="normal" fill="#1a1a1a">4. HEXAGONO 1,2 E BROCA 1,2 APARECEM NO CROQUI, MAS A PROFUNDIDADE DA BROCA ESTA MARCADA COMO PERGUNTA.</text>
<text x="870" y="673" font-family="Arial, Helvetica, sans-serif" font-size="8" text-anchor="start" font-weight="normal" fill="#1a1a1a">5. NAO LIBERAR STEP SEM RONALDO CONFIRMAR PROFUNDIDADE DO FURO/HEXAGONO.</text>
<text x="742" y="426.5940540540541" font-family="Arial, Helvetica, sans-serif" font-size="8" text-anchor="start" font-weight="normal" fill="#1a1a1a">Ra 0.4</text>
<text x="874" y="777" font-family="Arial, Helvetica, sans-serif" font-size="8" text-anchor="start" font-weight="normal" fill="#1a1a1a">Barra exportado em CAD para manufatura de precisão.</text>
</svg>