<svg xmlns="http://www.w3.org/2000/svg" width="1680" height="920" viewBox="0 0 1680 920">
      <defs>
        <marker id="arrow-orange" markerWidth="10" markerHeight="10" refX="5" refY="5" orient="auto">
          <path d="M10 0 L0 5 L10 10 z" fill="#f97316"/>
        </marker>
        <marker id="arrow-green" markerWidth="10" markerHeight="10" refX="5" refY="5" orient="auto">
          <path d="M10 0 L0 5 L10 10 z" fill="#22c55e"/>
        </marker>
      </defs>
      <rect width="100%" height="100%" fill="white"/>
      
    <text x="1030" y="60" text-anchor="middle" font-size="34" font-weight="700">Cylinder Pointed Bur 12s</text>
    <text x="1030" y="105" text-anchor="middle" font-size="34" font-weight="700">MCXL nova</text>
    <text x="1030" y="155" text-anchor="middle" font-size="22">Ø5,0 com 2,10 centro ao facetado (3x) 120°</text>
  
      
    <g transform="translate(220 95)">
      <path d="M0 40 L45 40 L65 78 L125 78 L145 40 L190 40" fill="none" stroke="#111827" stroke-width="3"/>
      
    <line x1="45" y1="-7" x2="45" y2="37" stroke="#22c55e" stroke-width="1.2"/>
    <line x1="145" y1="-7" x2="145" y2="37" stroke="#22c55e" stroke-width="1.2"/>
    <line x1="45" y1="15" x2="145" y2="15" stroke="#22c55e" stroke-width="1.4" marker-start="url(#arrow-orange)" marker-end="url(#arrow-orange)"/>
    <text x="95" y="7" text-anchor="middle" font-size="18" fill="#111827">0,50</text>
  
      <text x="18" y="100" font-size="20" fill="#22c55e">45°</text>
    </g>
  
      <line x1="70" y1="300" x2="70" y2="600" stroke="#e5e7eb" stroke-width="0.8" stroke-dasharray="5 5"/>
<line x1="262.4" y1="300" x2="262.4" y2="600" stroke="#e5e7eb" stroke-width="0.8" stroke-dasharray="5 5"/>
<line x1="447.4" y1="300" x2="447.4" y2="600" stroke="#e5e7eb" stroke-width="0.8" stroke-dasharray="5 5"/>
<line x1="465.9" y1="300" x2="465.9" y2="600" stroke="#e5e7eb" stroke-width="0.8" stroke-dasharray="5 5"/>
<line x1="554.7" y1="300" x2="554.7" y2="600" stroke="#e5e7eb" stroke-width="0.8" stroke-dasharray="5 5"/>
<line x1="573.2" y1="300" x2="573.2" y2="600" stroke="#e5e7eb" stroke-width="0.8" stroke-dasharray="5 5"/>
<line x1="647.1999999999999" y1="300" x2="647.1999999999999" y2="600" stroke="#e5e7eb" stroke-width="0.8" stroke-dasharray="5 5"/>
<line x1="913.6" y1="300" x2="913.6" y2="600" stroke="#e5e7eb" stroke-width="0.8" stroke-dasharray="5 5"/>
<line x1="928.4" y1="300" x2="928.4" y2="600" stroke="#e5e7eb" stroke-width="0.8" stroke-dasharray="5 5"/>
<line x1="972.8" y1="300" x2="972.8" y2="600" stroke="#e5e7eb" stroke-width="0.8" stroke-dasharray="5 5"/>
<line x1="1032" y1="300" x2="1032" y2="600" stroke="#e5e7eb" stroke-width="0.8" stroke-dasharray="5 5"/>
<line x1="1180" y1="300" x2="1180" y2="600" stroke="#e5e7eb" stroke-width="0.8" stroke-dasharray="5 5"/>
<line x1="1431.6" y1="300" x2="1431.6" y2="600" stroke="#e5e7eb" stroke-width="0.8" stroke-dasharray="5 5"/>
      <line x1="50" y1="430" x2="1496" y2="430" stroke="#94a3b8" stroke-width="1" stroke-dasharray="8 6"/>
      <polygon points="70,379.25 262.4,379.25 262.4,379.25 447.4,379.25 447.4,381.425 465.9,381.425 465.9,379.25 554.7,379.25 554.7,381.425 573.2,381.425 573.2,376.35 647.1999999999999,376.35 647.1999999999999,376.35 913.6,335.75 913.6,335.75 928.4,335.75 928.4,357.5 972.8,357.5 972.8,395.925 1032,395.925 1032,398.825 1180,398.825 1180,404.625 1431.6,404.625 1431.6,404.625 1476,412.6 1476,447.4 1431.6,455.375 1431.6,455.375 1180,455.375 1180,461.175 1032,461.175 1032,464.075 972.8,464.075 972.8,502.5 928.4,502.5 928.4,524.25 913.6,524.25 913.6,524.25 647.1999999999999,483.65 647.1999999999999,483.65 573.2,483.65 573.2,478.575 554.7,478.575 554.7,480.75 465.9,480.75 465.9,478.575 447.4,478.575 447.4,480.75 262.4,480.75 262.4,480.75 70,480.75" fill="none" stroke="#083344" stroke-width="3"/>
      
    
    <line x1="70" y1="598" x2="70" y2="642" stroke="#f97316" stroke-width="1.2"/>
    <line x1="262.4" y1="598" x2="262.4" y2="642" stroke="#f97316" stroke-width="1.2"/>
    <line x1="70" y1="620" x2="262.4" y2="620" stroke="#f97316" stroke-width="1.4" marker-start="url(#arrow-orange)" marker-end="url(#arrow-orange)"/>
    <text x="166.2" y="612" text-anchor="middle" font-size="18" fill="#111827">5,20</text>
  
    
    <line x1="262.4" y1="628" x2="262.4" y2="672" stroke="#f97316" stroke-width="1.2"/>
    <line x1="647.1999999999999" y1="628" x2="647.1999999999999" y2="672" stroke="#f97316" stroke-width="1.2"/>
    <line x1="262.4" y1="650" x2="647.1999999999999" y2="650" stroke="#f97316" stroke-width="1.4" marker-start="url(#arrow-orange)" marker-end="url(#arrow-orange)"/>
    <text x="454.79999999999995" y="642" text-anchor="middle" font-size="18" fill="#111827">10,40*</text>
  
    
    <line x1="647.1999999999999" y1="598" x2="647.1999999999999" y2="642" stroke="#f97316" stroke-width="1.2"/>
    <line x1="913.6" y1="598" x2="913.6" y2="642" stroke="#f97316" stroke-width="1.2"/>
    <line x1="647.1999999999999" y1="620" x2="913.6" y2="620" stroke="#f97316" stroke-width="1.4" marker-start="url(#arrow-orange)" marker-end="url(#arrow-orange)"/>
    <text x="780.4" y="612" text-anchor="middle" font-size="18" fill="#111827">7,20</text>
  
    
    <line x1="913.6" y1="698" x2="913.6" y2="742" stroke="#f97316" stroke-width="1.2"/>
    <line x1="928.4" y1="698" x2="928.4" y2="742" stroke="#f97316" stroke-width="1.2"/>
    <line x1="913.6" y1="720" x2="928.4" y2="720" stroke="#f97316" stroke-width="1.4" marker-start="url(#arrow-orange)" marker-end="url(#arrow-orange)"/>
    <text x="921" y="712" text-anchor="middle" font-size="18" fill="#111827">0,40</text>
  
    
    <line x1="928.4" y1="658" x2="928.4" y2="702" stroke="#f97316" stroke-width="1.2"/>
    <line x1="972.8" y1="658" x2="972.8" y2="702" stroke="#f97316" stroke-width="1.2"/>
    <line x1="928.4" y1="680" x2="972.8" y2="680" stroke="#f97316" stroke-width="1.4" marker-start="url(#arrow-orange)" marker-end="url(#arrow-orange)"/>
    <text x="950.5999999999999" y="672" text-anchor="middle" font-size="18" fill="#111827">1,20</text>
  
    
    <line x1="972.8" y1="658" x2="972.8" y2="702" stroke="#f97316" stroke-width="1.2"/>
    <line x1="1032" y1="658" x2="1032" y2="702" stroke="#f97316" stroke-width="1.2"/>
    <line x1="972.8" y1="680" x2="1032" y2="680" stroke="#f97316" stroke-width="1.4" marker-start="url(#arrow-orange)" marker-end="url(#arrow-orange)"/>
    <text x="1002.4" y="672" text-anchor="middle" font-size="18" fill="#111827">1,60</text>
  
    
    <line x1="1032" y1="628" x2="1032" y2="672" stroke="#f97316" stroke-width="1.2"/>
    <line x1="1180" y1="628" x2="1180" y2="672" stroke="#f97316" stroke-width="1.2"/>
    <line x1="1032" y1="650" x2="1180" y2="650" stroke="#f97316" stroke-width="1.4" marker-start="url(#arrow-orange)" marker-end="url(#arrow-orange)"/>
    <text x="1106" y="642" text-anchor="middle" font-size="18" fill="#111827">4,00</text>
  
    
    <line x1="1180" y1="598" x2="1180" y2="642" stroke="#f97316" stroke-width="1.2"/>
    <line x1="1476" y1="598" x2="1476" y2="642" stroke="#f97316" stroke-width="1.2"/>
    <line x1="1180" y1="620" x2="1476" y2="620" stroke="#f97316" stroke-width="1.4" marker-start="url(#arrow-orange)" marker-end="url(#arrow-orange)"/>
    <text x="1328" y="612" text-anchor="middle" font-size="18" fill="#111827">8,00</text>
  
    
    <line x1="70" y1="783" x2="70" y2="827" stroke="#f97316" stroke-width="1.2"/>
    <line x1="1476" y1="783" x2="1476" y2="827" stroke="#f97316" stroke-width="1.2"/>
    <line x1="70" y1="805" x2="1476" y2="805" stroke="#f97316" stroke-width="1.4" marker-start="url(#arrow-orange)" marker-end="url(#arrow-orange)"/>
    <text x="773" y="797" text-anchor="middle" font-size="18" fill="#111827">38,0</text>
  
  
      
    
    <line x1="125" y1="260" x2="160" y2="375" stroke="#f97316" stroke-width="1.5" marker-end="url(#arrow-orange)"/>
    <text x="125" y="252" text-anchor="middle" font-size="18" fill="#111827">Rosca M3,5X0,35</text>
  
    
    <line x1="360" y1="245" x2="455.4" y2="380" stroke="#22c55e" stroke-width="1.5" marker-end="url(#arrow-green)"/>
    <text x="360" y="237" text-anchor="middle" font-size="18" fill="#111827">Ø3,35 (2x)</text>
  
    
    <line x1="510" y1="300" x2="610.2" y2="365" stroke="#f97316" stroke-width="1.5" marker-end="url(#arrow-orange)"/>
    <text x="510" y="292" text-anchor="middle" font-size="18" fill="#111827">Ø 3,70</text>
  
    
    <line x1="690" y1="215" x2="917.6" y2="330" stroke="#f97316" stroke-width="1.5" marker-end="url(#arrow-orange)"/>
    <text x="690" y="207" text-anchor="middle" font-size="18" fill="#111827">Ø6,50</text>
  
    
    <line x1="790" y1="235" x2="950.5999999999999" y2="355" stroke="#f97316" stroke-width="1.5" marker-end="url(#arrow-orange)"/>
    <text x="790" y="227" text-anchor="middle" font-size="18" fill="#111827">Ø5,0 / facetado</text>
  
    
    <line x1="860" y1="315" x2="1002.4" y2="395" stroke="#f97316" stroke-width="1.5" marker-end="url(#arrow-orange)"/>
    <text x="860" y="307" text-anchor="middle" font-size="18" fill="#111827">Ø 2,35 D</text>
  
    
    <line x1="1010" y1="330" x2="1106" y2="400" stroke="#f97316" stroke-width="1.5" marker-end="url(#arrow-orange)"/>
    <text x="1010" y="322" text-anchor="middle" font-size="18" fill="#111827">Ø 2,15 D</text>
  
    
    <line x1="1240" y1="335" x2="1305.8" y2="410" stroke="#f97316" stroke-width="1.5" marker-end="url(#arrow-orange)"/>
    <text x="1240" y="327" text-anchor="middle" font-size="18" fill="#111827">Ø 1,75 D</text>
  
    
    <line x1="1510" y1="355" x2="1441" y2="414" stroke="#f97316" stroke-width="1.5" marker-end="url(#arrow-orange)"/>
    <text x="1510" y="347" text-anchor="middle" font-size="18" fill="#111827">45°</text>
  
    <text x="1030" y="880" text-anchor="middle" font-size="30" font-weight="700">D = superfície diamantada</text>
  
      <text x="80" y="850" font-size="15" fill="#b45309">* 10,40 foi usado para fechar a cota total de 38,0 mm. Validar contra a leitura original 10,00 / 10,20 c.</text>
      <text x="80" y="875" font-size="15" fill="#b45309">Arquivo preliminar: rosca, diamantado, raios, chanfros e facetado foram simplificados para conversa técnica.</text>
    </svg>